Pliska-Bold.ufo
<glyph name="dollar" format="2">
  <advance width="500"/>
  <unicode hex="0024"/>
  <outline>
    <contour>
      <point x="29" y="494.392" type="curve" smooth="yes"/>
      <point x="29" y="593.81"/>
      <point x="97.2228" y="659.307"/>
      <point x="214" y="672" type="curve"/>
      <point x="214" y="750" type="line"/>
      <point x="225.785" y="750"/>
      <point x="258.715" y="750"/>
      <point x="269" y="750" type="curve"/>
      <point x="269" y="674" type="line"/>
      <point x="356.856" y="661"/>
      <point x="381" y="650"/>
      <point x="428" y="622" type="curve"/>
      <point x="428" y="599.277"/>
      <point x="428" y="512.526"/>
      <point x="428" y="481" type="curve"/>
      <point x="407" y="481" type="line"/>
      <point x="374.351" y="593.582"/>
      <point x="345.866" y="626.608"/>
      <point x="269" y="641" type="curve"/>
      <point x="269" y="426" type="line"/>
      <point x="419.186" y="353.045"/>
      <point x="472" y="293.207"/>
      <point x="472" y="191.58" type="curve" smooth="yes"/>
      <point x="472" y="83.704"/>
      <point x="412.493" y="26.2487"/>
      <point x="269" y="0" type="curve"/>
      <point x="269" y="-99" type="line"/>
      <point x="258.009" y="-99"/>
      <point x="224.762" y="-99"/>
      <point x="214" y="-99" type="curve"/>
      <point x="214" y="0" type="line"/>
      <point x="152" y="3"/>
      <point x="128" y="9"/>
      <point x="46" y="43" type="curve"/>
      <point x="46" y="69.4776"/>
      <point x="46" y="162.93"/>
      <point x="46" y="199" type="curve"/>
      <point x="67" y="197" type="line"/>
      <point x="98.8312" y="89.5698"/>
      <point x="138.605" y="44.0747"/>
      <point x="213" y="30" type="curve"/>
      <point x="213" y="281" type="line"/>
      <point x="79.765" y="347.618"/>
      <point x="29" y="406.492"/>
    </contour>
    <contour>
      <point x="124" y="556.283" type="curve" smooth="yes"/>
      <point x="124" y="508"/>
      <point x="153" y="475"/>
      <point x="213" y="454" type="curve"/>
      <point x="213" y="644" type="line"/>
      <point x="150" y="628"/>
      <point x="124" y="602"/>
    </contour>
    <contour>
      <point x="269" y="30" type="line"/>
      <point x="351.713" y="42"/>
      <point x="362" y="75"/>
      <point x="362" y="143.143" type="curve" smooth="yes"/>
      <point x="362" y="188"/>
      <point x="357.542" y="205"/>
      <point x="269" y="250" type="curve"/>
    </contour>
  </outline>
</glyph>
<glyph name="percent" format="1">
  <advance width="850"/>
  <unicode hex="0025"/>
  <outline>
    <contour>
      <point x="44" y="430" type="curve" smooth="yes"/>
      <point x="44" y="558"/>
      <point x="154" y="678"/>
      <point x="270" y="678" type="curve" smooth="yes"/>
      <point x="295" y="678"/>
      <point x="318" y="670"/>
      <point x="345" y="651" type="curve" smooth="yes"/>
      <point x="376" y="629"/>
      <point x="397" y="623"/>
      <point x="438" y="623" type="curve" smooth="yes"/>
      <point x="499" y="623"/>
      <point x="573" y="650"/>
      <point x="595" y="681" type="curve" smooth="yes"/>
      <point x="600" y="688"/>
      <point x="605" y="692"/>
      <point x="610" y="692" type="curve" smooth="yes"/>
      <point x="648" y="692" type="line"/>
      <point x="254" y="-8" type="line"/>
      <point x="199" y="-8" type="line"/>
      <point x="547" y="612" type="line"/>
      <point x="505" y="594"/>
      <point x="466" y="585"/>
      <point x="432" y="585" type="curve" smooth="yes"/>
      <point x="418" y="585"/>
      <point x="406" y="586"/>
      <point x="385" y="590" type="curve"/>
      <point x="384" y="501"/>
      <point x="368" y="445"/>
      <point x="326" y="383" type="curve" smooth="yes"/>
      <point x="286" y="325"/>
      <point x="233" y="294"/>
      <point x="173" y="294" type="curve" smooth="yes"/>
      <point x="97" y="294"/>
      <point x="44" y="350"/>
    </contour>
    <contour>
      <point x="159" y="394" type="curve" smooth="yes"/>
      <point x="159" y="362"/>
      <point x="177" y="341"/>
      <point x="209" y="341" type="curve" smooth="yes"/>
      <point x="289" y="341"/>
      <point x="353" y="495"/>
      <point x="353" y="569" type="curve" smooth="yes"/>
      <point x="353" y="599"/>
      <point x="337" y="609"/>
      <point x="324" y="614" type="curve" smooth="yes"/>
      <point x="311" y="619"/>
      <point x="301" y="632"/>
      <point x="292" y="632" type="curve" smooth="yes"/>
      <point x="233" y="632"/>
      <point x="159" y="453"/>
    </contour>
    <contour>
      <point x="455" y="125" type="curve" smooth="yes"/>
      <point x="455" y="248"/>
      <point x="568" y="372"/>
      <point x="681" y="372" type="curve" smooth="yes"/>
      <point x="751" y="372"/>
      <point x="797" y="327"/>
      <point x="797" y="257" type="curve" smooth="yes"/>
      <point x="797" y="179"/>
      <point x="763" y="95"/>
      <point x="709" y="39" type="curve" smooth="yes"/>
      <point x="678" y="6"/>
      <point x="632" y="-14"/>
      <point x="588" y="-14" type="curve" smooth="yes"/>
      <point x="508" y="-14"/>
      <point x="455" y="41"/>
    </contour>
    <contour>
      <point x="572" y="88" type="curve" smooth="yes"/>
      <point x="572" y="52"/>
      <point x="589" y="32"/>
      <point x="621" y="32" type="curve" smooth="yes"/>
      <point x="658" y="32"/>
      <point x="693" y="61"/>
      <point x="723" y="116" type="curve" smooth="yes"/>
      <point x="751" y="166"/>
      <point x="764" y="209"/>
      <point x="764" y="249" type="curve" smooth="yes"/>
      <point x="764" y="290"/>
      <point x="742" y="321"/>
      <point x="712" y="321" type="curve" smooth="yes"/>
      <point x="686" y="321"/>
      <point x="664" y="305"/>
      <point x="639" y="269" type="curve" smooth="yes"/>
      <point x="606" y="220"/>
      <point x="572" y="129"/>
    </contour>
  </outline>
</glyph>
<glyph name="parenleft" format="2">
  <advance width="333"/>
  <unicode hex="0028"/>
  <outline>
    <contour>
      <point x="46" y="259" type="curve" smooth="yes"/>
      <point x="46" y="388"/>
      <point x="92" y="507"/>
      <point x="177" y="599" type="curve" smooth="yes"/>
      <point x="216" y="640"/>
      <point x="244" y="661"/>
      <point x="306" y="694" type="curve"/>
      <point x="306" y="667" type="line"/>
      <point x="246" y="627"/>
      <point x="222" y="601"/>
      <point x="201" y="557" type="curve" smooth="yes"/>
      <point x="173" y="497"/>
      <point x="159" y="396"/>
      <point x="159" y="258" type="curve" smooth="yes"/>
      <point x="159" y="121"/>
      <point x="173" y="29"/>
      <point x="203" y="-33" type="curve" smooth="yes"/>
      <point x="224" y="-78"/>
      <point x="249" y="-104"/>
      <point x="306" y="-140" type="curve"/>
      <point x="306" y="-168" type="line"/>
      <point x="208" y="-109"/>
      <point x="165" y="-69"/>
      <point x="119" y="3" type="curve" smooth="yes"/>
      <point x="71" y="79"/>
      <point x="46" y="168"/>
    </contour>
  </outline>
</glyph>
<glyph name="asterisk" format="1">
  <advance width="500"/>
  <unicode hex="002A"/>
  <outline>
    <contour>
      <point x="56" y="557" type="curve" smooth="yes"/>
      <point x="56" y="586"/>
      <point x="75" y="606"/>
      <point x="104" y="606" type="curve" smooth="yes"/>
      <point x="131" y="606"/>
      <point x="146" y="595"/>
      <point x="167" y="561" type="curve" smooth="yes"/>
      <point x="192" y="521"/>
      <point x="198" y="515"/>
      <point x="236" y="494" type="curve"/>
      <point x="243" y="497" type="line"/>
      <point x="242" y="539"/>
      <point x="239" y="550"/>
      <point x="218" y="588" type="curve" smooth="yes"/>
      <point x="204" y="614"/>
      <point x="200" y="624"/>
      <point x="200" y="641" type="curve" smooth="yes"/>
      <point x="200" y="669"/>
      <point x="222" y="691"/>
      <point x="252" y="691" type="curve" smooth="yes"/>
      <point x="280" y="691"/>
      <point x="300" y="669"/>
      <point x="300" y="636" type="curve" smooth="yes"/>
      <point x="300" y="621"/>
      <point x="297" y="611"/>
      <point x="284" y="588" type="curve" smooth="yes"/>
      <point x="267" y="560"/>
      <point x="262" y="541"/>
      <point x="262" y="516" type="curve" smooth="yes"/>
      <point x="262" y="497" type="line"/>
      <point x="270" y="494" type="line"/>
      <point x="307" y="523"/>
      <point x="315" y="533"/>
      <point x="341" y="570" type="curve" smooth="yes"/>
      <point x="361" y="601"/>
      <point x="373" y="609"/>
      <point x="395" y="609" type="curve" smooth="yes"/>
      <point x="422" y="609"/>
      <point x="447" y="585"/>
      <point x="447" y="559" type="curve" smooth="yes"/>
      <point x="447" y="541"/>
      <point x="431" y="519"/>
      <point x="411" y="510" type="curve" smooth="yes"/>
      <point x="399" y="505"/>
      <point x="390" y="503"/>
      <point x="366" y="503" type="curve" smooth="yes"/>
      <point x="323" y="501"/>
      <point x="311" y="497"/>
      <point x="278" y="476" type="curve"/>
      <point x="278" y="468" type="line"/>
      <point x="314" y="451"/>
      <point x="329" y="447"/>
      <point x="374" y="443" type="curve" smooth="yes"/>
      <point x="428" y="439"/>
      <point x="447" y="425"/>
      <point x="447" y="392" type="curve" smooth="yes"/>
      <point x="447" y="364"/>
      <point x="426" y="342"/>
      <point x="398" y="342" type="curve" smooth="yes"/>
      <point x="371" y="342"/>
      <point x="355" y="355"/>
      <point x="323" y="404" type="curve" smooth="yes"/>
      <point x="303" y="432"/>
      <point x="295" y="439"/>
      <point x="266" y="454" type="curve"/>
      <point x="259" y="449" type="line"/>
      <point x="264" y="404"/>
      <point x="268" y="389"/>
      <point x="288" y="349" type="curve" smooth="yes"/>
      <point x="299" y="328"/>
      <point x="302" y="319"/>
      <point x="302" y="307" type="curve" smooth="yes"/>
      <point x="302" y="278"/>
      <point x="280" y="255"/>
      <point x="251" y="255" type="curve" smooth="yes"/>
      <point x="222" y="255"/>
      <point x="203" y="278"/>
      <point x="203" y="312" type="curve" smooth="yes"/>
      <point x="203" y="328"/>
      <point x="206" y="337"/>
      <point x="218" y="359" type="curve" smooth="yes"/>
      <point x="238" y="393"/>
      <point x="240" y="403"/>
      <point x="241" y="449" type="curve"/>
      <point x="234" y="454" type="line"/>
      <point x="196" y="426"/>
      <point x="188" y="418"/>
      <point x="161" y="379" type="curve" smooth="yes"/>
      <point x="141" y="348"/>
      <point x="128" y="339"/>
      <point x="107" y="339" type="curve" smooth="yes"/>
      <point x="79" y="339"/>
      <point x="57" y="361"/>
      <point x="57" y="389" type="curve" smooth="yes"/>
      <point x="57" y="426"/>
      <point x="86" y="445"/>
      <point x="142" y="445" type="curve" smooth="yes"/>
      <point x="184" y="447"/>
      <point x="194" y="450"/>
      <point x="226" y="472" type="curve"/>
      <point x="226" y="479" type="line"/>
      <point x="186" y="497"/>
      <point x="170" y="501"/>
      <point x="124" y="505" type="curve" smooth="yes"/>
      <point x="72" y="509"/>
      <point x="56" y="521"/>
    </contour>
  </outline>
</glyph>
<glyph name="one" format="1">
  <advance width="500"/>
  <unicode hex="0031"/>
  <outline>
    <contour>
      <point x="65" y="553" type="curve"/>
      <point x="65" y="579" type="line"/>
      <point x="317" y="688" type="line"/>
      <point x="334" y="688" type="line"/>
      <point x="334" y="118" type="line" smooth="yes"/>
      <point x="334" y="41"/>
      <point x="351" y="26"/>
      <point x="442" y="24" type="curve"/>
      <point x="442" y="0" type="line"/>
      <point x="67" y="0" type="line"/>
      <point x="67" y="24" type="line"/>
      <point x="166" y="25"/>
      <point x="186" y="42"/>
      <point x="186" y="124" type="curve" smooth="yes"/>
      <point x="186" y="509" type="line" smooth="yes"/>
      <point x="186" y="556"/>
      <point x="175" y="578"/>
      <point x="150" y="578" type="curve" smooth="yes"/>
      <point x="137" y="578"/>
      <point x="112" y="571"/>
      <point x="85" y="561" type="curve" smooth="yes"/>
      <point x="82" y="559"/>
      <point x="74" y="556"/>
    </contour>
  </outline>
</glyph>
<glyph name="four" format="2">
  <advance width="500"/>
  <unicode hex="0034"/>
  <outline>
    <contour>
      <point x="19" y="144" type="line"/>
      <point x="19" y="257" type="line"/>
      <point x="332" y="688" type="line"/>
      <point x="412" y="688" type="line"/>
      <point x="412" y="255" type="line"/>
      <point x="475" y="255" type="line"/>
      <point x="475" y="144" type="line"/>
      <point x="412" y="144" type="line"/>
      <point x="412" y="0" type="line"/>
      <point x="267" y="0" type="line"/>
      <point x="267" y="144" type="line"/>
    </contour>
    <contour>
      <point x="60" y="255" type="line"/>
      <point x="267" y="255" type="line"/>
      <point x="267" y="537" type="line"/>
    </contour>
  </outline>
</glyph>
<glyph name="five" format="1">
  <advance width="500"/>
  <unicode hex="0035"/>
  <outline>
    <contour>
      <point x="22" y="80" type="curve" smooth="yes"/>
      <point x="22" y="108"/>
      <point x="41" y="140"/>
      <point x="84" y="140" type="curve" smooth="yes"/>
      <point x="153" y="140"/>
      <point x="210" y="53"/>
      <point x="273" y="53" type="curve" smooth="yes"/>
      <point x="307" y="53"/>
      <point x="373" y="75"/>
      <point x="373" y="157" type="curve" smooth="yes"/>
      <point x="373" y="218"/>
      <point x="319" y="268"/>
      <point x="266" y="291" type="curve" smooth="yes"/>
      <point x="199" y="321"/>
      <point x="123" y="326"/>
      <point x="51" y="331" type="curve"/>
      <point x="148" y="676" type="line"/>
      <point x="470" y="676" type="line"/>
      <point x="427" y="549" type="line"/>
      <point x="149" y="549" type="line"/>
      <point x="127" y="468" type="line"/>
      <point x="218" y="463"/>
      <point x="280" y="457"/>
      <point x="347" y="419" type="curve" smooth="yes"/>
      <point x="392" y="394"/>
      <point x="451" y="331"/>
      <point x="451" y="233" type="curve" smooth="yes"/>
      <point x="451" y="102"/>
      <point x="347" y="-8"/>
      <point x="165" y="-8" type="curve" smooth="yes"/>
      <point x="88" y="-8"/>
      <point x="22" y="23"/>
    </contour>
  </outline>
</glyph>
<glyph name="six" format="1">
  <advance width="500"/>
  <unicode hex="0036"/>
  <outline>
    <contour>
      <point x="28" y="284" type="curve" smooth="yes"/>
      <point x="28" y="466"/>
      <point x="170" y="658"/>
      <point x="470" y="688" type="curve"/>
      <point x="470" y="662" type="line"/>
      <point x="370" y="642"/>
      <point x="248" y="588"/>
      <point x="204" y="404" type="curve"/>
      <point x="228" y="414"/>
      <point x="246" y="421"/>
      <point x="294" y="421" type="curve" smooth="yes"/>
      <point x="363" y="421"/>
      <point x="475" y="383"/>
      <point x="475" y="211" type="curve" smooth="yes"/>
      <point x="475" y="157"/>
      <point x="437" y="-13"/>
      <point x="257" y="-13" type="curve" smooth="yes"/>
      <point x="167" y="-13"/>
      <point x="28" y="44"/>
    </contour>
    <contour>
      <point x="185" y="273" type="curve" smooth="yes"/>
      <point x="185" y="76"/>
      <point x="200" y="14"/>
      <point x="262" y="14" type="curve" smooth="yes"/>
      <point x="323" y="14"/>
      <point x="323" y="77"/>
      <point x="323" y="156" type="curve" smooth="yes"/>
      <point x="323" y="300"/>
      <point x="307" y="376"/>
      <point x="238" y="376" type="curve" smooth="yes"/>
      <point x="222" y="376"/>
      <point x="205" y="375"/>
      <point x="194" y="363" type="curve" smooth="yes"/>
      <point x="193" y="362"/>
      <point x="185" y="306"/>
    </contour>
  </outline>
</glyph>
<glyph name="seven" format="1">
  <advance width="500"/>
  <unicode hex="0037"/>
  <outline>
    <contour>
      <point x="17" y="454" type="line"/>
      <point x="61" y="676" type="line"/>
      <point x="477" y="676" type="line"/>
      <point x="242" y="0" type="line"/>
      <point x="147" y="0" type="line"/>
      <point x="347" y="539" type="line"/>
      <point x="140" y="539" type="line" smooth="yes"/>
      <point x="85" y="539"/>
      <point x="61" y="518"/>
      <point x="42" y="454" type="curve"/>
    </contour>
  </outline>
</glyph>
<glyph name="eight" format="1">
  <advance width="500"/>
  <unicode hex="0038"/>
  <outline>
    <contour>
      <point x="28" y="155" type="curve" smooth="yes"/>
      <point x="28" y="264"/>
      <point x="111" y="303"/>
      <point x="178" y="324" type="curve"/>
      <point x="103" y="366"/>
      <point x="39" y="427"/>
      <point x="39" y="510" type="curve" smooth="yes"/>
      <point x="39" y="603"/>
      <point x="106" y="688"/>
      <point x="266" y="688" type="curve" smooth="yes"/>
      <point x="418" y="688"/>
      <point x="458" y="600"/>
      <point x="458" y="543" type="curve" smooth="yes"/>
      <point x="458" y="458"/>
      <point x="377" y="422"/>
      <point x="322" y="404" type="curve"/>
      <point x="408" y="353"/>
      <point x="472" y="283"/>
      <point x="472" y="190" type="curve" smooth="yes"/>
      <point x="472" y="65"/>
      <point x="380" y="-13"/>
      <point x="237" y="-13" type="curve" smooth="yes"/>
      <point x="129" y="-13"/>
      <point x="28" y="45"/>
    </contour>
    <contour>
      <point x="149" y="157" type="curve" smooth="yes"/>
      <point x="149" y="85"/>
      <point x="179" y="19"/>
      <point x="244" y="19" type="curve" smooth="yes"/>
      <point x="333" y="19"/>
      <point x="333" y="110"/>
      <point x="333" y="136" type="curve" smooth="yes"/>
      <point x="333" y="218"/>
      <point x="268" y="261"/>
      <point x="200" y="306" type="curve"/>
      <point x="170" y="261"/>
      <point x="149" y="230"/>
    </contour>
    <contour>
      <point x="168" y="578" type="curve" smooth="yes"/>
      <point x="168" y="485"/>
      <point x="288" y="427"/>
      <point x="298" y="422" type="curve"/>
      <point x="321" y="453"/>
      <point x="339" y="477"/>
      <point x="339" y="537" type="curve" smooth="yes"/>
      <point x="339" y="588"/>
      <point x="324" y="659"/>
      <point x="250" y="659" type="curve" smooth="yes"/>
      <point x="201" y="659"/>
      <point x="168" y="619"/>
    </contour>
  </outline>
</glyph>
<glyph name="nine" format="1">
  <advance width="500"/>
  <unicode hex="0039"/>
  <outline>
    <contour>
      <point x="26" y="464" type="curve" smooth="yes"/>
      <point x="26" y="518"/>
      <point x="64" y="688"/>
      <point x="244" y="688" type="curve" smooth="yes"/>
      <point x="334" y="688"/>
      <point x="473" y="631"/>
      <point x="473" y="391" type="curve" smooth="yes"/>
      <point x="473" y="209"/>
      <point x="331" y="17"/>
      <point x="31" y="-13" type="curve"/>
      <point x="31" y="13" type="line"/>
      <point x="131" y="33"/>
      <point x="248" y="84"/>
      <point x="299" y="273" type="curve"/>
      <point x="284" y="265"/>
      <point x="270" y="260"/>
      <point x="255" y="258" type="curve" smooth="yes"/>
      <point x="240" y="255"/>
      <point x="225" y="254"/>
      <point x="207" y="254" type="curve" smooth="yes"/>
      <point x="138" y="254"/>
      <point x="26" y="292"/>
    </contour>
    <contour>
      <point x="178" y="519" type="curve" smooth="yes"/>
      <point x="178" y="375"/>
      <point x="194" y="299"/>
      <point x="263" y="299" type="curve" smooth="yes"/>
      <point x="279" y="299"/>
      <point x="306" y="304"/>
      <point x="307" y="312" type="curve" smooth="yes"/>
      <point x="310" y="328"/>
      <point x="316" y="379"/>
      <point x="316" y="402" type="curve" smooth="yes"/>
      <point x="316" y="599"/>
      <point x="301" y="661"/>
      <point x="239" y="661" type="curve" smooth="yes"/>
      <point x="178" y="661"/>
      <point x="178" y="598"/>
    </contour>
  </outline>
</glyph>
<glyph name="equal" format="1">
  <advance width="570"/>
  <unicode hex="003D"/>
  <outline>
    <contour>
      <point x="33" y="107" type="line"/>
      <point x="33" y="195" type="line"/>
      <point x="537" y="195" type="line"/>
      <point x="537" y="107" type="line"/>
    </contour>
    <contour>
      <point x="33" y="311" type="line"/>
      <point x="33" y="399" type="line"/>
      <point x="537" y="399" type="line"/>
      <point x="537" y="311" type="line"/>
    </contour>
  </outline>
</glyph>
<glyph name="greater" format="1">
  <advance width="570"/>
  <unicode hex="003E"/>
  <outline>
    <contour>
      <point x="31" y="-12" type="line"/>
      <point x="31" y="84" type="line"/>
      <point x="416" y="253" type="line"/>
      <point x="31" y="422" type="line"/>
      <point x="31" y="518" type="line"/>
      <point x="539" y="295" type="line"/>
      <point x="539" y="211" type="line"/>
    </contour>
  </outline>
</glyph>
<glyph name="at" format="1">
  <advance width="930"/>
  <unicode hex="0040"/>
  <outline>
    <contour>
      <point x="108" y="330" type="curve" smooth="yes"/>
      <point x="108" y="531"/>
      <point x="275" y="691"/>
      <point x="485" y="691" type="curve" smooth="yes"/>
      <point x="675" y="691"/>
      <point x="822" y="560"/>
      <point x="822" y="390" type="curve" smooth="yes"/>
      <point x="822" y="257"/>
      <point x="735" y="143"/>
      <point x="633" y="143" type="curve" smooth="yes"/>
      <point x="583" y="143"/>
      <point x="546" y="173"/>
      <point x="539" y="218" type="curve"/>
      <point x="504" y="172"/>
      <point x="456" y="144"/>
      <point x="413" y="144" type="curve" smooth="yes"/>
      <point x="360" y="144"/>
      <point x="319" y="194"/>
      <point x="319" y="259" type="curve" smooth="yes"/>
      <point x="319" y="333"/>
      <point x="351" y="412"/>
      <point x="403" y="467" type="curve" smooth="yes"/>
      <point x="435" y="500"/>
      <point x="478" y="519"/>
      <point x="522" y="519" type="curve" smooth="yes"/>
      <point x="558" y="519"/>
      <point x="573" y="509"/>
      <point x="595" y="466" type="curve"/>
      <point x="606" y="506" type="line"/>
      <point x="677" y="506" type="line"/>
      <point x="611" y="246" type="line" smooth="yes"/>
      <point x="610" y="241"/>
      <point x="609" y="234"/>
      <point x="609" y="228" type="curve" smooth="yes"/>
      <point x="609" y="197"/>
      <point x="622" y="180"/>
      <point x="647" y="180" type="curve" smooth="yes"/>
      <point x="713" y="180"/>
      <point x="775" y="279"/>
      <point x="775" y="385" type="curve" smooth="yes"/>
      <point x="775" y="529"/>
      <point x="642" y="652"/>
      <point x="486" y="652" type="curve" smooth="yes"/>
      <point x="320" y="652"/>
      <point x="200" y="515"/>
      <point x="200" y="325" type="curve" smooth="yes"/>
      <point x="200" y="151"/>
      <point x="324" y="27"/>
      <point x="499" y="27" type="curve" smooth="yes"/>
      <point x="566" y="27"/>
      <point x="616" y="39"/>
      <point x="698" y="76" type="curve"/>
      <point x="711" y="41" type="line"/>
      <point x="614" y="-5"/>
      <point x="561" y="-19"/>
      <point x="487" y="-19" type="curve" smooth="yes"/>
      <point x="274" y="-19"/>
      <point x="108" y="134"/>
    </contour>
    <contour>
      <point x="396" y="277" type="curve" smooth="yes"/>
      <point x="396" y="224"/>
      <point x="419" y="191"/>
      <point x="455" y="191" type="curve" smooth="yes"/>
      <point x="485" y="191"/>
      <point x="515" y="216"/>
      <point x="537" y="259" type="curve" smooth="yes"/>
      <point x="558" y="300"/>
      <point x="575" y="361"/>
      <point x="577" y="406" type="curve" smooth="yes"/>
      <point x="577.118" y="408.306"/>
      <point x="577.177" y="410.56"/>
      <point x="577.177" y="412.76" type="curve" smooth="yes"/>
      <point x="577.177" y="447.761"/>
      <point x="562.285" y="469.118"/>
      <point x="535" y="471" type="curve" smooth="yes"/>
      <point x="533.853" y="471.092"/>
      <point x="532.687" y="471.137"/>
      <point x="531.503" y="471.137" type="curve" smooth="yes"/>
      <point x="506.892" y="471.137"/>
      <point x="474.715" y="451.486"/>
      <point x="448" y="420" type="curve" smooth="yes"/>
      <point x="414" y="382"/>
      <point x="396" y="331"/>
    </contour>
  </outline>
</glyph>
<glyph name="D" format="2">
  <advance width="724"/>
  <unicode hex="0044"/>
  <outline>
    <contour>
      <point x="16" y="0" type="line"/>
      <point x="16" y="25" type="line"/>
      <point x="74" y="27"/>
      <point x="99" y="47"/>
      <point x="99" y="91" type="curve" smooth="yes"/>
      <point x="99" y="584" type="line" smooth="yes"/>
      <point x="99" y="630"/>
      <point x="80" y="645"/>
      <point x="16" y="651" type="curve"/>
      <point x="16" y="676" type="line"/>
      <point x="321" y="676" type="line" smooth="yes"/>
      <point x="552" y="676"/>
      <point x="692" y="551"/>
      <point x="692" y="345" type="curve" smooth="yes"/>
      <point x="692" y="138"/>
      <point x="548" y="0"/>
      <point x="332" y="0" type="curve" smooth="yes"/>
    </contour>
    <contour>
      <point x="261" y="93" type="line" smooth="yes"/>
      <point x="261" y="48"/>
      <point x="274" y="35"/>
      <point x="319" y="35" type="curve" smooth="yes"/>
      <point x="486.799" y="35"/>
      <point x="518" y="192.905"/>
      <point x="518" y="330" type="curve" smooth="yes"/>
      <point x="518" y="458.377"/>
      <point x="483.405" y="642"/>
      <point x="320" y="642" type="curve" smooth="yes"/>
      <point x="281" y="642"/>
      <point x="261" y="630"/>
      <point x="261" y="607" type="curve" smooth="yes"/>
    </contour>
  </outline>
</glyph>
<glyph name="J" format="2">
  <advance width="500"/>
  <unicode hex="004A"/>
  <outline>
    <contour>
      <point x="6" y="33" type="curve" smooth="yes"/>
      <point x="6" y="77.1964"/>
      <point x="37.2607" y="108"/>
      <point x="81.4026" y="108" type="curve" smooth="yes"/>
      <point x="115" y="108"/>
      <point x="151" y="84"/>
      <point x="151" y="38.7988" type="curve" smooth="yes"/>
      <point x="151" y="14.0269"/>
      <point x="138.788" y="1.0132"/>
      <point x="136.667" y="-1.263" type="curve" smooth="yes"/>
      <point x="124.206" y="-14.6329"/>
      <point x="119" y="-22.1895"/>
      <point x="119" y="-31" type="curve" smooth="yes"/>
      <point x="119" y="-50"/>
      <point x="137" y="-63"/>
      <point x="167.167" y="-63" type="curve" smooth="yes"/>
      <point x="209" y="-63"/>
      <point x="228" y="-38"/>
      <point x="228" y="24" type="curve" smooth="yes"/>
      <point x="228" y="580" type="line" smooth="yes"/>
      <point x="228" y="634"/>
      <point x="208" y="648"/>
      <point x="127" y="651" type="curve"/>
      <point x="127" y="676" type="line"/>
      <point x="479" y="676" type="line"/>
      <point x="479" y="651" type="line"/>
      <point x="404" y="646"/>
      <point x="390" y="631"/>
      <point x="390" y="559" type="curve" smooth="yes"/>
      <point x="390" y="123" type="line" smooth="yes"/>
      <point x="390" y="-20"/>
      <point x="316" y="-96"/>
      <point x="185.331" y="-96" type="curve" smooth="yes"/>
      <point x="96.7377" y="-96"/>
      <point x="6" y="-61.0638"/>
    </contour>
  </outline>
</glyph>
<glyph name="Q" format="1">
  <advance width="778"/>
  <unicode hex="0051"/>
  <outline>
    <contour>
      <point x="35" y="331" type="curve" smooth="yes"/>
      <point x="35" y="539"/>
      <point x="185" y="691"/>
      <point x="389" y="691" type="curve" smooth="yes"/>
      <point x="595" y="691"/>
      <point x="743" y="542"/>
      <point x="743" y="334" type="curve" smooth="yes"/>
      <point x="743" y="237"/>
      <point x="710" y="151"/>
      <point x="649" y="86" type="curve" smooth="yes"/>
      <point x="606" y="40"/>
      <point x="571" y="20"/>
      <point x="490" y="-6" type="curve"/>
      <point x="508" y="-43"/>
      <point x="518" y="-58"/>
      <point x="537" y="-77" type="curve" smooth="yes"/>
      <point x="571" y="-111"/>
      <point x="616" y="-129"/>
      <point x="663" y="-129" type="curve" smooth="yes"/>
      <point x="682" y="-129"/>
      <point x="698" y="-126"/>
      <point x="730" y="-117" type="curve"/>
      <point x="736" y="-141" type="line"/>
      <point x="661" y="-168"/>
      <point x="618" y="-176"/>
      <point x="557" y="-176" type="curve" smooth="yes"/>
      <point x="469" y="-176"/>
      <point x="385" y="-144"/>
      <point x="329" y="-88" type="curve" smooth="yes"/>
      <point x="306" y="-65"/>
      <point x="294" y="-46"/>
      <point x="273" y="-2" type="curve"/>
      <point x="197" y="26"/>
      <point x="165" y="46"/>
      <point x="124" y="92" type="curve" smooth="yes"/>
      <point x="66" y="156"/>
      <point x="35" y="240"/>
    </contour>
    <contour>
      <point x="212" y="331" type="curve" smooth="yes"/>
      <point x="212" y="123"/>
      <point x="273" y="14"/>
      <point x="389" y="14" type="curve" smooth="yes"/>
      <point x="504" y="14"/>
      <point x="566" y="124"/>
      <point x="566" y="330" type="curve" smooth="yes"/>
      <point x="566" y="538"/>
      <point x="502" y="658"/>
      <point x="390" y="658" type="curve" smooth="yes"/>
      <point x="276" y="658"/>
      <point x="212" y="541"/>
    </contour>
  </outline>
</glyph>
<glyph name="R" format="2">
  <advance width="712"/>
  <unicode hex="0052"/>
  <outline>
    <contour>
      <point x="16" y="0" type="line"/>
      <point x="16" y="25" type="line"/>
      <point x="94" y="34"/>
      <point x="104" y="44"/>
      <point x="104" y="117" type="curve" smooth="yes"/>
      <point x="104" y="559" type="line" smooth="yes"/>
      <point x="104" y="631"/>
      <point x="90" y="646"/>
      <point x="16" y="651" type="curve"/>
      <point x="16" y="676" type="line"/>
      <point x="338" y="676" type="line" smooth="yes"/>
      <point x="520.596" y="676"/>
      <point x="620" y="613.255"/>
      <point x="620" y="498" type="curve" smooth="yes"/>
      <point x="620" y="409.739"/>
      <point x="566.067" y="351.684"/>
      <point x="463" y="329" type="curve"/>
      <point x="664" y="44" type="line"/>
      <point x="674" y="31"/>
      <point x="687" y="25"/>
      <point x="705" y="25" type="curve"/>
      <point x="705" y="0" type="line"/>
      <point x="500" y="0" type="line"/>
      <point x="293" y="313" type="line"/>
      <point x="266" y="313" type="line"/>
      <point x="266" y="117" type="line" smooth="yes"/>
      <point x="266" y="46"/>
      <point x="276" y="35"/>
      <point x="354" y="25" type="curve"/>
      <point x="354" y="0" type="line"/>
    </contour>
    <contour>
      <point x="266" y="345" type="line"/>
      <point x="283.235" y="345.183" type="line"/>
      <point x="392.136" y="345.183"/>
      <point x="449" y="402.337"/>
      <point x="449" y="494" type="curve" smooth="yes"/>
      <point x="449" y="599"/>
      <point x="412" y="642"/>
      <point x="320" y="642" type="curve" smooth="yes"/>
      <point x="288.738" y="642"/>
      <point x="266" y="634.951"/>
      <point x="266" y="600" type="curve" smooth="yes"/>
    </contour>
  </outline>
</glyph>
<glyph name="S" format="2">
  <advance width="556"/>
  <unicode hex="0053"/>
  <outline>
    <contour>
      <point x="35" y="-19" type="line"/>
      <point x="35" y="228" type="line"/>
      <point x="64" y="228" type="line"/>
      <point x="89.895" y="121.374"/>
      <point x="140.272" y="14"/>
      <point x="264.547" y="14" type="curve" smooth="yes"/>
      <point x="345" y="14"/>
      <point x="394" y="59"/>
      <point x="394" y="130.183" type="curve" smooth="yes"/>
      <point x="394" y="180"/>
      <point x="370" y="206"/>
      <point x="282" y="248" type="curve" smooth="yes"/>
      <point x="215" y="280" type="line" smooth="yes"/>
      <point x="96" y="337"/>
      <point x="44" y="400"/>
      <point x="44" y="494.548" type="curve" smooth="yes"/>
      <point x="44" y="614"/>
      <point x="127" y="691"/>
      <point x="260.712" y="691" type="curve" smooth="yes"/>
      <point x="308.892" y="691"/>
      <point x="341.361" y="681.003"/>
      <point x="367.753" y="671.111" type="curve" smooth="yes"/>
      <point x="388.723" y="663.251"/>
      <point x="406.393" y="658"/>
      <point x="420.987" y="658" type="curve" smooth="yes"/>
      <point x="439" y="658"/>
      <point x="447" y="666"/>
      <point x="454" y="692" type="curve"/>
      <point x="484" y="692" type="line"/>
      <point x="484" y="475" type="line"/>
      <point x="456" y="475" type="line"/>
      <point x="427.866" y="566.437"/>
      <point x="369.223" y="660"/>
      <point x="262.814" y="660" type="curve" smooth="yes"/>
      <point x="195" y="660"/>
      <point x="153" y="622"/>
      <point x="153" y="558.186" type="curve" smooth="yes"/>
      <point x="153" y="512"/>
      <point x="175" y="487"/>
      <point x="256" y="447" type="curve" smooth="yes"/>
      <point x="403" y="374" type="line" smooth="yes"/>
      <point x="467" y="342"/>
      <point x="513" y="267"/>
      <point x="513" y="185.769" type="curve" smooth="yes"/>
      <point x="513" y="66"/>
      <point x="413" y="-19"/>
      <point x="265" y="-19" type="curve" smooth="yes"/>
      <point x="222" y="-19"/>
      <point x="185" y="-12"/>
      <point x="131.807" y="5.73111" type="curve" smooth="yes"/>
      <point x="113" y="12"/>
      <point x="102" y="15"/>
      <point x="94" y="15" type="curve" smooth="yes"/>
      <point x="78" y="15"/>
      <point x="70" y="6"/>
      <point x="64" y="-19" type="curve"/>
    </contour>
  </outline>
</glyph>
<glyph name="T" format="2">
  <advance width="667"/>
  <unicode hex="0054"/>
  <outline>
    <contour>
      <point x="31" y="475" type="line"/>
      <point x="31" y="676" type="line"/>
      <point x="636" y="676" type="line"/>
      <point x="636" y="475" type="line"/>
      <point x="607" y="475" type="line"/>
      <point x="590" y="594"/>
      <point x="557.978" y="645.33"/>
      <point x="435" y="644" type="curve" smooth="yes"/>
      <point x="415" y="643.784" type="line"/>
      <point x="415" y="117" type="line" smooth="yes"/>
      <point x="415" y="41"/>
      <point x="426" y="31"/>
      <point x="513" y="25" type="curve"/>
      <point x="513" y="0" type="line"/>
      <point x="156" y="0" type="line"/>
      <point x="156" y="25" type="line"/>
      <point x="242" y="32"/>
      <point x="253" y="43"/>
      <point x="253" y="117" type="curve" smooth="yes"/>
      <point x="253" y="643.785" type="line"/>
      <point x="233" y="644" type="line" smooth="yes"/>
      <point x="109.022" y="645.335"/>
      <point x="77" y="594"/>
      <point x="60" y="475" type="curve"/>
    </contour>
  </outline>
</glyph>
<glyph name="V" format="2">
  <advance width="722"/>
  <unicode hex="0056"/>
  <outline>
    <contour>
      <point x="16" y="651" type="curve"/>
      <point x="16" y="676" type="line"/>
      <point x="352" y="676" type="line"/>
      <point x="352" y="651" type="line"/>
      <point x="337" y="650"/>
      <point x="324" y="649"/>
      <point x="319" y="649" type="curve"/>
      <point x="281" y="647"/>
      <point x="266" y="636"/>
      <point x="266" y="613" type="curve" smooth="yes"/>
      <point x="266" y="598"/>
      <point x="270" y="586"/>
      <point x="289" y="541" type="curve" smooth="yes"/>
      <point x="427" y="207" type="line"/>
      <point x="554" y="536" type="line" smooth="yes"/>
      <point x="571" y="579"/>
      <point x="574" y="591"/>
      <point x="574" y="607" type="curve" smooth="yes"/>
      <point x="574" y="639"/>
      <point x="559" y="646"/>
      <point x="488" y="651" type="curve"/>
      <point x="488" y="676" type="line"/>
      <point x="701" y="676" type="line"/>
      <point x="701" y="651" type="line"/>
      <point x="649" y="644"/>
      <point x="635" y="631"/>
      <point x="611" y="569" type="curve" smooth="yes"/>
      <point x="383" y="-18" type="line"/>
      <point x="356" y="-18" type="line"/>
      <point x="100" y="581" type="line"/>
      <point x="75" y="636"/>
      <point x="66" y="644"/>
    </contour>
  </outline>
</glyph>
<glyph name="W" format="2">
  <advance width="1000"/>
  <unicode hex="0057"/>
  <outline>
    <contour>
      <point x="19" y="651" type="curve"/>
      <point x="19" y="676" type="line"/>
      <point x="313" y="676" type="line"/>
      <point x="313" y="651" type="line"/>
      <point x="261" y="647"/>
      <point x="249" y="638"/>
      <point x="249" y="611.016" type="curve" smooth="yes"/>
      <point x="249" y="600"/>
      <point x="251" y="592"/>
      <point x="256" y="576" type="curve" smooth="yes"/>
      <point x="376" y="212" type="line"/>
      <point x="494" y="520" type="line"/>
      <point x="459" y="616" type="line" smooth="yes"/>
      <point x="449.957" y="640.804"/>
      <point x="428" y="649"/>
      <point x="387" y="651" type="curve"/>
      <point x="387" y="676" type="line"/>
      <point x="699" y="676" type="line"/>
      <point x="699" y="651" type="line"/>
      <point x="648.335" y="646.818"/>
      <point x="627" y="638.996"/>
      <point x="627" y="615.272" type="curve" smooth="yes"/>
      <point x="627" y="605"/>
      <point x="631" y="590"/>
      <point x="641" y="558" type="curve" smooth="yes"/>
      <point x="749" y="222" type="line"/>
      <point x="861" y="565" type="line" smooth="yes"/>
      <point x="865.614" y="579.132"/>
      <point x="868" y="594"/>
      <point x="868" y="607" type="curve" smooth="yes"/>
      <point x="868" y="638"/>
      <point x="853" y="648"/>
      <point x="799" y="651" type="curve"/>
      <point x="799" y="676" type="line"/>
      <point x="981" y="676" type="line"/>
      <point x="981" y="651" type="line"/>
      <point x="948" y="648"/>
      <point x="925" y="627"/>
      <point x="912" y="587" type="curve" smooth="yes"/>
      <point x="712" y="-15" type="line"/>
      <point x="685" y="-15" type="line"/>
      <point x="514" y="462" type="line"/>
      <point x="328" y="-15" type="line"/>
      <point x="300" y="-15" type="line"/>
      <point x="88" y="587" type="line" smooth="yes"/>
      <point x="71" y="636"/>
      <point x="61" y="645"/>
    </contour>
  </outline>
</glyph>
<glyph name="X" format="2">
  <advance width="722"/>
  <unicode hex="0058"/>
  <outline>
    <contour>
      <point x="16" y="0" type="line"/>
      <point x="16" y="25" type="line"/>
      <point x="66" y="31"/>
      <point x="90" y="44"/>
      <point x="120" y="81" type="curve" smooth="yes"/>
      <point x="295" y="302" type="line"/>
      <point x="97" y="593" type="line" smooth="yes"/>
      <point x="66" y="638"/>
      <point x="53" y="648"/>
      <point x="17" y="651" type="curve"/>
      <point x="17" y="676" type="line"/>
      <point x="363" y="676" type="line"/>
      <point x="363" y="651" type="line"/>
      <point x="336.548" y="649.111"/>
      <point x="284" y="642.771"/>
      <point x="284" y="612.003" type="curve" smooth="yes"/>
      <point x="284" y="606"/>
      <point x="286" y="601"/>
      <point x="299" y="581" type="curve" smooth="yes"/>
      <point x="396" y="431" type="line"/>
      <point x="452" y="508" type="line" smooth="yes"/>
      <point x="499" y="572"/>
      <point x="510" y="593"/>
      <point x="510" y="609.822" type="curve" smooth="yes"/>
      <point x="510" y="643.437"/>
      <point x="466.078" y="647.88"/>
      <point x="438" y="651" type="curve"/>
      <point x="438" y="676" type="line"/>
      <point x="688" y="676" type="line"/>
      <point x="688" y="651" type="line"/>
      <point x="614" y="644"/>
      <point x="588" y="625"/>
      <point x="500" y="505" type="curve" smooth="yes"/>
      <point x="420" y="394" type="line"/>
      <point x="602" y="111" type="line"/>
      <point x="650" y="39"/>
      <point x="664.087" y="30.3797"/>
      <point x="699" y="25" type="curve"/>
      <point x="699" y="0" type="line"/>
      <point x="359" y="0" type="line"/>
      <point x="359" y="25" type="line"/>
      <point x="381.965" y="26.7665"/>
      <point x="439" y="33"/>
      <point x="439" y="56.6181" type="curve" smooth="yes"/>
      <point x="439" y="66"/>
      <point x="430" y="90"/>
      <point x="418" y="109" type="curve" smooth="yes"/>
      <point x="317" y="271" type="line"/>
      <point x="279" y="220" type="line" smooth="yes"/>
      <point x="205" y="120"/>
      <point x="185" y="88"/>
      <point x="185" y="64.5" type="curve" smooth="yes"/>
      <point x="185" y="41"/>
      <point x="205" y="31"/>
      <point x="266" y="25" type="curve"/>
      <point x="266" y="0" type="line"/>
    </contour>
  </outline>
</glyph>
<glyph name="bracketright" format="2">
  <advance width="333"/>
  <unicode hex="005D"/>
  <outline>
    <contour>
      <point x="32" y="-116" type="line"/>
      <point x="112" y="-116" type="line" smooth="yes"/>
      <point x="154" y="-116"/>
      <point x="162" y="-107"/>
      <point x="162" y="-63" type="curve" smooth="yes"/>
      <point x="162" y="575" type="line" smooth="yes"/>
      <point x="162" y="633"/>
      <point x="151" y="645"/>
      <point x="95" y="645" type="curve" smooth="yes"/>
      <point x="32" y="645" type="line"/>
      <point x="32" y="678" type="line"/>
      <point x="266" y="678" type="line"/>
      <point x="266" y="-149" type="line"/>
      <point x="32" y="-149" type="line"/>
    </contour>
  </outline>
</glyph>
<glyph name="a" format="2">
  <advance width="500"/>
  <unicode hex="0061"/>
  <outline>
    <contour>
      <point x="25" y="93.3338" type="curve" smooth="yes"/>
      <point x="25" y="197.535"/>
      <point x="173.158" y="246.318"/>
      <point x="264.607" y="272.02" type="curve" smooth="yes"/>
      <point x="293" y="280" type="line"/>
      <point x="293" y="353" type="line" smooth="yes"/>
      <point x="293" y="414"/>
      <point x="268" y="441"/>
      <point x="215.452" y="441" type="curve" smooth="yes"/>
      <point x="175" y="441"/>
      <point x="147" y="425"/>
      <point x="147" y="405.087" type="curve" smooth="yes"/>
      <point x="147" y="397.328"/>
      <point x="151.615" y="389.485"/>
      <point x="158.642" y="381.962" type="curve" smooth="yes"/>
      <point x="168.075" y="371.863"/>
      <point x="177" y="357.881"/>
      <point x="177" y="339" type="curve" smooth="yes"/>
      <point x="177" y="305"/>
      <point x="149" y="281"/>
      <point x="109" y="281" type="curve" smooth="yes"/>
      <point x="68" y="281"/>
      <point x="44" y="306"/>
      <point x="44" y="347" type="curve" smooth="yes"/>
      <point x="44" y="422"/>
      <point x="120" y="473"/>
      <point x="236.37" y="473" type="curve" smooth="yes"/>
      <point x="354.445" y="473"/>
      <point x="431" y="420"/>
      <point x="431" y="336" type="curve" smooth="yes"/>
      <point x="431" y="75" type="line" smooth="yes"/>
      <point x="431" y="59"/>
      <point x="438" y="50"/>
      <point x="450.273" y="50" type="curve" smooth="yes"/>
      <point x="459.252" y="50"/>
      <point x="467.816" y="54.8162"/>
      <point x="475" y="62" type="curve"/>
      <point x="488" y="43" type="line"/>
      <point x="450" y="2"/>
      <point x="418.912" y="-14"/>
      <point x="374.566" y="-14" type="curve" smooth="yes"/>
      <point x="326.241" y="-14"/>
      <point x="304.08" y="5"/>
      <point x="293" y="56" type="curve"/>
      <point x="239" y="6"/>
      <point x="193" y="-14"/>
      <point x="144.6" y="-14" type="curve" smooth="yes"/>
      <point x="72" y="-14"/>
      <point x="25" y="31"/>
    </contour>
    <contour>
      <point x="171" y="124" type="curve" smooth="yes"/>
      <point x="171" y="84"/>
      <point x="192" y="57"/>
      <point x="224.4" y="57" type="curve" smooth="yes"/>
      <point x="246" y="57"/>
      <point x="266" y="69"/>
      <point x="293" y="100" type="curve"/>
      <point x="293" y="245" type="line"/>
      <point x="213" y="224"/>
      <point x="171" y="182"/>
    </contour>
  </outline>
</glyph>
<glyph name="b" format="2">
  <advance width="556"/>
  <unicode hex="0062"/>
  <outline>
    <contour>
      <point x="72" y="-13" type="line"/>
      <point x="72" y="594" type="line" smooth="yes"/>
      <point x="72" y="634"/>
      <point x="63" y="643"/>
      <point x="17" y="652" type="curve"/>
      <point x="17" y="676" type="line"/>
      <point x="211" y="676" type="line"/>
      <point x="211" y="417" type="line"/>
      <point x="248" y="456"/>
      <point x="285" y="473"/>
      <point x="333" y="473" type="curve" smooth="yes"/>
      <point x="444" y="473"/>
      <point x="521" y="377"/>
      <point x="521" y="240.268" type="curve" smooth="yes"/>
      <point x="521" y="90"/>
      <point x="428" y="-14"/>
      <point x="296.556" y="-14" type="curve" smooth="yes"/>
      <point x="245" y="-14"/>
      <point x="209" y="2"/>
      <point x="163" y="43" type="curve"/>
      <point x="84" y="-13" type="line"/>
    </contour>
    <contour>
      <point x="211" y="97" type="line" smooth="yes"/>
      <point x="211" y="49"/>
      <point x="238" y="18"/>
      <point x="281.3" y="18" type="curve" smooth="yes"/>
      <point x="344" y="18"/>
      <point x="374" y="83"/>
      <point x="374" y="216.397" type="curve" smooth="yes"/>
      <point x="374" y="352"/>
      <point x="343" y="419"/>
      <point x="279.185" y="419" type="curve" smooth="yes"/>
      <point x="248" y="419"/>
      <point x="228" y="403"/>
      <point x="211" y="360" type="curve"/>
    </contour>
  </outline>
</glyph>
<glyph name="e" format="2">
  <advance width="444"/>
  <unicode hex="0065"/>
  <outline>
    <contour>
      <point x="25" y="228" type="curve" smooth="yes"/>
      <point x="25" y="374"/>
      <point x="109" y="473"/>
      <point x="234" y="473" type="curve" smooth="yes"/>
      <point x="372.069" y="473"/>
      <point x="412.569" y="363.031"/>
      <point x="421" y="245" type="curve"/>
      <point x="169" y="245" type="line"/>
      <point x="173.376" y="169.512"/>
      <point x="188.603" y="58"/>
      <point x="288" y="58" type="curve" smooth="yes"/>
      <point x="331" y="58"/>
      <point x="362" y="76"/>
      <point x="402" y="125" type="curve"/>
      <point x="426" y="111" type="line"/>
      <point x="361" y="18"/>
      <point x="312" y="-14"/>
      <point x="231" y="-14" type="curve" smooth="yes"/>
      <point x="107" y="-14"/>
      <point x="25" y="82"/>
    </contour>
    <contour>
      <point x="164" y="282" type="curve"/>
      <point x="298" y="282" type="line"/>
      <point x="298" y="297" type="line" smooth="yes"/>
      <point x="298" y="342.878"/>
      <point x="296.697" y="442"/>
      <point x="234" y="442" type="curve" smooth="yes"/>
      <point x="188" y="442"/>
      <point x="169" y="402"/>
    </contour>
  </outline>
</glyph>
<glyph name="g" format="2">
  <advance width="500"/>
  <unicode hex="0067"/>
  <outline>
    <contour>
      <point x="28" y="-112.976" type="curve" smooth="yes"/>
      <point x="28" y="-73.1721"/>
      <point x="61" y="-48"/>
      <point x="124" y="-39" type="curve"/>
      <point x="60" y="-16"/>
      <point x="42" y="2"/>
      <point x="42" y="39.3387" type="curve" smooth="yes"/>
      <point x="42" y="95"/>
      <point x="82" y="133"/>
      <point x="161" y="160" type="curve"/>
      <point x="93.9087" y="188.549"/>
      <point x="37" y="231.531"/>
      <point x="37" y="310.752" type="curve" smooth="yes"/>
      <point x="37" y="407"/>
      <point x="121" y="473"/>
      <point x="231.545" y="473" type="curve" smooth="yes"/>
      <point x="262.586" y="473"/>
      <point x="293.216" y="467.796"/>
      <point x="308.802" y="463.168" type="curve" smooth="yes"/>
      <point x="325.246" y="458.285" type="line" smooth="yes"/>
      <point x="342.046" y="453.296"/>
      <point x="362.681" y="451"/>
      <point x="376.407" y="451" type="curve" smooth="yes"/>
      <point x="482" y="451" type="line"/>
      <point x="482" y="398" type="line"/>
      <point x="400.939" y="398" type="line"/>
      <point x="429" y="370"/>
      <point x="441" y="340"/>
      <point x="441" y="301.61" type="curve" smooth="yes"/>
      <point x="441" y="199.611"/>
      <point x="356.288" y="148.042"/>
      <point x="267" y="148" type="curve" smooth="yes"/>
      <point x="249.45" y="147.992"/>
      <point x="219.194" y="150.033"/>
      <point x="201.644" y="153.983" type="curve"/>
      <point x="165.997" y="144.864"/>
      <point x="154" y="132.026"/>
      <point x="154" y="107.192" type="curve" smooth="yes"/>
      <point x="154" y="75"/>
      <point x="174.159" y="73.048"/>
      <point x="254" y="68" type="curve" smooth="yes"/>
      <point x="317.265" y="64" type="line" smooth="yes"/>
      <point x="420.793" y="57.4544"/>
      <point x="483" y="22"/>
      <point x="483" y="-58.724" type="curve" smooth="yes"/>
      <point x="483" y="-154.836"/>
      <point x="394.816" y="-206"/>
      <point x="232.994" y="-206" type="curve" smooth="yes"/>
      <point x="103" y="-206"/>
      <point x="28" y="-172.984"/>
    </contour>
    <contour>
      <point x="116" y="-108.817" type="curve" smooth="yes"/>
      <point x="116" y="-151.811"/>
      <point x="162" y="-175"/>
      <point x="259.305" y="-175" type="curve" smooth="yes"/>
      <point x="347.878" y="-175"/>
      <point x="404" y="-155.787"/>
      <point x="404" y="-109.41" type="curve" smooth="yes"/>
      <point x="404" y="-76.1393"/>
      <point x="377.323" y="-59.0098"/>
      <point x="322.367" y="-59" type="curve" smooth="yes"/>
      <point x="257.562" y="-58.9885"/>
      <point x="221.275" y="-55.6239"/>
      <point x="156.642" y="-46.9081" type="curve"/>
      <point x="128.642" y="-70.0966"/>
      <point x="116" y="-86.2787"/>
    </contour>
    <contour>
      <point x="174" y="354.478" type="curve" smooth="yes"/>
      <point x="174" y="265.05"/>
      <point x="206" y="182"/>
      <point x="259.904" y="182" type="curve" smooth="yes"/>
      <point x="291" y="182"/>
      <point x="306" y="209.639"/>
      <point x="306" y="251.463" type="curve" smooth="yes"/>
      <point x="306" y="338.525"/>
      <point x="273" y="442"/>
      <point x="222.155" y="442" type="curve" smooth="yes"/>
      <point x="189" y="442"/>
      <point x="174" y="398"/>
    </contour>
  </outline>
</glyph>
<glyph name="h" format="2">
  <advance width="556"/>
  <unicode hex="0068"/>
  <outline>
    <component base="l"/>
    <contour>
      <point x="183" y="352.005" type="line"/>
      <point x="205" y="386" type="line" smooth="yes"/>
      <point x="242.837" y="444.467"/>
      <point x="288" y="473"/>
      <point x="348" y="473" type="curve" smooth="yes"/>
      <point x="430" y="473"/>
      <point x="483" y="418"/>
      <point x="483" y="332" type="curve" smooth="yes"/>
      <point x="483" y="81" type="line" smooth="yes"/>
      <point x="483" y="39"/>
      <point x="493" y="27"/>
      <point x="532" y="24" type="curve"/>
      <point x="532" y="0" type="line"/>
      <point x="297" y="0" type="line"/>
      <point x="297" y="24" type="line"/>
      <point x="331" y="28"/>
      <point x="344" y="44"/>
      <point x="344" y="81" type="curve" smooth="yes"/>
      <point x="344" y="323" type="line" smooth="yes"/>
      <point x="344" y="379"/>
      <point x="327" y="406"/>
      <point x="292" y="406" type="curve" smooth="yes"/>
      <point x="257.327" y="406"/>
      <point x="223.474" y="376.87"/>
      <point x="206" y="348" type="curve" smooth="yes"/>
      <point x="183" y="310" type="line"/>
    </contour>
  </outline>
</glyph>
<glyph name="j" format="2">
  <advance width="333"/>
  <unicode hex="006A"/>
  <outline>
    <contour>
      <point x="-57" y="-103" type="curve" smooth="yes"/>
      <point x="-57" y="-67"/>
      <point x="-32" y="-42"/>
      <point x="5" y="-42" type="curve" smooth="yes"/>
      <point x="37" y="-42"/>
      <point x="64" y="-66"/>
      <point x="64" y="-96" type="curve" smooth="yes"/>
      <point x="64" y="-119.779"/>
      <point x="56.602" y="-139"/>
      <point x="41" y="-155" type="curve"/>
      <point x="43.7669" y="-163.954"/>
      <point x="56.8923" y="-172"/>
      <point x="73" y="-172" type="curve" smooth="yes"/>
      <point x="106" y="-172"/>
      <point x="121" y="-149"/>
      <point x="121" y="-96" type="curve" smooth="yes"/>
      <point x="121" y="378" type="line" smooth="yes"/>
      <point x="121" y="421"/>
      <point x="109" y="433"/>
      <point x="58" y="437" type="curve"/>
      <point x="58" y="461" type="line"/>
      <point x="260" y="461" type="line"/>
      <point x="260" y="2" type="line" smooth="yes"/>
      <point x="260" y="-115.196"/>
      <point x="215.895" y="-203"/>
      <point x="83" y="-203" type="curve" smooth="yes"/>
      <point x="1" y="-203"/>
      <point x="-57" y="-162"/>
    </contour>
    <contour>
      <point x="108" y="614" type="curve" smooth="yes"/>
      <point x="108" y="656"/>
      <point x="142" y="691"/>
      <point x="185" y="691" type="curve" smooth="yes"/>
      <point x="228" y="691"/>
      <point x="263" y="656"/>
      <point x="263" y="613" type="curve" smooth="yes"/>
      <point x="263" y="570"/>
      <point x="228" y="536"/>
      <point x="185" y="536" type="curve" smooth="yes"/>
      <point x="140" y="536"/>
      <point x="108" y="569"/>
    </contour>
  </outline>
</glyph>
<glyph name="n" format="1">
  <advance width="556"/>
  <unicode hex="006E"/>
  <outline>
    <contour>
      <point x="21" y="0" type="line"/>
      <point x="21" y="24" type="line"/>
      <point x="66" y="33"/>
      <point x="74" y="42"/>
      <point x="74" y="84" type="curve" smooth="yes"/>
      <point x="74" y="378" type="line" smooth="yes"/>
      <point x="74" y="420"/>
      <point x="65" y="430"/>
      <point x="21" y="437" type="curve"/>
      <point x="21" y="461" type="line"/>
      <point x="212" y="461" type="line"/>
      <point x="212" y="386" type="line"/>
      <point x="249" y="445"/>
      <point x="295" y="473"/>
      <point x="355" y="473" type="curve" smooth="yes"/>
      <point x="437" y="473"/>
      <point x="490" y="418"/>
      <point x="490" y="332" type="curve" smooth="yes"/>
      <point x="490" y="81" type="line" smooth="yes"/>
      <point x="490" y="39"/>
      <point x="500" y="27"/>
      <point x="539" y="24" type="curve"/>
      <point x="539" y="0" type="line"/>
      <point x="304" y="0" type="line"/>
      <point x="304" y="24" type="line"/>
      <point x="338" y="28"/>
      <point x="351" y="44"/>
      <point x="351" y="81" type="curve" smooth="yes"/>
      <point x="351" y="323" type="line" smooth="yes"/>
      <point x="351" y="379"/>
      <point x="334" y="406"/>
      <point x="299" y="406" type="curve" smooth="yes"/>
      <point x="276" y="406"/>
      <point x="252" y="394"/>
      <point x="230" y="371" type="curve" smooth="yes"/>
      <point x="220" y="362"/>
      <point x="213" y="352"/>
      <point x="213" y="348" type="curve" smooth="yes"/>
      <point x="213" y="81" type="line" smooth="yes"/>
      <point x="213" y="44"/>
      <point x="225" y="29"/>
      <point x="262" y="24" type="curve"/>
      <point x="262" y="0" type="line"/>
    </contour>
  </outline>
</glyph>
<glyph name="o" format="2">
  <advance width="500"/>
  <unicode hex="006F"/>
  <outline>
    <contour>
      <point x="25" y="230" type="curve" smooth="yes"/>
      <point x="25" y="370.2"/>
      <point x="120.185" y="473"/>
      <point x="250" y="473" type="curve" smooth="yes"/>
      <point x="379.815" y="473"/>
      <point x="475" y="370.2"/>
      <point x="475" y="230" type="curve" smooth="yes"/>
      <point x="475" y="90"/>
      <point x="380" y="-14"/>
      <point x="250" y="-14" type="curve" smooth="yes"/>
      <point x="120" y="-14"/>
      <point x="25" y="90"/>
    </contour>
    <contour>
      <point x="172" y="230" type="curve" smooth="yes"/>
      <point x="172" y="68.0769"/>
      <point x="190.704" y="17"/>
      <point x="250" y="17" type="curve" smooth="yes"/>
      <point x="309.296" y="17"/>
      <point x="328" y="68.0769"/>
      <point x="328" y="230" type="curve" smooth="yes"/>
      <point x="328" y="391.538"/>
      <point x="309.434" y="442"/>
      <point x="250" y="442" type="curve" smooth="yes"/>
      <point x="190.566" y="442"/>
      <point x="172" y="391.538"/>
    </contour>
  </outline>
</glyph>
<glyph name="p" format="2">
  <advance width="556"/>
  <unicode hex="0070"/>
  <outline>
    <contour>
      <point x="19" y="-181" type="line"/>
      <point x="67" y="-173"/>
      <point x="75" y="-164"/>
      <point x="75" y="-123" type="curve" smooth="yes"/>
      <point x="75" y="378.203" type="line" smooth="yes"/>
      <point x="75" y="420"/>
      <point x="65" y="430"/>
      <point x="21" y="437" type="curve"/>
      <point x="21" y="461" type="line"/>
      <point x="212" y="461" type="line"/>
      <point x="212" y="392.128" type="line"/>
      <point x="243" y="450"/>
      <point x="279" y="473"/>
      <point x="335.102" y="473" type="curve" smooth="yes"/>
      <point x="449" y="473"/>
      <point x="524" y="378.203"/>
      <point x="524" y="237.773" type="curve" smooth="yes"/>
      <point x="524" y="92.738"/>
      <point x="444" y="-13"/>
      <point x="328.499" y="-13" type="curve" smooth="yes"/>
      <point x="288" y="-13"/>
      <point x="262" y="0"/>
      <point x="214" y="48.9733" type="curve"/>
      <point x="214" y="-94" type="line" smooth="yes"/>
      <point x="214" y="-161"/>
      <point x="231" y="-181"/>
      <point x="292" y="-184" type="curve"/>
      <point x="292" y="-205" type="line"/>
      <point x="19" y="-205" type="line"/>
    </contour>
    <contour>
      <point x="214" y="104.674" type="line"/>
      <point x="229" y="66.877"/>
      <point x="258" y="42"/>
      <point x="293.131" y="42" type="curve" smooth="yes"/>
      <point x="348" y="42"/>
      <point x="376" y="102.684"/>
      <point x="376" y="234.388" type="curve" smooth="yes"/>
      <point x="376" y="356.321"/>
      <point x="352" y="416"/>
      <point x="298.215" y="416" type="curve" smooth="yes"/>
      <point x="254.697" y="416"/>
      <point x="214" y="376.93"/>
      <point x="214" y="346.374" type="curve" smooth="yes"/>
    </contour>
  </outline>
</glyph>
<glyph name="q" format="1">
  <advance width="556"/>
  <unicode hex="0071"/>
  <outline>
    <contour>
      <point x="34" y="219" type="curve" smooth="yes"/>
      <point x="34" y="368"/>
      <point x="126" y="473"/>
      <point x="256" y="473" type="curve" smooth="yes"/>
      <point x="306" y="473"/>
      <point x="337" y="459"/>
      <point x="388" y="416" type="curve"/>
      <point x="466" y="472" type="line"/>
      <point x="481" y="472" type="line"/>
      <point x="481" y="-123" type="line" smooth="yes"/>
      <point x="481" y="-163"/>
      <point x="490" y="-172"/>
      <point x="536" y="-181" type="curve"/>
      <point x="536" y="-205" type="line"/>
      <point x="269" y="-205" type="line"/>
      <point x="269" y="-180" type="line"/>
      <point x="334" y="-168"/>
      <point x="342" y="-159"/>
      <point x="342" y="-97" type="curve" smooth="yes"/>
      <point x="342" y="42" type="line"/>
      <point x="301" y="2"/>
      <point x="266" y="-14"/>
      <point x="219" y="-14" type="curve" smooth="yes"/>
      <point x="110" y="-14"/>
      <point x="34" y="82"/>
    </contour>
    <contour>
      <point x="180" y="236" type="curve" smooth="yes"/>
      <point x="180" y="105"/>
      <point x="211" y="40"/>
      <point x="273" y="40" type="curve" smooth="yes"/>
      <point x="307" y="40"/>
      <point x="332" y="61"/>
      <point x="342" y="98" type="curve"/>
      <point x="342" y="361" type="line" smooth="yes"/>
      <point x="342" y="409"/>
      <point x="315" y="441"/>
      <point x="275" y="441" type="curve" smooth="yes"/>
      <point x="212" y="441"/>
      <point x="180" y="371"/>
    </contour>
  </outline>
</glyph>
<glyph name="r" format="2">
  <advance width="444"/>
  <unicode hex="0072"/>
  <outline>
    <contour>
      <point x="29" y="0" type="line"/>
      <point x="29" y="24" type="line"/>
      <point x="73" y="32"/>
      <point x="83" y="43"/>
      <point x="83" y="84" type="curve" smooth="yes"/>
      <point x="83" y="378" type="line" smooth="yes"/>
      <point x="83" y="418"/>
      <point x="72" y="431"/>
      <point x="29" y="437" type="curve"/>
      <point x="29" y="461" type="line"/>
      <point x="218" y="461" type="line"/>
      <point x="218" y="379" type="line"/>
      <point x="265" y="446"/>
      <point x="303" y="473"/>
      <point x="349.069" y="473" type="curve" smooth="yes"/>
      <point x="400" y="473"/>
      <point x="434" y="440"/>
      <point x="434" y="395" type="curve" smooth="yes"/>
      <point x="434" y="356"/>
      <point x="408" y="328"/>
      <point x="370.294" y="328" type="curve" smooth="yes"/>
      <point x="345" y="328"/>
      <point x="324.896" y="340.601"/>
      <point x="311.621" y="363.517" type="curve" smooth="yes"/>
      <point x="301.794" y="380.484"/>
      <point x="291" y="387"/>
      <point x="279.213" y="387" type="curve" smooth="yes"/>
      <point x="250" y="387"/>
      <point x="222" y="344"/>
      <point x="222" y="292" type="curve" smooth="yes"/>
      <point x="222" y="103" type="line" smooth="yes"/>
      <point x="222" y="41"/>
      <point x="234" y="28"/>
      <point x="295" y="24" type="curve"/>
      <point x="295" y="0" type="line"/>
    </contour>
  </outline>
</glyph>
<glyph name="s" format="2">
  <advance width="389"/>
  <unicode hex="0073"/>
  <outline>
    <contour>
      <point x="27" y="327" type="curve" smooth="yes"/>
      <point x="27" y="411"/>
      <point x="93" y="473"/>
      <point x="184" y="473" type="curve" smooth="yes"/>
      <point x="206" y="473"/>
      <point x="229" y="469"/>
      <point x="259.618" y="459.002" type="curve" smooth="yes"/>
      <point x="278" y="453"/>
      <point x="288" y="451"/>
      <point x="294" y="451" type="curve" smooth="yes"/>
      <point x="306" y="451"/>
      <point x="312" y="456"/>
      <point x="318" y="471" type="curve"/>
      <point x="340" y="471" type="line"/>
      <point x="340" y="326" type="line"/>
      <point x="315" y="326" type="line"/>
      <point x="295.896" y="382.037"/>
      <point x="260.099" y="440"/>
      <point x="196.662" y="440" type="curve" smooth="yes"/>
      <point x="155" y="440"/>
      <point x="127" y="415"/>
      <point x="127" y="382" type="curve" smooth="yes"/>
      <point x="127" y="348"/>
      <point x="155" y="323"/>
      <point x="223" y="294" type="curve" smooth="yes"/>
      <point x="237.406" y="287.688" type="line" smooth="yes"/>
      <point x="325.803" y="247.629"/>
      <point x="361" y="205.449"/>
      <point x="361" y="138" type="curve" smooth="yes"/>
      <point x="361" y="48"/>
      <point x="298" y="-14"/>
      <point x="214.269" y="-14" type="curve" smooth="yes"/>
      <point x="179" y="-14"/>
      <point x="126.12" y="-2.72736"/>
      <point x="99" y="9" type="curve" smooth="yes"/>
      <point x="89.1144" y="13.2749"/>
      <point x="81" y="15"/>
      <point x="76" y="15" type="curve" smooth="yes"/>
      <point x="67" y="15"/>
      <point x="61" y="8"/>
      <point x="50" y="-13" type="curve"/>
      <point x="25" y="-13" type="line"/>
      <point x="25" y="152" type="line"/>
      <point x="53" y="152" type="line"/>
      <point x="74" y="65"/>
      <point x="120" y="20"/>
      <point x="185.337" y="20" type="curve" smooth="yes"/>
      <point x="235" y="20"/>
      <point x="265" y="46"/>
      <point x="265" y="82.1123" type="curve" smooth="yes"/>
      <point x="265" y="117"/>
      <point x="237" y="142"/>
      <point x="169" y="172" type="curve" smooth="yes"/>
      <point x="154" y="178.611" type="line" smooth="yes"/>
      <point x="63.921" y="219.748"/>
      <point x="27" y="264.369"/>
    </contour>
  </outline>
</glyph>
<glyph name="t" format="2">
  <advance width="333"/>
  <unicode hex="0074"/>
  <outline>
    <contour>
      <point x="20" y="417" type="line"/>
      <point x="20" y="444" type="line"/>
      <point x="85" y="499"/>
      <point x="125" y="544"/>
      <point x="186" y="630" type="curve"/>
      <point x="211" y="630" type="line"/>
      <point x="211" y="461" type="line"/>
      <point x="305" y="461" type="line"/>
      <point x="305" y="417" type="line"/>
      <point x="211" y="417" type="line"/>
      <point x="211" y="116" type="line" smooth="yes"/>
      <point x="211" y="76"/>
      <point x="222" y="59"/>
      <point x="250" y="59" type="curve" smooth="yes"/>
      <point x="271" y="59"/>
      <point x="287" y="73"/>
      <point x="307" y="111" type="curve"/>
      <point x="332" y="100" type="line"/>
      <point x="291" y="18"/>
      <point x="251" y="-12"/>
      <point x="184" y="-12" type="curve" smooth="yes"/>
      <point x="115" y="-12"/>
      <point x="72" y="28"/>
      <point x="72" y="93" type="curve" smooth="yes"/>
      <point x="72" y="417" type="line"/>
    </contour>
  </outline>
</glyph>
<glyph name="v" format="1">
  <advance width="500"/>
  <unicode hex="0076"/>
  <outline>
    <contour>
      <point x="21" y="437" type="curve"/>
      <point x="21" y="461" type="line"/>
      <point x="271" y="461" type="line"/>
      <point x="271" y="437" type="line"/>
      <point x="263" y="436"/>
      <point x="255" y="435"/>
      <point x="253" y="435" type="curve" smooth="yes"/>
      <point x="228" y="433"/>
      <point x="218" y="426"/>
      <point x="218" y="411" type="curve" smooth="yes"/>
      <point x="218" y="405"/>
      <point x="220" y="399"/>
      <point x="227" y="380" type="curve" smooth="yes"/>
      <point x="306" y="177" type="line"/>
      <point x="378" y="359" type="line" smooth="yes"/>
      <point x="385" y="377"/>
      <point x="389" y="393"/>
      <point x="389" y="404" type="curve" smooth="yes"/>
      <point x="389" y="428"/>
      <point x="377" y="435"/>
      <point x="334" y="437" type="curve"/>
      <point x="334" y="461" type="line"/>
      <point x="485" y="461" type="line"/>
      <point x="485" y="437" type="line"/>
      <point x="454" y="434"/>
      <point x="446" y="426"/>
      <point x="427" y="382" type="curve" smooth="yes"/>
      <point x="267" y="-14" type="line"/>
      <point x="241" y="-14" type="line"/>
      <point x="121" y="282" type="line" smooth="yes"/>
      <point x="105.08" y="322.796"/>
      <point x="58.4664" y="422.007"/>
      <point x="56.0331" y="422.007" type="curve" smooth="yes"/>
      <point x="56.021" y="422.007"/>
      <point x="56.0099" y="422.005"/>
      <point x="56" y="422" type="curve" smooth="yes"/>
      <point x="50" y="431"/>
      <point x="44" y="434"/>
    </contour>
  </outline>
</glyph>
<glyph name="x" format="2">
  <advance width="500"/>
  <unicode hex="0078"/>
  <outline>
    <contour>
      <point x="14" y="0" type="line"/>
      <point x="14" y="24" type="line"/>
      <point x="51" y="26"/>
      <point x="71" y="43"/>
      <point x="127" y="117" type="curve" smooth="yes"/>
      <point x="192" y="201" type="line"/>
      <point x="64" y="398" type="line" smooth="yes"/>
      <point x="44" y="428"/>
      <point x="38" y="433"/>
      <point x="12" y="437" type="curve"/>
      <point x="12" y="461" type="line"/>
      <point x="262" y="461" type="line"/>
      <point x="262" y="437" type="line"/>
      <point x="229" y="436"/>
      <point x="215" y="430"/>
      <point x="215" y="418" type="curve" smooth="yes"/>
      <point x="215" y="411.192"/>
      <point x="220.154" y="397.567"/>
      <point x="230" y="383.426" type="curve" smooth="yes"/>
      <point x="286" y="303" type="line"/>
      <point x="342.325" y="374.447" type="line" smooth="yes"/>
      <point x="353.57" y="388.71"/>
      <point x="360" y="403.422"/>
      <point x="360" y="413" type="curve" smooth="yes"/>
      <point x="360" y="430.419"/>
      <point x="327.513" y="434.943"/>
      <point x="309" y="437" type="curve"/>
      <point x="309" y="461" type="line"/>
      <point x="477" y="461" type="line"/>
      <point x="477" y="437" type="line"/>
      <point x="446" y="432"/>
      <point x="426" y="421"/>
      <point x="407" y="398" type="curve" smooth="yes"/>
      <point x="306" y="272" type="line"/>
      <point x="454" y="44" type="line" smooth="yes"/>
      <point x="461" y="33"/>
      <point x="468" y="29"/>
      <point x="484" y="24" type="curve"/>
      <point x="484" y="0" type="line"/>
      <point x="243" y="0" type="line"/>
      <point x="243" y="24" type="line"/>
      <point x="274" y="26"/>
      <point x="288" y="32"/>
      <point x="288" y="44" type="curve" smooth="yes"/>
      <point x="288" y="56"/>
      <point x="278" y="75"/>
      <point x="255" y="108" type="curve" smooth="yes"/>
      <point x="213" y="171" type="line"/>
      <point x="153.255" y="91.0995" type="line" smooth="yes"/>
      <point x="140.488" y="74.025"/>
      <point x="133" y="56.9435"/>
      <point x="133" y="48" type="curve" smooth="yes"/>
      <point x="133" y="33"/>
      <point x="147" y="26"/>
      <point x="183" y="24" type="curve"/>
      <point x="183" y="0" type="line"/>
    </contour>
  </outline>
</glyph>
<glyph name="exclamdown" format="1">
  <advance width="333"/>
  <unicode hex="00A1"/>
  <outline>
    <contour>
      <point x="82" y="418" type="curve" smooth="yes"/>
      <point x="82" y="464"/>
      <point x="120" y="501"/>
      <point x="168" y="501" type="curve" smooth="yes"/>
      <point x="215" y="501"/>
      <point x="251" y="464"/>
      <point x="251" y="416" type="curve" smooth="yes"/>
      <point x="251" y="371"/>
      <point x="213" y="332"/>
      <point x="167" y="332" type="curve" smooth="yes"/>
      <point x="120" y="332"/>
      <point x="82" y="371"/>
    </contour>
    <contour>
      <point x="83" y="-101" type="curve" smooth="yes"/>
      <point x="83" y="-78"/>
      <point x="87" y="-58"/>
      <point x="101" y="-14" type="curve" smooth="yes"/>
      <point x="131" y="82"/>
      <point x="140" y="131"/>
      <point x="153" y="254" type="curve"/>
      <point x="182" y="254" type="line"/>
      <point x="195" y="131"/>
      <point x="205" y="81"/>
      <point x="234" y="-14" type="curve" smooth="yes"/>
      <point x="248" y="-59"/>
      <point x="252" y="-78"/>
      <point x="252" y="-103" type="curve" smooth="yes"/>
      <point x="252" y="-166"/>
      <point x="221" y="-203"/>
      <point x="167" y="-203" type="curve" smooth="yes"/>
      <point x="114" y="-203"/>
      <point x="83" y="-166"/>
    </contour>
  </outline>
</glyph>
<glyph name="sterling" format="1">
  <advance width="500"/>
  <unicode hex="00A3"/>
  <outline>
    <contour>
      <point x="21" y="72" type="curve" smooth="yes"/>
      <point x="21" y="132"/>
      <point x="58" y="164"/>
      <point x="127" y="164" type="curve" smooth="yes"/>
      <point x="145" y="164"/>
      <point x="158" y="162"/>
      <point x="178" y="157" type="curve"/>
      <point x="176" y="194"/>
      <point x="172" y="210"/>
      <point x="137" y="308" type="curve"/>
      <point x="39" y="308" type="line"/>
      <point x="39" y="373" type="line"/>
      <point x="119" y="373" type="line"/>
      <point x="108" y="434"/>
      <point x="105" y="459"/>
      <point x="105" y="489" type="curve" smooth="yes"/>
      <point x="105" y="553"/>
      <point x="134" y="613"/>
      <point x="182" y="648" type="curve" smooth="yes"/>
      <point x="214" y="671"/>
      <point x="258" y="684"/>
      <point x="308" y="684" type="curve" smooth="yes"/>
      <point x="401" y="684"/>
      <point x="459" y="640"/>
      <point x="459" y="571" type="curve" smooth="yes"/>
      <point x="459" y="527"/>
      <point x="433" y="499"/>
      <point x="391" y="499" type="curve" smooth="yes"/>
      <point x="354.371" y="499"/>
      <point x="328.892" y="524.086"/>
      <point x="328.892" y="559.93" type="curve" smooth="yes"/>
      <point x="328.892" y="561.272"/>
      <point x="328.928" y="562.629"/>
      <point x="329" y="564" type="curve" smooth="yes"/>
      <point x="331" y="608" type="line"/>
      <point x="331" y="611" type="line" smooth="yes"/>
      <point x="331" y="639"/>
      <point x="315" y="654"/>
      <point x="287" y="654" type="curve" smooth="yes"/>
      <point x="254" y="654"/>
      <point x="231" y="629"/>
      <point x="231" y="591" type="curve" smooth="yes"/>
      <point x="231" y="569"/>
      <point x="251" y="458"/>
      <point x="270" y="373" type="curve"/>
      <point x="384" y="373" type="line"/>
      <point x="384" y="308" type="line"/>
      <point x="275" y="308" type="line"/>
      <point x="276" y="289"/>
      <point x="277" y="275"/>
      <point x="277" y="254" type="curve" smooth="yes"/>
      <point x="277" y="206"/>
      <point x="273" y="180"/>
      <point x="257" y="134" type="curve"/>
      <point x="300" y="118"/>
      <point x="327" y="112"/>
      <point x="354" y="112" type="curve" smooth="yes"/>
      <point x="416" y="112"/>
      <point x="439" y="129"/>
      <point x="454" y="183" type="curve"/>
      <point x="477" y="183" type="line"/>
      <point x="470" y="104"/>
      <point x="460" y="65"/>
      <point x="439" y="34" type="curve" smooth="yes"/>
      <point x="418" y="3"/>
      <point x="386" y="-14"/>
      <point x="346" y="-14" type="curve" smooth="yes"/>
      <point x="303" y="-14"/>
      <point x="275" y="0"/>
      <point x="221" y="49" type="curve"/>
      <point x="188" y="6"/>
      <point x="154" y="-13"/>
      <point x="109" y="-13" type="curve" smooth="yes"/>
      <point x="53" y="-13"/>
      <point x="21" y="18"/>
    </contour>
    <contour>
      <point x="53" y="66" type="curve" smooth="yes"/>
      <point x="53" y="37"/>
      <point x="76" y="17"/>
      <point x="109" y="17" type="curve" smooth="yes"/>
      <point x="146" y="17"/>
      <point x="167" y="37"/>
      <point x="181" y="86" type="curve"/>
      <point x="154" y="110"/>
      <point x="136" y="118"/>
      <point x="109" y="118" type="curve" smooth="yes"/>
      <point x="75" y="118"/>
      <point x="53" y="98"/>
    </contour>
  </outline>
</glyph>
<glyph name="yen" format="1">
  <advance width="500"/>
  <unicode hex="00A5"/>
  <outline>
    <contour>
      <point x="-64" y="650" type="curve"/>
      <point x="-64" y="676" type="line"/>
      <point x="237" y="676" type="line"/>
      <point x="237" y="650" type="line"/>
      <point x="177" y="648"/>
      <point x="160" y="642"/>
      <point x="160" y="621" type="curve" smooth="yes"/>
      <point x="160" y="605"/>
      <point x="179" y="564"/>
      <point x="187" y="549" type="curve" smooth="yes"/>
      <point x="293" y="342" type="line"/>
      <point x="412" y="572" type="line" smooth="yes"/>
      <point x="417" y="583"/>
      <point x="420" y="595"/>
      <point x="420" y="607" type="curve" smooth="yes"/>
      <point x="420" y="639"/>
      <point x="406" y="647"/>
      <point x="342" y="650" type="curve"/>
      <point x="342" y="676" type="line"/>
      <point x="547" y="676" type="line"/>
      <point x="547" y="650" type="line"/>
      <point x="513" y="647"/>
      <point x="496" y="637"/>
      <point x="483" y="613" type="curve" smooth="yes"/>
      <point x="339" y="342" type="line"/>
      <point x="450" y="342" type="line"/>
      <point x="450" y="292" type="line"/>
      <point x="319" y="292" type="line"/>
      <point x="315" y="281" type="line"/>
      <point x="315" y="214" type="line"/>
      <point x="450" y="214" type="line"/>
      <point x="450" y="164" type="line"/>
      <point x="315" y="164" type="line"/>
      <point x="315" y="115" type="line" smooth="yes"/>
      <point x="315" y="47"/>
      <point x="331" y="32"/>
      <point x="414" y="25" type="curve"/>
      <point x="414" y="0" type="line"/>
      <point x="83" y="0" type="line"/>
      <point x="83" y="25" type="line"/>
      <point x="168" y="32"/>
      <point x="185" y="47"/>
      <point x="185" y="115" type="curve" smooth="yes"/>
      <point x="185" y="164" type="line"/>
      <point x="50" y="164" type="line"/>
      <point x="50" y="214" type="line"/>
      <point x="185" y="214" type="line"/>
      <point x="185" y="271" type="line"/>
      <point x="174" y="292" type="line"/>
      <point x="50" y="292" type="line"/>
      <point x="50" y="342" type="line"/>
      <point x="149" y="342" type="line"/>
      <point x="19" y="597" type="line" smooth="yes"/>
      <point x="0" y="633"/>
      <point x="-23" y="647"/>
    </contour>
  </outline>
</glyph>
<glyph name="section" format="1">
  <advance width="500"/>
  <unicode hex="00A7"/>
  <outline>
    <contour>
      <point x="57" y="293" type="curve" smooth="yes"/>
      <point x="57" y="372"/>
      <point x="101" y="415"/>
      <point x="180" y="415" type="curve" smooth="yes"/>
      <point x="199" y="415" type="line"/>
      <point x="117" y="487"/>
      <point x="99" y="513"/>
      <point x="99" y="561" type="curve" smooth="yes"/>
      <point x="99" y="637"/>
      <point x="161" y="691"/>
      <point x="248" y="691" type="curve" smooth="yes"/>
      <point x="326" y="691"/>
      <point x="393" y="645"/>
      <point x="393" y="592" type="curve" smooth="yes"/>
      <point x="393" y="559"/>
      <point x="362" y="528"/>
      <point x="328" y="528" type="curve" smooth="yes"/>
      <point x="299" y="528"/>
      <point x="268" y="558"/>
      <point x="268" y="585" type="curve" smooth="yes"/>
      <point x="268" y="599"/>
      <point x="277" y="614"/>
      <point x="295" y="628" type="curve" smooth="yes"/>
      <point x="304" y="636"/>
      <point x="310" y="643"/>
      <point x="310" y="647" type="curve" smooth="yes"/>
      <point x="310" y="658"/>
      <point x="284" y="668"/>
      <point x="256" y="668" type="curve" smooth="yes"/>
      <point x="207" y="668"/>
      <point x="173" y="640"/>
      <point x="173" y="599" type="curve" smooth="yes"/>
      <point x="173" y="565"/>
      <point x="208" y="526"/>
      <point x="277" y="480" type="curve" smooth="yes"/>
      <point x="343" y="437"/>
      <point x="393" y="388"/>
      <point x="423" y="337" type="curve" smooth="yes"/>
      <point x="436" y="315"/>
      <point x="443" y="287"/>
      <point x="443" y="256" type="curve" smooth="yes"/>
      <point x="443" y="220"/>
      <point x="429" y="189"/>
      <point x="405" y="170" type="curve" smooth="yes"/>
      <point x="383" y="152"/>
      <point x="356" y="145"/>
      <point x="302" y="144" type="curve"/>
      <point x="376" y="92"/>
      <point x="404" y="51"/>
      <point x="404" y="-3" type="curve" smooth="yes"/>
      <point x="404" y="-78"/>
      <point x="335" y="-132"/>
      <point x="240" y="-132" type="curve" smooth="yes"/>
      <point x="157" y="-132"/>
      <point x="90" y="-87"/>
      <point x="90" y="-32" type="curve" smooth="yes"/>
      <point x="90" y="5"/>
      <point x="118" y="33"/>
      <point x="153" y="33" type="curve" smooth="yes"/>
      <point x="188" y="33"/>
      <point x="218" y="7"/>
      <point x="218" y="-23" type="curve" smooth="yes"/>
      <point x="218" y="-39"/>
      <point x="210" y="-51"/>
      <point x="187" y="-65" type="curve" smooth="yes"/>
      <point x="176" y="-72"/>
      <point x="172" y="-76"/>
      <point x="172" y="-80" type="curve" smooth="yes"/>
      <point x="172" y="-95"/>
      <point x="205" y="-109"/>
      <point x="240" y="-109" type="curve" smooth="yes"/>
      <point x="293" y="-109"/>
      <point x="319" y="-85"/>
      <point x="319" y="-38" type="curve" smooth="yes"/>
      <point x="319" y="-7"/>
      <point x="310" y="9"/>
      <point x="282" y="32" type="curve" smooth="yes"/>
      <point x="225" y="78" type="line" smooth="yes"/>
      <point x="84" y="192"/>
      <point x="57" y="226"/>
    </contour>
    <contour>
      <point x="132" y="336" type="curve" smooth="yes"/>
      <point x="132" y="300"/>
      <point x="142" y="285"/>
      <point x="202" y="233" type="curve" smooth="yes"/>
      <point x="263" y="180"/>
      <point x="284" y="167"/>
      <point x="314" y="167" type="curve" smooth="yes"/>
      <point x="344" y="167"/>
      <point x="367" y="191"/>
      <point x="367" y="225" type="curve" smooth="yes"/>
      <point x="367" y="252"/>
      <point x="357" y="271"/>
      <point x="324" y="302" type="curve" smooth="yes"/>
      <point x="258" y="365"/>
      <point x="216" y="392"/>
      <point x="186" y="392" type="curve" smooth="yes"/>
      <point x="155" y="392"/>
      <point x="132" y="368"/>
    </contour>
  </outline>
</glyph>
<glyph name="dieresis" format="2">
  <advance width="333"/>
  <unicode hex="00A8"/>
  <outline>
    <contour>
      <point x="-2" y="602" type="curve" smooth="yes"/>
      <point x="-2" y="636"/>
      <point x="28" y="666"/>
      <point x="62" y="666" type="curve" smooth="yes"/>
      <point x="97" y="666"/>
      <point x="127" y="636"/>
      <point x="127" y="600" type="curve" smooth="yes"/>
      <point x="127" y="565"/>
      <point x="98" y="537"/>
      <point x="62" y="537" type="curve" smooth="yes"/>
      <point x="27" y="537"/>
      <point x="-2" y="567"/>
    </contour>
    <contour>
      <point x="208" y="603" type="curve" smooth="yes"/>
      <point x="208" y="636"/>
      <point x="238" y="666"/>
      <point x="271" y="666" type="curve" smooth="yes"/>
      <point x="307" y="666"/>
      <point x="337" y="636"/>
      <point x="337" y="600" type="curve" smooth="yes"/>
      <point x="337" y="565"/>
      <point x="308" y="537"/>
      <point x="271" y="537" type="curve" smooth="yes"/>
      <point x="236" y="537"/>
      <point x="208" y="566"/>
    </contour>
  </outline>
</glyph>
<glyph name="copyright" format="1">
  <advance width="747"/>
  <unicode hex="00A9"/>
  <outline>
    <contour>
      <point x="26" y="335" type="curve" smooth="yes"/>
      <point x="26" y="535"/>
      <point x="178" y="691"/>
      <point x="374" y="691" type="curve" smooth="yes"/>
      <point x="569" y="691"/>
      <point x="721" y="536"/>
      <point x="721" y="337" type="curve" smooth="yes"/>
      <point x="721" y="133"/>
      <point x="571" y="-19"/>
      <point x="369" y="-19" type="curve" smooth="yes"/>
      <point x="178" y="-19"/>
      <point x="26" y="138"/>
    </contour>
    <contour>
      <point x="97" y="335" type="curve" smooth="yes"/>
      <point x="97" y="169"/>
      <point x="220" y="33"/>
      <point x="370" y="33" type="curve" smooth="yes"/>
      <point x="528" y="33"/>
      <point x="650" y="166"/>
      <point x="650" y="336" type="curve" smooth="yes"/>
      <point x="650" y="504"/>
      <point x="527" y="639"/>
      <point x="374" y="639" type="curve" smooth="yes"/>
      <point x="220" y="639"/>
      <point x="97" y="504"/>
    </contour>
    <contour>
      <point x="176" y="340" type="curve" smooth="yes"/>
      <point x="176" y="464"/>
      <point x="264" y="544"/>
      <point x="402" y="544" type="curve" smooth="yes"/>
      <point x="439" y="544"/>
      <point x="465" y="539"/>
      <point x="505" y="525" type="curve" smooth="yes"/>
      <point x="521" y="519"/>
      <point x="527" y="514"/>
      <point x="527" y="504" type="curve" smooth="yes"/>
      <point x="527" y="432" type="line"/>
      <point x="508" y="432" type="line"/>
      <point x="490" y="493"/>
      <point x="457" y="521"/>
      <point x="401" y="521" type="curve" smooth="yes"/>
      <point x="322" y="521"/>
      <point x="278" y="458"/>
      <point x="278" y="344" type="curve" smooth="yes"/>
      <point x="278" y="230"/>
      <point x="323" y="165"/>
      <point x="401" y="165" type="curve" smooth="yes"/>
      <point x="457" y="165"/>
      <point x="493" y="191"/>
      <point x="525" y="256" type="curve"/>
      <point x="544" y="256" type="line"/>
      <point x="528" y="182" type="line" smooth="yes"/>
      <point x="527" y="172"/>
      <point x="516" y="164"/>
      <point x="497" y="159" type="curve" smooth="yes"/>
      <point x="497" y="159"/>
      <point x="490" y="158"/>
      <point x="485" y="156" type="curve" smooth="yes"/>
      <point x="448" y="146"/>
      <point x="420" y="142"/>
      <point x="390" y="142" type="curve" smooth="yes"/>
      <point x="259" y="142"/>
      <point x="176" y="218"/>
    </contour>
  </outline>
</glyph>
<glyph name="ordfeminine" format="1">
  <advance width="300"/>
  <unicode hex="00AA"/>
  <outline>
    <contour>
      <point x="-1" y="463" type="curve" smooth="yes"/>
      <point x="-1" y="513"/>
      <point x="38" y="538"/>
      <point x="173" y="573" type="curve"/>
      <point x="173" y="613" type="line" smooth="yes"/>
      <point x="173" y="650"/>
      <point x="159" y="665"/>
      <point x="123" y="665" type="curve" smooth="yes"/>
      <point x="101" y="665"/>
      <point x="82" y="655"/>
      <point x="82" y="643" type="curve" smooth="yes"/>
      <point x="82" y="640"/>
      <point x="85" y="635"/>
      <point x="91" y="629" type="curve" smooth="yes"/>
      <point x="99" y="621"/>
      <point x="102" y="614"/>
      <point x="102" y="608" type="curve" smooth="yes"/>
      <point x="102" y="587"/>
      <point x="82" y="573"/>
      <point x="54" y="573" type="curve" smooth="yes"/>
      <point x="28" y="573"/>
      <point x="12" y="588"/>
      <point x="12" y="613" type="curve" smooth="yes"/>
      <point x="12" y="659"/>
      <point x="63" y="688"/>
      <point x="141" y="688" type="curve" smooth="yes"/>
      <point x="219" y="688"/>
      <point x="268" y="656"/>
      <point x="268" y="606" type="curve" smooth="yes"/>
      <point x="268" y="450" type="line" smooth="yes"/>
      <point x="268" y="439"/>
      <point x="271" y="435"/>
      <point x="279" y="435" type="curve" smooth="yes"/>
      <point x="282" y="435"/>
      <point x="284" y="436"/>
      <point x="285" y="437" type="curve" smooth="yes"/>
      <point x="291" y="443" type="line"/>
      <point x="301" y="431" type="line"/>
      <point x="277" y="406"/>
      <point x="257" y="397"/>
      <point x="228" y="397" type="curve" smooth="yes"/>
      <point x="196" y="397"/>
      <point x="182" y="408"/>
      <point x="175" y="438" type="curve"/>
      <point x="140" y="409"/>
      <point x="111" y="397"/>
      <point x="73" y="397" type="curve" smooth="yes"/>
      <point x="29" y="397"/>
      <point x="-1" y="424"/>
    </contour>
    <contour>
      <point x="97" y="479" type="curve" smooth="yes"/>
      <point x="97" y="456"/>
      <point x="110" y="439"/>
      <point x="129" y="439" type="curve" smooth="yes"/>
      <point x="145" y="439"/>
      <point x="158" y="447"/>
      <point x="172" y="465" type="curve"/>
      <point x="172" y="552" type="line"/>
      <point x="122" y="537"/>
      <point x="97" y="513"/>
    </contour>
  </outline>
</glyph>
<glyph name="guillemotleft" format="1">
  <advance width="500"/>
  <unicode hex="00AB"/>
  <outline>
    <contour>
      <point x="23" y="225" type="line"/>
      <point x="23" y="229" type="line"/>
      <point x="226" y="393" type="line" smooth="yes"/>
      <point x="242" y="406"/>
      <point x="251" y="415"/>
      <point x="262" y="415" type="curve" smooth="yes"/>
      <point x="275" y="415"/>
      <point x="275" y="409"/>
      <point x="275" y="401" type="curve" smooth="yes"/>
      <point x="275" y="372"/>
      <point x="189" y="265"/>
      <point x="159" y="227" type="curve"/>
      <point x="186" y="186"/>
      <point x="277" y="84"/>
      <point x="277" y="54" type="curve" smooth="yes"/>
      <point x="277" y="41"/>
      <point x="273" y="36"/>
      <point x="265" y="36" type="curve" smooth="yes"/>
      <point x="255" y="36"/>
      <point x="242" y="48"/>
      <point x="229" y="59" type="curve" smooth="yes"/>
    </contour>
    <contour>
      <point x="219" y="225" type="line"/>
      <point x="219" y="229" type="line"/>
      <point x="422" y="393" type="line" smooth="yes"/>
      <point x="438" y="406"/>
      <point x="447" y="415"/>
      <point x="458" y="415" type="curve" smooth="yes"/>
      <point x="471" y="415"/>
      <point x="471" y="409"/>
      <point x="471" y="401" type="curve" smooth="yes"/>
      <point x="471" y="372"/>
      <point x="385" y="265"/>
      <point x="355" y="227" type="curve"/>
      <point x="382" y="186"/>
      <point x="473" y="84"/>
      <point x="473" y="54" type="curve" smooth="yes"/>
      <point x="473" y="41"/>
      <point x="469" y="36"/>
      <point x="461" y="36" type="curve" smooth="yes"/>
      <point x="451" y="36"/>
      <point x="438" y="48"/>
      <point x="425" y="59" type="curve" smooth="yes"/>
    </contour>
  </outline>
</glyph>
<glyph name="logicalnot" format="2">
  <advance width="570"/>
  <unicode hex="00AC"/>
  <outline>
    <contour>
      <point x="33" y="311" type="line"/>
      <point x="33" y="399" type="line"/>
      <point x="537" y="399" type="line"/>
      <point x="537" y="108" type="line"/>
      <point x="449" y="108" type="line"/>
      <point x="449" y="311" type="line"/>
    </contour>
  </outline>
</glyph>
<glyph name="macron" format="1">
  <advance width="470"/>
  <unicode hex="00AF"/>
  <outline>
    <contour>
      <point x="70" y="565" type="line"/>
      <point x="70" y="637" type="line"/>
      <point x="400" y="637" type="line"/>
      <point x="400" y="565" type="line"/>
    </contour>
  </outline>
</glyph>
<glyph name="two.superior" format="2">
  <advance width="300"/>
  <unicode hex="00B2"/>
  <outline>
    <contour>
      <point x="1" y="557" type="line"/>
      <point x="17" y="603"/>
      <point x="27" y="622"/>
      <point x="48" y="641" type="curve"/>
      <point x="71" y="664"/>
      <point x="106" y="676"/>
      <point x="146" y="676" type="curve" smooth="yes"/>
      <point x="224" y="676"/>
      <point x="277" y="633"/>
      <point x="277" y="570" type="curve" smooth="yes"/>
      <point x="277" y="521"/>
      <point x="254" y="480"/>
      <point x="193" y="420" type="curve" smooth="yes"/>
      <point x="107" y="335" type="line"/>
      <point x="228" y="335" type="line" smooth="yes"/>
      <point x="255" y="335"/>
      <point x="264" y="340"/>
      <point x="279" y="362" type="curve"/>
      <point x="296" y="355" type="line"/>
      <point x="259" y="270" type="line"/>
      <point x="6" y="270" type="line"/>
      <point x="6" y="293" type="line"/>
      <point x="104" y="400" type="line" smooth="yes"/>
      <point x="154" y="454"/>
      <point x="185" y="507"/>
      <point x="185" y="537" type="curve" smooth="yes"/>
      <point x="185" y="579"/>
      <point x="152" y="613"/>
      <point x="112" y="613" type="curve" smooth="yes"/>
      <point x="75" y="613"/>
      <point x="48" y="591"/>
      <point x="26" y="543" type="curve"/>
    </contour>
  </outline>
</glyph>
<glyph name="three.superior" format="1">
  <advance width="300"/>
  <unicode hex="00B3"/>
  <outline>
    <contour>
      <point x="3" y="322" type="curve" smooth="yes"/>
      <point x="3" y="346"/>
      <point x="29" y="362"/>
      <point x="46" y="362" type="curve" smooth="yes"/>
      <point x="99" y="362"/>
      <point x="115" y="304"/>
      <point x="159" y="304" type="curve" smooth="yes"/>
      <point x="197" y="304"/>
      <point x="222" y="330"/>
      <point x="222" y="369" type="curve" smooth="yes"/>
      <point x="222" y="427"/>
      <point x="188" y="459"/>
      <point x="92" y="490" type="curve"/>
      <point x="92" y="500" type="line"/>
      <point x="153" y="518"/>
      <point x="176" y="539"/>
      <point x="176" y="579" type="curve" smooth="yes"/>
      <point x="176" y="616"/>
      <point x="150" y="640"/>
      <point x="111" y="640" type="curve" smooth="yes"/>
      <point x="80" y="640"/>
      <point x="61" y="627"/>
      <point x="36" y="590" type="curve"/>
      <point x="16" y="597" type="line"/>
      <point x="52" y="658"/>
      <point x="100" y="688"/>
      <point x="165" y="688" type="curve" smooth="yes"/>
      <point x="232" y="688"/>
      <point x="271" y="658"/>
      <point x="271" y="607" type="curve" smooth="yes"/>
      <point x="271" y="571"/>
      <point x="258" y="553"/>
      <point x="217" y="531" type="curve"/>
      <point x="271" y="509"/>
      <point x="297" y="474"/>
      <point x="297" y="424" type="curve" smooth="yes"/>
      <point x="297" y="337"/>
      <point x="211" y="268"/>
      <point x="103" y="268" type="curve" smooth="yes"/>
      <point x="42" y="268"/>
      <point x="3" y="289"/>
    </contour>
  </outline>
</glyph>
<glyph name="mu" format="2">
  <advance width="556"/>
  <unicode hex="00B5"/>
  <outline>
    <contour>
      <point x="33" y="-129" type="curve" smooth="yes"/>
      <point x="33" y="-116"/>
      <point x="36" y="-101"/>
      <point x="44" y="-72" type="curve" smooth="yes"/>
      <point x="60" y="-10"/>
      <point x="66" y="35"/>
      <point x="66" y="88" type="curve" smooth="yes"/>
      <point x="66" y="461" type="line"/>
      <point x="205" y="461" type="line"/>
      <point x="205" y="149" type="line" smooth="yes"/>
      <point x="205" y="105"/>
      <point x="228" y="75"/>
      <point x="262" y="75" type="curve" smooth="yes"/>
      <point x="283" y="75"/>
      <point x="308" y="84"/>
      <point x="336" y="102" type="curve"/>
      <point x="336" y="461" type="line"/>
      <point x="475" y="461" type="line"/>
      <point x="475" y="101" type="line" smooth="yes"/>
      <point x="475" y="75"/>
      <point x="493" y="54"/>
      <point x="515" y="54" type="curve" smooth="yes"/>
      <point x="522" y="54"/>
      <point x="527" y="55"/>
      <point x="536" y="60" type="curve"/>
      <point x="536" y="36" type="line"/>
      <point x="492" y="-3"/>
      <point x="472" y="-13"/>
      <point x="430" y="-13" type="curve" smooth="yes"/>
      <point x="382" y="-13"/>
      <point x="351" y="3"/>
      <point x="329" y="39" type="curve"/>
      <point x="298" y="1"/>
      <point x="271" y="-13"/>
      <point x="230" y="-13" type="curve" smooth="yes"/>
      <point x="190" y="-13"/>
      <point x="160" y="-3"/>
      <point x="128" y="22" type="curve"/>
      <point x="132" y="-11"/>
      <point x="134" y="-18"/>
      <point x="146" y="-59" type="curve"/>
      <point x="157" y="-93"/>
      <point x="161" y="-113"/>
      <point x="161" y="-130" type="curve" smooth="yes"/>
      <point x="161" y="-179"/>
      <point x="138" y="-206"/>
      <point x="98" y="-206" type="curve" smooth="yes"/>
      <point x="57" y="-206"/>
      <point x="33" y="-178"/>
    </contour>
  </outline>
</glyph>
<glyph name="paragraph" format="1">
  <advance width="540"/>
  <unicode hex="00B6"/>
  <outline>
    <contour>
      <point x="0" y="481" type="curve" smooth="yes"/>
      <point x="0" y="615"/>
      <point x="69" y="676"/>
      <point x="219" y="676" type="curve" smooth="yes"/>
      <point x="519" y="676" type="line"/>
      <point x="519" y="651" type="line"/>
      <point x="508" y="650"/>
      <point x="497" y="649"/>
      <point x="493" y="649" type="curve" smooth="yes"/>
      <point x="444" y="643"/>
      <point x="438" y="638"/>
      <point x="438" y="599" type="curve" smooth="yes"/>
      <point x="437" y="589" type="line"/>
      <point x="437" y="551" type="line"/>
      <point x="437" y="-61" type="line"/>
      <point x="437" y="-99" type="line"/>
      <point x="438" y="-109" type="line" smooth="yes"/>
      <point x="439" y="-148"/>
      <point x="443" y="-153"/>
      <point x="491" y="-159" type="curve" smooth="yes"/>
      <point x="494" y="-159"/>
      <point x="504" y="-160"/>
      <point x="514" y="-161" type="curve"/>
      <point x="514" y="-186" type="line"/>
      <point x="343" y="-186" type="line"/>
      <point x="343" y="651" type="line"/>
      <point x="293" y="651" type="line"/>
      <point x="293" y="-186" type="line"/>
      <point x="118" y="-186" type="line"/>
      <point x="118" y="-161" type="line"/>
      <point x="192" y="-154"/>
      <point x="198" y="-150"/>
      <point x="198" y="-109" type="curve"/>
      <point x="199" y="-99" type="line"/>
      <point x="199" y="-61" type="line"/>
      <point x="199" y="265" type="line"/>
      <point x="148" y="267"/>
      <point x="122" y="274"/>
      <point x="92" y="292" type="curve" smooth="yes"/>
      <point x="32" y="327"/>
      <point x="0" y="392"/>
    </contour>
    <contour>
      <point x="90" y="483" type="curve" smooth="yes"/>
      <point x="90" y="378"/>
      <point x="124" y="317"/>
      <point x="199" y="290" type="curve"/>
      <point x="199" y="651" type="line"/>
      <point x="152" y="639"/>
      <point x="132" y="627"/>
      <point x="115" y="598" type="curve" smooth="yes"/>
      <point x="99" y="572"/>
      <point x="90" y="532"/>
    </contour>
  </outline>
</glyph>
<glyph name="cedilla" format="1">
  <advance width="333"/>
  <unicode hex="00B8"/>
  <outline>
    <contour>
      <point x="68" y="-200" type="curve"/>
      <point x="84" y="-163" type="line"/>
      <point x="90" y="-165" type="line" smooth="yes"/>
      <point x="113" y="-174"/>
      <point x="127" y="-177"/>
      <point x="144" y="-177" type="curve" smooth="yes"/>
      <point x="180" y="-177"/>
      <point x="201" y="-162"/>
      <point x="201" y="-136" type="curve" smooth="yes"/>
      <point x="201" y="-114"/>
      <point x="184" y="-100"/>
      <point x="155" y="-100" type="curve" smooth="yes"/>
      <point x="146" y="-100"/>
      <point x="138" y="-101"/>
      <point x="127" y="-104" type="curve"/>
      <point x="116" y="-96" type="line"/>
      <point x="159" y="0" type="line"/>
      <point x="201" y="0" type="line"/>
      <point x="173" y="-64" type="line"/>
      <point x="185" y="-60"/>
      <point x="193" y="-59"/>
      <point x="206" y="-59" type="curve" smooth="yes"/>
      <point x="261" y="-59"/>
      <point x="294" y="-85"/>
      <point x="294" y="-129" type="curve" smooth="yes"/>
      <point x="294" y="-184"/>
      <point x="244" y="-218"/>
      <point x="164" y="-218" type="curve" smooth="yes"/>
      <point x="131" y="-218"/>
      <point x="104" y="-213"/>
    </contour>
  </outline>
</glyph>
<glyph name="onequarter" format="1">
  <advance width="750"/>
  <unicode hex="00BC"/>
  <outline>
    <contour>
      <point x="28" y="602" type="curve"/>
      <point x="28" y="623" type="line"/>
      <point x="192" y="688" type="line"/>
      <point x="203" y="688" type="line"/>
      <point x="203" y="351" type="line" smooth="yes"/>
      <point x="203" y="305"/>
      <point x="214" y="296"/>
      <point x="273" y="295" type="curve"/>
      <point x="273" y="275" type="line"/>
      <point x="30" y="275" type="line"/>
      <point x="30" y="295" type="line"/>
      <point x="94" y="295"/>
      <point x="107" y="305"/>
      <point x="107" y="355" type="curve" smooth="yes"/>
      <point x="107" y="576" type="line" smooth="yes"/>
      <point x="107" y="604"/>
      <point x="100" y="617"/>
      <point x="84" y="617" type="curve" smooth="yes"/>
      <point x="75" y="617"/>
      <point x="59" y="613"/>
      <point x="41" y="607" type="curve" smooth="yes"/>
      <point x="39" y="606"/>
      <point x="34" y="604"/>
    </contour>
    <contour>
      <point x="174" y="-12" type="line"/>
      <point x="615" y="688" type="line"/>
      <point x="671" y="688" type="line"/>
      <point x="232" y="-12" type="line"/>
    </contour>
    <contour>
      <point x="447" y="87" type="line"/>
      <point x="447" y="154" type="line"/>
      <point x="489" y="217"/>
      <point x="522" y="259"/>
      <point x="611" y="367" type="curve" smooth="yes"/>
      <point x="650" y="413" type="line"/>
      <point x="702" y="413" type="line"/>
      <point x="702" y="153" type="line"/>
      <point x="743" y="153" type="line"/>
      <point x="743" y="87" type="line"/>
      <point x="702" y="87" type="line"/>
      <point x="702" y="0" type="line"/>
      <point x="608" y="0" type="line"/>
      <point x="608" y="87" type="line"/>
    </contour>
    <contour>
      <point x="472" y="153" type="line"/>
      <point x="609" y="153" type="line"/>
      <point x="609" y="328" type="line"/>
    </contour>
  </outline>
</glyph>
<glyph name="Atilde" format="1">
  <advance width="722"/>
  <unicode hex="00C3"/>
  <outline>
    <contour>
      <point x="9" y="0" type="line"/>
      <point x="9" y="25" type="line"/>
      <point x="57" y="34"/>
      <point x="69" y="49"/>
      <point x="107" y="142" type="curve" smooth="yes"/>
      <point x="329" y="690" type="line"/>
      <point x="357" y="690" type="line"/>
      <point x="580" y="164" type="line" smooth="yes"/>
      <point x="630" y="46"/>
      <point x="646" y="25"/>
      <point x="685" y="25" type="curve" smooth="yes"/>
      <point x="689" y="25" type="line"/>
      <point x="689" y="0" type="line"/>
      <point x="365" y="0" type="line"/>
      <point x="365" y="25" type="line"/>
      <point x="379" y="27"/>
      <point x="392" y="28"/>
      <point x="397" y="28" type="curve" smooth="yes"/>
      <point x="432" y="30"/>
      <point x="445" y="40"/>
      <point x="445" y="61" type="curve" smooth="yes"/>
      <point x="445" y="83"/>
      <point x="433" y="119"/>
      <point x="399" y="197" type="curve"/>
      <point x="174" y="197" type="line"/>
      <point x="159" y="158" type="line" smooth="yes"/>
      <point x="138" y="104"/>
      <point x="130" y="79"/>
      <point x="130" y="66" type="curve" smooth="yes"/>
      <point x="130" y="40"/>
      <point x="153" y="29"/>
      <point x="212" y="25" type="curve"/>
      <point x="212" y="0" type="line"/>
    </contour>
    <contour>
      <point x="167" y="759" type="line"/>
      <point x="185" y="845"/>
      <point x="221" y="884"/>
      <point x="283" y="884" type="curve" smooth="yes"/>
      <point x="304" y="884"/>
      <point x="328" y="878"/>
      <point x="356" y="865" type="curve" smooth="yes"/>
      <point x="396" y="847" type="line" smooth="yes"/>
      <point x="420" y="836"/>
      <point x="424" y="835"/>
      <point x="435" y="835" type="curve" smooth="yes"/>
      <point x="462" y="835"/>
      <point x="476" y="848"/>
      <point x="489" y="884" type="curve"/>
      <point x="532" y="884" type="line"/>
      <point x="509" y="797"/>
      <point x="472" y="757"/>
      <point x="415" y="757" type="curve" smooth="yes"/>
      <point x="395" y="757"/>
      <point x="370" y="763"/>
      <point x="351" y="771" type="curve" smooth="yes"/>
      <point x="322" y="784" type="line" smooth="yes"/>
      <point x="279" y="803"/>
      <point x="271" y="806"/>
      <point x="258" y="806" type="curve" smooth="yes"/>
      <point x="232" y="806"/>
      <point x="213" y="787"/>
      <point x="209" y="759" type="curve"/>
    </contour>
    <contour>
      <point x="189" y="236" type="line"/>
      <point x="384" y="236" type="line"/>
      <point x="283" y="479" type="line"/>
    </contour>
  </outline>
</glyph>
<glyph name="Igrave" format="1">
  <advance width="386"/>
  <unicode hex="00CC"/>
  <outline>
    <contour>
      <point x="16" y="0" type="line"/>
      <point x="16" y="25" type="line"/>
      <point x="91" y="32"/>
      <point x="109" y="46"/>
      <point x="109" y="96" type="curve" smooth="yes"/>
      <point x="109" y="580" type="line" smooth="yes"/>
      <point x="109" y="631"/>
      <point x="88" y="646"/>
      <point x="16" y="651" type="curve"/>
      <point x="16" y="676" type="line"/>
      <point x="366" y="676" type="line"/>
      <point x="366" y="651" type="line"/>
      <point x="292" y="648"/>
      <point x="271" y="632"/>
      <point x="271" y="580" type="curve" smooth="yes"/>
      <point x="271" y="96" type="line" smooth="yes"/>
      <point x="271" y="44"/>
      <point x="290" y="30"/>
      <point x="366" y="25" type="curve"/>
      <point x="366" y="0" type="line"/>
    </contour>
    <contour>
      <point x="24" y="878" type="curve" smooth="yes"/>
      <point x="24" y="903"/>
      <point x="45" y="923"/>
      <point x="71" y="923" type="curve" smooth="yes"/>
      <point x="90" y="923"/>
      <point x="109" y="913"/>
      <point x="125" y="895" type="curve" smooth="yes"/>
      <point x="262" y="738" type="line"/>
      <point x="206" y="738" type="line"/>
      <point x="64" y="826" type="line" smooth="yes"/>
      <point x="35" y="844"/>
      <point x="24" y="858"/>
    </contour>
  </outline>
</glyph>
<glyph name="Oacute" format="1">
  <advance width="778"/>
  <unicode hex="00D3"/>
  <outline>
    <contour>
      <point x="35" y="335" type="curve" smooth="yes"/>
      <point x="35" y="543"/>
      <point x="184" y="691"/>
      <point x="393" y="691" type="curve" smooth="yes"/>
      <point x="594" y="691"/>
      <point x="743" y="540"/>
      <point x="743" y="336" type="curve" smooth="yes"/>
      <point x="743" y="129"/>
      <point x="596" y="-19"/>
      <point x="389" y="-19" type="curve" smooth="yes"/>
      <point x="182" y="-19"/>
      <point x="35" y="128"/>
    </contour>
    <contour>
      <point x="212" y="326" type="curve" smooth="yes"/>
      <point x="212" y="124"/>
      <point x="274" y="14"/>
      <point x="389" y="14" type="curve" smooth="yes"/>
      <point x="504" y="14"/>
      <point x="566" y="124"/>
      <point x="566" y="329" type="curve" smooth="yes"/>
      <point x="566" y="537"/>
      <point x="502" y="658"/>
      <point x="392" y="658" type="curve" smooth="yes"/>
      <point x="275" y="658"/>
      <point x="212" y="542"/>
    </contour>
    <contour>
      <point x="302" y="738" type="line"/>
      <point x="439" y="895" type="line" smooth="yes"/>
      <point x="456" y="914"/>
      <point x="473" y="923"/>
      <point x="492" y="923" type="curve" smooth="yes"/>
      <point x="521" y="923"/>
      <point x="540" y="905"/>
      <point x="540" y="879" type="curve" smooth="yes"/>
      <point x="540" y="856"/>
      <point x="532" y="846"/>
      <point x="500" y="826" type="curve" smooth="yes"/>
      <point x="358" y="738" type="line"/>
    </contour>
  </outline>
</glyph>
<glyph name="Thorn" format="1">
  <advance width="611"/>
  <unicode hex="00DE"/>
  <outline>
    <contour>
      <point x="16" y="0" type="line"/>
      <point x="16" y="25" type="line"/>
      <point x="27" y="27"/>
      <point x="37" y="29"/>
      <point x="40" y="29" type="curve" smooth="yes"/>
      <point x="87" y="35"/>
      <point x="100" y="55"/>
      <point x="100" y="117" type="curve" smooth="yes"/>
      <point x="100" y="559" type="line" smooth="yes"/>
      <point x="100" y="629"/>
      <point x="86" y="645"/>
      <point x="16" y="651" type="curve"/>
      <point x="16" y="676" type="line"/>
      <point x="350" y="676" type="line"/>
      <point x="350" y="651" type="line"/>
      <point x="270" y="640"/>
      <point x="262" y="631"/>
      <point x="262" y="558" type="curve" smooth="yes"/>
      <point x="262" y="546" type="line"/>
      <point x="328" y="546" type="line" smooth="yes"/>
      <point x="507" y="546"/>
      <point x="600" y="483"/>
      <point x="600" y="363" type="curve" smooth="yes"/>
      <point x="600" y="299"/>
      <point x="569" y="247"/>
      <point x="512" y="212" type="curve" smooth="yes"/>
      <point x="457" y="180"/>
      <point x="421" y="174"/>
      <point x="262" y="173" type="curve"/>
      <point x="262" y="117" type="line" smooth="yes"/>
      <point x="262" y="44"/>
      <point x="271" y="35"/>
      <point x="350" y="25" type="curve"/>
      <point x="350" y="0" type="line"/>
    </contour>
    <contour>
      <point x="262" y="208" type="line"/>
      <point x="333" y="208"/>
      <point x="366" y="215"/>
      <point x="390" y="235" type="curve" smooth="yes"/>
      <point x="416" y="258"/>
      <point x="428" y="296"/>
      <point x="428" y="359" type="curve" smooth="yes"/>
      <point x="428" y="467"/>
      <point x="395" y="511"/>
      <point x="312" y="511" type="curve" smooth="yes"/>
      <point x="279" y="511"/>
      <point x="262" y="499"/>
      <point x="262" y="476" type="curve" smooth="yes"/>
    </contour>
  </outline>
</glyph>
<glyph name="atilde" format="1">
  <advance width="500"/>
  <unicode hex="00E3"/>
  <outline>
    <contour>
      <point x="25" y="92" type="curve" smooth="yes"/>
      <point x="25" y="135"/>
      <point x="46" y="169"/>
      <point x="89" y="199" type="curve" smooth="yes"/>
      <point x="126" y="224"/>
      <point x="175" y="244"/>
      <point x="294" y="280" type="curve"/>
      <point x="294" y="353" type="line" smooth="yes"/>
      <point x="294" y="414"/>
      <point x="268" y="441"/>
      <point x="210" y="441" type="curve" smooth="yes"/>
      <point x="175" y="441"/>
      <point x="147" y="425"/>
      <point x="147" y="404" type="curve" smooth="yes"/>
      <point x="147" y="398"/>
      <point x="150" y="392"/>
      <point x="159" y="382" type="curve" smooth="yes"/>
      <point x="171" y="366"/>
      <point x="177" y="353"/>
      <point x="177" y="339" type="curve" smooth="yes"/>
      <point x="177" y="305"/>
      <point x="149" y="281"/>
      <point x="109" y="281" type="curve" smooth="yes"/>
      <point x="68" y="281"/>
      <point x="44" y="306"/>
      <point x="44" y="347" type="curve" smooth="yes"/>
      <point x="44" y="422"/>
      <point x="120" y="473"/>
      <point x="233" y="473" type="curve" smooth="yes"/>
      <point x="355" y="473"/>
      <point x="431" y="420"/>
      <point x="431" y="336" type="curve" smooth="yes"/>
      <point x="431" y="75" type="line" smooth="yes"/>
      <point x="431" y="59"/>
      <point x="438" y="50"/>
      <point x="452" y="50" type="curve" smooth="yes"/>
      <point x="457" y="50"/>
      <point x="460" y="51"/>
      <point x="463" y="54" type="curve" smooth="yes"/>
      <point x="473" y="64" type="line"/>
      <point x="488" y="43" type="line"/>
      <point x="450" y="2"/>
      <point x="419" y="-14"/>
      <point x="376" y="-14" type="curve" smooth="yes"/>
      <point x="327" y="-14"/>
      <point x="305" y="5"/>
      <point x="294" y="56" type="curve"/>
      <point x="239" y="6"/>
      <point x="193" y="-14"/>
      <point x="136" y="-14" type="curve" smooth="yes"/>
      <point x="72" y="-14"/>
      <point x="25" y="31"/>
    </contour>
    <contour>
      <point x="68" y="549" type="line"/>
      <point x="86" y="635"/>
      <point x="122" y="674"/>
      <point x="184" y="674" type="curve" smooth="yes"/>
      <point x="205" y="674"/>
      <point x="229" y="668"/>
      <point x="257" y="655" type="curve" smooth="yes"/>
      <point x="297" y="637" type="line" smooth="yes"/>
      <point x="321" y="626"/>
      <point x="325" y="625"/>
      <point x="336" y="625" type="curve" smooth="yes"/>
      <point x="363" y="625"/>
      <point x="377" y="638"/>
      <point x="390" y="674" type="curve"/>
      <point x="433" y="674" type="line"/>
      <point x="410" y="587"/>
      <point x="373" y="547"/>
      <point x="316" y="547" type="curve" smooth="yes"/>
      <point x="296" y="547"/>
      <point x="271" y="553"/>
      <point x="252" y="561" type="curve" smooth="yes"/>
      <point x="223" y="574" type="line" smooth="yes"/>
      <point x="180" y="593"/>
      <point x="172" y="596"/>
      <point x="159" y="596" type="curve" smooth="yes"/>
      <point x="133" y="596"/>
      <point x="114" y="577"/>
      <point x="110" y="549" type="curve"/>
    </contour>
    <contour>
      <point x="171" y="124" type="curve" smooth="yes"/>
      <point x="171" y="84"/>
      <point x="192" y="57"/>
      <point x="222" y="57" type="curve" smooth="yes"/>
      <point x="246" y="57"/>
      <point x="266" y="69"/>
      <point x="293" y="100" type="curve"/>
      <point x="293" y="245" type="line"/>
      <point x="213" y="224"/>
      <point x="171" y="182"/>
    </contour>
  </outline>
</glyph>
<glyph name="igrave" format="1">
  <advance width="278"/>
  <unicode hex="00EC"/>
  <outline>
    <contour>
      <point x="-26" y="668" type="curve" smooth="yes"/>
      <point x="-26" y="693"/>
      <point x="-5" y="713"/>
      <point x="21" y="713" type="curve" smooth="yes"/>
      <point x="40" y="713"/>
      <point x="59" y="703"/>
      <point x="75" y="685" type="curve" smooth="yes"/>
      <point x="212" y="528" type="line"/>
      <point x="156" y="528" type="line"/>
      <point x="14" y="616" type="line" smooth="yes"/>
      <point x="-15" y="634"/>
      <point x="-26" y="648"/>
    </contour>
    <contour>
      <point x="16" y="0" type="line"/>
      <point x="16" y="24" type="line"/>
      <point x="62" y="35"/>
      <point x="69" y="43"/>
      <point x="69" y="84" type="curve" smooth="yes"/>
      <point x="69" y="378" type="line" smooth="yes"/>
      <point x="69" y="419"/>
      <point x="60" y="428"/>
      <point x="16" y="437" type="curve"/>
      <point x="16" y="461" type="line"/>
      <point x="208" y="461" type="line"/>
      <point x="208" y="81" type="line" smooth="yes"/>
      <point x="208" y="43"/>
      <point x="220" y="29"/>
      <point x="255" y="24" type="curve"/>
      <point x="255" y="0" type="line"/>
    </contour>
  </outline>
</glyph>
<glyph name="eth" format="2">
  <advance width="500"/>
  <unicode hex="00F0"/>
  <outline>
    <contour>
      <point x="25" y="229" type="curve" smooth="yes"/>
      <point x="25" y="368"/>
      <point x="122" y="473"/>
      <point x="249" y="473" type="curve" smooth="yes"/>
      <point x="291" y="473"/>
      <point x="314" y="462"/>
      <point x="340" y="432" type="curve"/>
      <point x="342" y="435" type="line"/>
      <point x="323" y="492"/>
      <point x="297" y="533"/>
      <point x="256" y="574" type="curve"/>
      <point x="146" y="518" type="line"/>
      <point x="98" y="549" type="line"/>
      <point x="215" y="608" type="line"/>
      <point x="172" y="639"/>
      <point x="132" y="657"/>
      <point x="82" y="666" type="curve"/>
      <point x="128" y="691" type="line"/>
      <point x="189" y="685"/>
      <point x="238" y="671"/>
      <point x="288" y="645" type="curve"/>
      <point x="378" y="691" type="line"/>
      <point x="427" y="661" type="line"/>
      <point x="335" y="614" type="line"/>
      <point x="440.774" y="527.3"/>
      <point x="476" y="427.95"/>
      <point x="476" y="298.187" type="curve" smooth="yes"/>
      <point x="476" y="99"/>
      <point x="393" y="-14"/>
      <point x="253.85" y="-14" type="curve" smooth="yes"/>
      <point x="121" y="-14"/>
      <point x="25" y="89"/>
    </contour>
    <contour>
      <point x="172" y="222" type="curve" smooth="yes"/>
      <point x="172" y="74.2983"/>
      <point x="193.502" y="17"/>
      <point x="253.164" y="17" type="curve" smooth="yes"/>
      <point x="310" y="17"/>
      <point x="329" y="69"/>
      <point x="329" y="225.961" type="curve" smooth="yes"/>
      <point x="329" y="387"/>
      <point x="309" y="442"/>
      <point x="249.729" y="442" type="curve" smooth="yes"/>
      <point x="191" y="442"/>
      <point x="172" y="388"/>
    </contour>
  </outline>
</glyph>
<glyph name="aogonek" format="1">
  <advance width="500"/>
  <unicode hex="0105"/>
  <outline>
    <contour>
      <point x="25" y="92" type="curve" smooth="yes"/>
      <point x="25" y="135"/>
      <point x="46" y="169"/>
      <point x="89" y="199" type="curve" smooth="yes"/>
      <point x="126" y="224"/>
      <point x="175" y="244"/>
      <point x="294" y="280" type="curve"/>
      <point x="294" y="353" type="line" smooth="yes"/>
      <point x="294" y="414"/>
      <point x="268" y="441"/>
      <point x="210" y="441" type="curve" smooth="yes"/>
      <point x="175" y="441"/>
      <point x="147" y="425"/>
      <point x="147" y="404" type="curve" smooth="yes"/>
      <point x="147" y="398"/>
      <point x="150" y="392"/>
      <point x="159" y="382" type="curve" smooth="yes"/>
      <point x="171" y="366"/>
      <point x="177" y="353"/>
      <point x="177" y="339" type="curve" smooth="yes"/>
      <point x="177" y="305"/>
      <point x="149" y="281"/>
      <point x="109" y="281" type="curve" smooth="yes"/>
      <point x="68" y="281"/>
      <point x="44" y="306"/>
      <point x="44" y="347" type="curve" smooth="yes"/>
      <point x="44" y="422"/>
      <point x="120" y="473"/>
      <point x="233" y="473" type="curve" smooth="yes"/>
      <point x="355" y="473"/>
      <point x="431" y="420"/>
      <point x="431" y="336" type="curve" smooth="yes"/>
      <point x="431" y="75" type="line" smooth="yes"/>
      <point x="431" y="59"/>
      <point x="438" y="50"/>
      <point x="452" y="50" type="curve" smooth="yes"/>
      <point x="457" y="50"/>
      <point x="460" y="51"/>
      <point x="463" y="54" type="curve" smooth="yes"/>
      <point x="473" y="64" type="line"/>
      <point x="488" y="43" type="line"/>
      <point x="452" y="4"/>
      <point x="447" y="2"/>
      <point x="389" y="-16" type="curve" smooth="yes"/>
      <point x="369" y="-23"/>
      <point x="354" y="-41"/>
      <point x="354" y="-60" type="curve" smooth="yes"/>
      <point x="354" y="-84"/>
      <point x="383" y="-104"/>
      <point x="419" y="-104" type="curve" smooth="yes"/>
      <point x="433" y="-104"/>
      <point x="444" y="-101"/>
      <point x="464" y="-91" type="curve" smooth="yes"/>
      <point x="472" y="-87"/>
      <point x="473" y="-86"/>
      <point x="478" y="-84" type="curve"/>
      <point x="500" y="-98" type="line"/>
      <point x="475" y="-144"/>
      <point x="427" y="-173"/>
      <point x="377" y="-173" type="curve" smooth="yes"/>
      <point x="316" y="-173"/>
      <point x="271" y="-139"/>
      <point x="271" y="-92" type="curve" smooth="yes"/>
      <point x="271" y="-64"/>
      <point x="281" y="-43"/>
      <point x="317" y="5" type="curve"/>
      <point x="305" y="17"/>
      <point x="300" y="29"/>
      <point x="294" y="56" type="curve"/>
      <point x="239" y="6"/>
      <point x="193" y="-14"/>
      <point x="136" y="-14" type="curve" smooth="yes"/>
      <point x="72" y="-14"/>
      <point x="25" y="31"/>
    </contour>
    <contour>
      <point x="171" y="124" type="curve" smooth="yes"/>
      <point x="171" y="84"/>
      <point x="192" y="57"/>
      <point x="222" y="57" type="curve" smooth="yes"/>
      <point x="246" y="57"/>
      <point x="266" y="69"/>
      <point x="293" y="100" type="curve"/>
      <point x="293" y="245" type="line"/>
      <point x="213" y="224"/>
      <point x="171" y="182"/>
    </contour>
  </outline>
</glyph>
<glyph name="Ccircumflex" format="1">
  <advance width="722"/>
  <unicode hex="0108"/>
  <outline>
    <contour>
      <point x="49" y="332" type="curve" smooth="yes"/>
      <point x="49" y="537"/>
      <point x="196" y="691"/>
      <point x="403" y="691" type="curve" smooth="yes"/>
      <point x="480" y="691"/>
      <point x="559" y="642"/>
      <point x="596" y="642" type="curve" smooth="yes"/>
      <point x="622" y="642"/>
      <point x="635" y="666"/>
      <point x="642" y="688" type="curve"/>
      <point x="669" y="688" type="line"/>
      <point x="669" y="454" type="line"/>
      <point x="644" y="454" type="line"/>
      <point x="606" y="547"/>
      <point x="522" y="658"/>
      <point x="411" y="658" type="curve" smooth="yes"/>
      <point x="246" y="658"/>
      <point x="226" y="460"/>
      <point x="226" y="336" type="curve" smooth="yes"/>
      <point x="226" y="207"/>
      <point x="255" y="29"/>
      <point x="421" y="29" type="curve" smooth="yes"/>
      <point x="520" y="29"/>
      <point x="593" y="81"/>
      <point x="657" y="152" type="curve"/>
      <point x="687" y="127" type="line"/>
      <point x="610" y="39"/>
      <point x="530" y="-19"/>
      <point x="408" y="-19" type="curve" smooth="yes"/>
      <point x="199" y="-19"/>
      <point x="49" y="121"/>
    </contour>
    <contour>
      <point x="234" y="738" type="line"/>
      <point x="356" y="914" type="line"/>
      <point x="448" y="914" type="line"/>
      <point x="571" y="738" type="line"/>
      <point x="514" y="738" type="line"/>
      <point x="402" y="836" type="line"/>
      <point x="290" y="738" type="line"/>
    </contour>
  </outline>
</glyph>
<glyph name="dcaron" format="1">
  <advance width="658"/>
  <unicode hex="010F"/>
  <outline>
    <contour>
      <point x="25" y="221" type="curve" smooth="yes"/>
      <point x="25" y="366"/>
      <point x="107" y="473"/>
      <point x="217" y="473" type="curve" smooth="yes"/>
      <point x="263" y="473"/>
      <point x="293" y="457"/>
      <point x="336" y="411" type="curve"/>
      <point x="336" y="594" type="line" smooth="yes"/>
      <point x="336" y="640"/>
      <point x="327" y="647"/>
      <point x="260" y="652" type="curve"/>
      <point x="260" y="676" type="line"/>
      <point x="475" y="676" type="line"/>
      <point x="475" y="101" type="line" smooth="yes"/>
      <point x="475" y="59"/>
      <point x="488" y="46"/>
      <point x="534" y="43" type="curve"/>
      <point x="534" y="20" type="line"/>
      <point x="472" y="12" type="line" smooth="yes"/>
      <point x="410" y="5"/>
      <point x="385" y="0"/>
      <point x="339" y="-13" type="curve"/>
      <point x="339" y="52" type="line"/>
      <point x="292" y="2"/>
      <point x="259" y="-14"/>
      <point x="206" y="-14" type="curve" smooth="yes"/>
      <point x="101" y="-14"/>
      <point x="25" y="85"/>
    </contour>
    <contour>
      <point x="173" y="229" type="curve" smooth="yes"/>
      <point x="173" y="102"/>
      <point x="198" y="42"/>
      <point x="251" y="42" type="curve" smooth="yes"/>
      <point x="273" y="42"/>
      <point x="294" y="53"/>
      <point x="314" y="76" type="curve" smooth="yes"/>
      <point x="326" y="89"/>
      <point x="336" y="106"/>
      <point x="336" y="112" type="curve" smooth="yes"/>
      <point x="336" y="355" type="line"/>
      <point x="322" y="393"/>
      <point x="291" y="417"/>
      <point x="258" y="417" type="curve" smooth="yes"/>
      <point x="200" y="417"/>
      <point x="173" y="358"/>
    </contour>
    <contour>
      <point x="500" y="617" type="curve" smooth="yes"/>
      <point x="500" y="662"/>
      <point x="530" y="691"/>
      <point x="575" y="691" type="curve" smooth="yes"/>
      <point x="629" y="691"/>
      <point x="665" y="649"/>
      <point x="665" y="586" type="curve" smooth="yes"/>
      <point x="665" y="508"/>
      <point x="618" y="449"/>
      <point x="516" y="406" type="curve"/>
      <point x="506" y="425" type="line"/>
      <point x="572" y="454"/>
      <point x="604" y="494"/>
      <point x="604" y="529" type="curve" smooth="yes"/>
      <point x="604" y="539"/>
      <point x="596" y="548"/>
      <point x="587" y="548" type="curve" smooth="yes"/>
      <point x="586" y="548"/>
      <point x="571" y="546"/>
      <point x="567" y="546" type="curve" smooth="yes"/>
      <point x="526" y="546"/>
      <point x="500" y="574"/>
    </contour>
  </outline>
</glyph>
<glyph name="Edotaccent" format="1">
  <advance width="667"/>
  <unicode hex="0116"/>
  <outline>
    <contour>
      <point x="16" y="0" type="line"/>
      <point x="16" y="25" type="line"/>
      <point x="90" y="33"/>
      <point x="104" y="44"/>
      <point x="104" y="96" type="curve" smooth="yes"/>
      <point x="104" y="580" type="line" smooth="yes"/>
      <point x="104" y="631"/>
      <point x="85" y="647"/>
      <point x="16" y="651" type="curve"/>
      <point x="16" y="676" type="line"/>
      <point x="593" y="676" type="line"/>
      <point x="593" y="475" type="line"/>
      <point x="568" y="475" type="line"/>
      <point x="543" y="608"/>
      <point x="494" y="642"/>
      <point x="331" y="642" type="curve" smooth="yes"/>
      <point x="279" y="642"/>
      <point x="266" y="633"/>
      <point x="266" y="595" type="curve" smooth="yes"/>
      <point x="266" y="363" type="line"/>
      <point x="267.449" y="362.987"/>
      <point x="268.885" y="362.98"/>
      <point x="270.309" y="362.98" type="curve" smooth="yes"/>
      <point x="375.042" y="362.98"/>
      <point x="413.201" y="399.529"/>
      <point x="428" y="512" type="curve"/>
      <point x="454" y="512" type="line"/>
      <point x="454" y="174" type="line"/>
      <point x="428" y="174" type="line"/>
      <point x="416" y="290"/>
      <point x="375" y="329"/>
      <point x="266" y="329" type="curve"/>
      <point x="266" y="87" type="line" smooth="yes"/>
      <point x="266" y="44"/>
      <point x="285" y="31"/>
      <point x="349" y="31" type="curve" smooth="yes"/>
      <point x="425" y="31"/>
      <point x="480" y="47"/>
      <point x="526" y="84" type="curve" smooth="yes"/>
      <point x="562" y="113"/>
      <point x="582" y="141"/>
      <point x="613" y="208" type="curve"/>
      <point x="641" y="208" type="line"/>
      <point x="601" y="0" type="line"/>
    </contour>
    <contour>
      <point x="265" y="813" type="curve" smooth="yes"/>
      <point x="265" y="846"/>
      <point x="295" y="876"/>
      <point x="328" y="876" type="curve" smooth="yes"/>
      <point x="364" y="876"/>
      <point x="394" y="846"/>
      <point x="394" y="810" type="curve" smooth="yes"/>
      <point x="394" y="775"/>
      <point x="365" y="747"/>
      <point x="328" y="747" type="curve" smooth="yes"/>
      <point x="293" y="747"/>
      <point x="265" y="776"/>
    </contour>
  </outline>
</glyph>
<glyph name="hbar" format="2">
  <advance width="556"/>
  <unicode hex="0127"/>
  <outline>
    <component base="h"/>
    <contour>
      <point x="17" y="534" type="line"/>
      <point x="17" y="581" type="line"/>
      <point x="324" y="581" type="line"/>
      <point x="324" y="534" type="line"/>
    </contour>
  </outline>
</glyph>
<glyph name="Itilde" format="1">
  <advance width="386"/>
  <unicode hex="0128"/>
  <outline>
    <contour>
      <point x="8" y="759" type="line"/>
      <point x="26" y="845"/>
      <point x="62" y="884"/>
      <point x="124" y="884" type="curve" smooth="yes"/>
      <point x="145" y="884"/>
      <point x="169" y="878"/>
      <point x="197" y="865" type="curve" smooth="yes"/>
      <point x="237" y="847" type="line" smooth="yes"/>
      <point x="261" y="836"/>
      <point x="265" y="835"/>
      <point x="276" y="835" type="curve" smooth="yes"/>
      <point x="303" y="835"/>
      <point x="317" y="848"/>
      <point x="330" y="884" type="curve"/>
      <point x="373" y="884" type="line"/>
      <point x="350" y="797"/>
      <point x="313" y="757"/>
      <point x="256" y="757" type="curve" smooth="yes"/>
      <point x="236" y="757"/>
      <point x="211" y="763"/>
      <point x="192" y="771" type="curve" smooth="yes"/>
      <point x="163" y="784" type="line" smooth="yes"/>
      <point x="120" y="803"/>
      <point x="112" y="806"/>
      <point x="99" y="806" type="curve" smooth="yes"/>
      <point x="73" y="806"/>
      <point x="54" y="787"/>
      <point x="50" y="759" type="curve"/>
    </contour>
    <contour>
      <point x="16" y="0" type="line"/>
      <point x="16" y="25" type="line"/>
      <point x="91" y="32"/>
      <point x="109" y="46"/>
      <point x="109" y="96" type="curve" smooth="yes"/>
      <point x="109" y="580" type="line" smooth="yes"/>
      <point x="109" y="631"/>
      <point x="88" y="646"/>
      <point x="16" y="651" type="curve"/>
      <point x="16" y="676" type="line"/>
      <point x="366" y="676" type="line"/>
      <point x="366" y="651" type="line"/>
      <point x="292" y="648"/>
      <point x="271" y="632"/>
      <point x="271" y="580" type="curve" smooth="yes"/>
      <point x="271" y="96" type="line" smooth="yes"/>
      <point x="271" y="44"/>
      <point x="290" y="30"/>
      <point x="366" y="25" type="curve"/>
      <point x="366" y="0" type="line"/>
    </contour>
  </outline>
</glyph>
<glyph name="itilde" format="1">
  <advance width="278"/>
  <unicode hex="0129"/>
  <outline>
    <contour>
      <point x="-50" y="549" type="line"/>
      <point x="-32" y="635"/>
      <point x="4" y="674"/>
      <point x="66" y="674" type="curve" smooth="yes"/>
      <point x="87" y="674"/>
      <point x="111" y="668"/>
      <point x="139" y="655" type="curve" smooth="yes"/>
      <point x="179" y="637" type="line" smooth="yes"/>
      <point x="203" y="626"/>
      <point x="207" y="625"/>
      <point x="218" y="625" type="curve" smooth="yes"/>
      <point x="245" y="625"/>
      <point x="259" y="638"/>
      <point x="272" y="674" type="curve"/>
      <point x="315" y="674" type="line"/>
      <point x="292" y="587"/>
      <point x="255" y="547"/>
      <point x="198" y="547" type="curve" smooth="yes"/>
      <point x="178" y="547"/>
      <point x="153" y="553"/>
      <point x="134" y="561" type="curve" smooth="yes"/>
      <point x="105" y="574" type="line" smooth="yes"/>
      <point x="62" y="593"/>
      <point x="54" y="596"/>
      <point x="41" y="596" type="curve" smooth="yes"/>
      <point x="15" y="596"/>
      <point x="-4" y="577"/>
      <point x="-8" y="549" type="curve"/>
    </contour>
    <contour>
      <point x="16" y="0" type="line"/>
      <point x="16" y="24" type="line"/>
      <point x="62" y="35"/>
      <point x="69" y="43"/>
      <point x="69" y="84" type="curve" smooth="yes"/>
      <point x="69" y="378" type="line" smooth="yes"/>
      <point x="69" y="419"/>
      <point x="60" y="428"/>
      <point x="16" y="437" type="curve"/>
      <point x="16" y="461" type="line"/>
      <point x="208" y="461" type="line"/>
      <point x="208" y="81" type="line" smooth="yes"/>
      <point x="208" y="43"/>
      <point x="220" y="29"/>
      <point x="255" y="24" type="curve"/>
      <point x="255" y="0" type="line"/>
    </contour>
  </outline>
</glyph>
<glyph name="imacron" format="1">
  <advance width="278"/>
  <unicode hex="012B"/>
  <outline>
    <contour>
      <point x="-33" y="565" type="line"/>
      <point x="-33" y="637" type="line"/>
      <point x="297" y="637" type="line"/>
      <point x="297" y="565" type="line"/>
    </contour>
    <contour>
      <point x="16" y="0" type="line"/>
      <point x="16" y="24" type="line"/>
      <point x="62" y="35"/>
      <point x="69" y="43"/>
      <point x="69" y="84" type="curve" smooth="yes"/>
      <point x="69" y="378" type="line" smooth="yes"/>
      <point x="69" y="419"/>
      <point x="60" y="428"/>
      <point x="16" y="437" type="curve"/>
      <point x="16" y="461" type="line"/>
      <point x="208" y="461" type="line"/>
      <point x="208" y="81" type="line" smooth="yes"/>
      <point x="208" y="43"/>
      <point x="220" y="29"/>
      <point x="255" y="24" type="curve"/>
      <point x="255" y="0" type="line"/>
    </contour>
  </outline>
</glyph>
<glyph name="IJ" format="1">
  <advance width="882"/>
  <unicode hex="0132"/>
  <outline>
    <contour>
      <point x="16" y="0" type="line"/>
      <point x="16" y="25" type="line"/>
      <point x="91" y="32"/>
      <point x="109" y="46"/>
      <point x="109" y="96" type="curve" smooth="yes"/>
      <point x="109" y="580" type="line" smooth="yes"/>
      <point x="109" y="631"/>
      <point x="88" y="646"/>
      <point x="16" y="651" type="curve"/>
      <point x="16" y="676" type="line"/>
      <point x="366" y="676" type="line"/>
      <point x="366" y="651" type="line"/>
      <point x="292" y="648"/>
      <point x="271" y="632"/>
      <point x="271" y="580" type="curve" smooth="yes"/>
      <point x="271" y="96" type="line" smooth="yes"/>
      <point x="271" y="44"/>
      <point x="290" y="30"/>
      <point x="366" y="25" type="curve"/>
      <point x="366" y="0" type="line"/>
    </contour>
    <contour>
      <point x="393" y="36" type="curve" smooth="yes"/>
      <point x="393" y="74"/>
      <point x="426" y="108"/>
      <point x="463" y="108" type="curve" smooth="yes"/>
      <point x="502" y="108"/>
      <point x="536" y="73"/>
      <point x="536" y="33" type="curve" smooth="yes"/>
      <point x="536" y="18"/>
      <point x="533" y="10"/>
      <point x="521" y="-5" type="curve" smooth="yes"/>
      <point x="512" y="-17"/>
      <point x="509" y="-23"/>
      <point x="509" y="-31" type="curve" smooth="yes"/>
      <point x="509" y="-50"/>
      <point x="527" y="-63"/>
      <point x="554" y="-63" type="curve" smooth="yes"/>
      <point x="599" y="-63"/>
      <point x="618" y="-38"/>
      <point x="618" y="24" type="curve" smooth="yes"/>
      <point x="618" y="580" type="line" smooth="yes"/>
      <point x="618" y="634"/>
      <point x="598" y="648"/>
      <point x="517" y="651" type="curve"/>
      <point x="517" y="676" type="line"/>
      <point x="869" y="676" type="line"/>
      <point x="869" y="651" type="line"/>
      <point x="794" y="646"/>
      <point x="780" y="631"/>
      <point x="780" y="559" type="curve" smooth="yes"/>
      <point x="780" y="123" type="line" smooth="yes"/>
      <point x="780" y="-20"/>
      <point x="706" y="-96"/>
      <point x="566" y="-96" type="curve" smooth="yes"/>
      <point x="526" y="-96"/>
      <point x="486" y="-87"/>
      <point x="460" y="-73" type="curve" smooth="yes"/>
      <point x="421" y="-50"/>
      <point x="393" y="-5"/>
    </contour>
  </outline>
</glyph>
<glyph name="kcedilla" format="1">
  <advance width="556"/>
  <unicode hex="0137"/>
  <outline>
    <contour>
      <point x="22" y="0" type="line"/>
      <point x="22" y="24" type="line"/>
      <point x="55" y="27"/>
      <point x="70" y="45"/>
      <point x="70" y="84" type="curve" smooth="yes"/>
      <point x="70" y="594" type="line" smooth="yes"/>
      <point x="70" y="632"/>
      <point x="56" y="649"/>
      <point x="22" y="652" type="curve"/>
      <point x="22" y="676" type="line"/>
      <point x="209" y="676" type="line"/>
      <point x="209" y="245" type="line"/>
      <point x="337" y="373" type="line" smooth="yes"/>
      <point x="348" y="384"/>
      <point x="358" y="402"/>
      <point x="358" y="411" type="curve" smooth="yes"/>
      <point x="358" y="424"/>
      <point x="347" y="431"/>
      <point x="323" y="434" type="curve" smooth="yes"/>
      <point x="320" y="435"/>
      <point x="310" y="436"/>
      <point x="299" y="438" type="curve"/>
      <point x="299" y="461" type="line"/>
      <point x="513" y="461" type="line"/>
      <point x="513" y="438" type="line"/>
      <point x="450" y="430"/>
      <point x="424" y="412"/>
      <point x="324" y="307" type="curve"/>
      <point x="518" y="39" type="line" smooth="yes"/>
      <point x="527" y="27"/>
      <point x="532" y="24"/>
      <point x="543" y="24" type="curve"/>
      <point x="543" y="0" type="line"/>
      <point x="309" y="0" type="line"/>
      <point x="309" y="24" type="line"/>
      <point x="337" y="25"/>
      <point x="351" y="31"/>
      <point x="351" y="43" type="curve" smooth="yes"/>
      <point x="351" y="51"/>
      <point x="344" y="63"/>
      <point x="327" y="88" type="curve" smooth="yes"/>
      <point x="232" y="222" type="line"/>
      <point x="209" y="198" type="line"/>
      <point x="209" y="84" type="line" smooth="yes"/>
      <point x="209" y="37"/>
      <point x="214" y="31"/>
      <point x="261" y="24" type="curve"/>
      <point x="261" y="0" type="line"/>
    </contour>
    <contour>
      <point x="222" y="-97" type="curve" smooth="yes"/>
      <point x="222" y="-68"/>
      <point x="250" y="-45"/>
      <point x="282" y="-45" type="curve" smooth="yes"/>
      <point x="320" y="-45"/>
      <point x="352" y="-77"/>
      <point x="352" y="-113" type="curve" smooth="yes"/>
      <point x="352" y="-172"/>
      <point x="315" y="-218"/>
      <point x="244" y="-234" type="curve"/>
      <point x="236" y="-219" type="line"/>
      <point x="280" y="-207"/>
      <point x="305" y="-178"/>
      <point x="305" y="-154" type="curve" smooth="yes"/>
      <point x="305" y="-146"/>
      <point x="299" y="-142"/>
      <point x="292" y="-142" type="curve" smooth="yes"/>
      <point x="291" y="-142"/>
      <point x="278" y="-145"/>
      <point x="275" y="-145" type="curve" smooth="yes"/>
      <point x="245" y="-145"/>
      <point x="222" y="-127"/>
    </contour>
  </outline>
</glyph>
<glyph name="Lacute" format="1">
  <advance width="664"/>
  <unicode hex="0139"/>
  <outline>
    <contour>
      <point x="16" y="0" type="line"/>
      <point x="16" y="25" type="line"/>
      <point x="89" y="34"/>
      <point x="102" y="45"/>
      <point x="102" y="96" type="curve" smooth="yes"/>
      <point x="102" y="580" type="line" smooth="yes"/>
      <point x="102" y="631"/>
      <point x="84" y="647"/>
      <point x="16" y="651" type="curve"/>
      <point x="16" y="676" type="line"/>
      <point x="365" y="676" type="line"/>
      <point x="365" y="651" type="line"/>
      <point x="278" y="647"/>
      <point x="264" y="634"/>
      <point x="264" y="559" type="curve" smooth="yes"/>
      <point x="264" y="87" type="line" smooth="yes"/>
      <point x="264" y="44"/>
      <point x="283" y="31"/>
      <point x="344" y="31" type="curve" smooth="yes"/>
      <point x="421" y="31"/>
      <point x="477" y="49"/>
      <point x="518" y="86" type="curve" smooth="yes"/>
      <point x="553" y="118"/>
      <point x="573" y="149"/>
      <point x="606" y="227" type="curve"/>
      <point x="635" y="227" type="line"/>
      <point x="594" y="0" type="line"/>
    </contour>
    <contour>
      <point x="158" y="738" type="line"/>
      <point x="295" y="895" type="line" smooth="yes"/>
      <point x="312" y="914"/>
      <point x="329" y="923"/>
      <point x="348" y="923" type="curve" smooth="yes"/>
      <point x="377" y="923"/>
      <point x="396" y="905"/>
      <point x="396" y="879" type="curve" smooth="yes"/>
      <point x="396" y="856"/>
      <point x="388" y="846"/>
      <point x="356" y="826" type="curve" smooth="yes"/>
      <point x="214" y="738" type="line"/>
    </contour>
  </outline>
</glyph>
<glyph name="lcedilla" format="1">
  <advance width="278"/>
  <unicode hex="013C"/>
  <outline>
    <contour>
      <point x="16" y="0" type="line"/>
      <point x="16" y="24" type="line"/>
      <point x="50" y="27"/>
      <point x="67" y="47"/>
      <point x="67" y="84" type="curve" smooth="yes"/>
      <point x="67" y="594" type="line" smooth="yes"/>
      <point x="67" y="631"/>
      <point x="51" y="649"/>
      <point x="16" y="652" type="curve"/>
      <point x="16" y="676" type="line"/>
      <point x="206" y="676" type="line"/>
      <point x="206" y="84" type="line" smooth="yes"/>
      <point x="206" y="44"/>
      <point x="222" y="25"/>
      <point x="255" y="24" type="curve"/>
      <point x="255" y="0" type="line"/>
    </contour>
    <contour>
      <point x="66" y="-97" type="curve" smooth="yes"/>
      <point x="66" y="-68"/>
      <point x="94" y="-45"/>
      <point x="126" y="-45" type="curve" smooth="yes"/>
      <point x="164" y="-45"/>
      <point x="196" y="-77"/>
      <point x="196" y="-113" type="curve" smooth="yes"/>
      <point x="196" y="-172"/>
      <point x="159" y="-218"/>
      <point x="88" y="-234" type="curve"/>
      <point x="80" y="-219" type="line"/>
      <point x="124" y="-207"/>
      <point x="149" y="-178"/>
      <point x="149" y="-154" type="curve" smooth="yes"/>
      <point x="149" y="-146"/>
      <point x="143" y="-142"/>
      <point x="136" y="-142" type="curve" smooth="yes"/>
      <point x="135" y="-142"/>
      <point x="122" y="-145"/>
      <point x="119" y="-145" type="curve" smooth="yes"/>
      <point x="89" y="-145"/>
      <point x="66" y="-127"/>
    </contour>
  </outline>
</glyph>
<glyph name="Ldot" format="1">
  <advance width="667"/>
  <unicode hex="013F"/>
  <outline>
    <contour>
      <point x="16" y="0" type="line"/>
      <point x="16" y="25" type="line"/>
      <point x="89" y="34"/>
      <point x="102" y="45"/>
      <point x="102" y="96" type="curve" smooth="yes"/>
      <point x="102" y="580" type="line" smooth="yes"/>
      <point x="102" y="631"/>
      <point x="84" y="647"/>
      <point x="16" y="651" type="curve"/>
      <point x="16" y="676" type="line"/>
      <point x="365" y="676" type="line"/>
      <point x="365" y="651" type="line"/>
      <point x="278" y="647"/>
      <point x="264" y="634"/>
      <point x="264" y="559" type="curve" smooth="yes"/>
      <point x="264" y="87" type="line" smooth="yes"/>
      <point x="264" y="44"/>
      <point x="283" y="31"/>
      <point x="344" y="31" type="curve" smooth="yes"/>
      <point x="421" y="31"/>
      <point x="477" y="49"/>
      <point x="518" y="86" type="curve" smooth="yes"/>
      <point x="553" y="118"/>
      <point x="573" y="149"/>
      <point x="606" y="227" type="curve"/>
      <point x="635" y="227" type="line"/>
      <point x="594" y="0" type="line"/>
    </contour>
    <contour>
      <point x="347" y="341" type="curve" smooth="yes"/>
      <point x="347" y="386"/>
      <point x="385" y="425"/>
      <point x="431" y="425" type="curve" smooth="yes"/>
      <point x="478" y="425"/>
      <point x="516" y="386"/>
      <point x="516" y="340" type="curve" smooth="yes"/>
      <point x="516" y="293"/>
      <point x="478" y="256"/>
      <point x="430" y="256" type="curve" smooth="yes"/>
      <point x="383" y="256"/>
      <point x="347" y="293"/>
    </contour>
  </outline>
</glyph>
<glyph name="napostrophe" format="1">
  <advance width="644"/>
  <unicode hex="0149"/>
  <outline>
    <contour>
      <point x="10" y="739" type="curve" smooth="yes"/>
      <point x="10" y="784"/>
      <point x="40" y="813"/>
      <point x="85" y="813" type="curve" smooth="yes"/>
      <point x="139" y="813"/>
      <point x="175" y="771"/>
      <point x="175" y="708" type="curve" smooth="yes"/>
      <point x="175" y="630"/>
      <point x="128" y="571"/>
      <point x="26" y="528" type="curve"/>
      <point x="16" y="547" type="line"/>
      <point x="82" y="576"/>
      <point x="114" y="616"/>
      <point x="114" y="651" type="curve" smooth="yes"/>
      <point x="114" y="661"/>
      <point x="106" y="670"/>
      <point x="97" y="670" type="curve" smooth="yes"/>
      <point x="96" y="670"/>
      <point x="81" y="668"/>
      <point x="77" y="668" type="curve" smooth="yes"/>
      <point x="36" y="668"/>
      <point x="10" y="696"/>
    </contour>
    <contour>
      <point x="109" y="0" type="line"/>
      <point x="109" y="24" type="line"/>
      <point x="154" y="33"/>
      <point x="162" y="42"/>
      <point x="162" y="84" type="curve" smooth="yes"/>
      <point x="162" y="378" type="line" smooth="yes"/>
      <point x="162" y="420"/>
      <point x="153" y="430"/>
      <point x="109" y="437" type="curve"/>
      <point x="109" y="461" type="line"/>
      <point x="300" y="461" type="line"/>
      <point x="300" y="386" type="line"/>
      <point x="337" y="445"/>
      <point x="383" y="473"/>
      <point x="443" y="473" type="curve" smooth="yes"/>
      <point x="525" y="473"/>
      <point x="578" y="418"/>
      <point x="578" y="332" type="curve" smooth="yes"/>
      <point x="578" y="81" type="line" smooth="yes"/>
      <point x="578" y="39"/>
      <point x="588" y="27"/>
      <point x="627" y="24" type="curve"/>
      <point x="627" y="0" type="line"/>
      <point x="392" y="0" type="line"/>
      <point x="392" y="24" type="line"/>
      <point x="426" y="28"/>
      <point x="439" y="44"/>
      <point x="439" y="81" type="curve" smooth="yes"/>
      <point x="439" y="323" type="line" smooth="yes"/>
      <point x="439" y="379"/>
      <point x="422" y="406"/>
      <point x="387" y="406" type="curve" smooth="yes"/>
      <point x="364" y="406"/>
      <point x="340" y="394"/>
      <point x="318" y="371" type="curve" smooth="yes"/>
      <point x="308" y="362"/>
      <point x="301" y="352"/>
      <point x="301" y="348" type="curve" smooth="yes"/>
      <point x="301" y="81" type="line" smooth="yes"/>
      <point x="301" y="44"/>
      <point x="313" y="29"/>
      <point x="350" y="24" type="curve"/>
      <point x="350" y="0" type="line"/>
    </contour>
  </outline>
</glyph>
<glyph name="eng" format="2">
  <advance width="556"/>
  <unicode hex="014B"/>
  <outline>
    <contour>
      <point x="21" y="0" type="line"/>
      <point x="21" y="24" type="line"/>
      <point x="66" y="33"/>
      <point x="74" y="42"/>
      <point x="74" y="84" type="curve" smooth="yes"/>
      <point x="74" y="378" type="line" smooth="yes"/>
      <point x="74" y="420"/>
      <point x="65" y="430"/>
      <point x="21" y="437" type="curve"/>
      <point x="21" y="461" type="line"/>
      <point x="213" y="461" type="line"/>
      <point x="213" y="386" type="line"/>
      <point x="249" y="445"/>
      <point x="295" y="473"/>
      <point x="355" y="473" type="curve" smooth="yes"/>
      <point x="437" y="473"/>
      <point x="490" y="418"/>
      <point x="490" y="332" type="curve" smooth="yes"/>
      <point x="490" y="2" type="line" smooth="yes"/>
      <point x="490" y="-115.196"/>
      <point x="445.895" y="-203"/>
      <point x="318.235" y="-203" type="curve" smooth="yes"/>
      <point x="231" y="-203"/>
      <point x="173" y="-162"/>
      <point x="173" y="-104.939" type="curve" smooth="yes"/>
      <point x="173" y="-67"/>
      <point x="198.641" y="-42"/>
      <point x="233.169" y="-42" type="curve" smooth="yes"/>
      <point x="267" y="-42"/>
      <point x="294" y="-66"/>
      <point x="294" y="-94.8829" type="curve" smooth="yes"/>
      <point x="294" y="-106"/>
      <point x="290" y="-117"/>
      <point x="280" y="-133" type="curve" smooth="yes"/>
      <point x="274" y="-143"/>
      <point x="271" y="-150"/>
      <point x="271" y="-155" type="curve" smooth="yes"/>
      <point x="271" y="-165"/>
      <point x="284" y="-172"/>
      <point x="303" y="-172" type="curve" smooth="yes"/>
      <point x="336" y="-172"/>
      <point x="351" y="-149"/>
      <point x="351" y="-96" type="curve" smooth="yes"/>
      <point x="351" y="323" type="line" smooth="yes"/>
      <point x="351" y="379"/>
      <point x="334" y="406"/>
      <point x="297.517" y="406" type="curve" smooth="yes"/>
      <point x="264.024" y="406"/>
      <point x="230.284" y="383.245"/>
      <point x="213" y="348" type="curve"/>
      <point x="213" y="81" type="line" smooth="yes"/>
      <point x="213" y="44"/>
      <point x="225" y="29"/>
      <point x="262" y="24" type="curve"/>
      <point x="262" y="0" type="line"/>
    </contour>
  </outline>
</glyph>
<glyph name="OE" format="1">
  <advance width="1000"/>
  <unicode hex="0152"/>
  <outline>
    <contour>
      <point x="22" y="334" type="curve" smooth="yes"/>
      <point x="22" y="542"/>
      <point x="161" y="684"/>
      <point x="364" y="684" type="curve" smooth="yes"/>
      <point x="377" y="684"/>
      <point x="430" y="681"/>
      <point x="523" y="676" type="curve"/>
      <point x="528" y="676" type="line"/>
      <point x="940" y="676" type="line"/>
      <point x="940" y="475" type="line"/>
      <point x="914" y="475" type="line"/>
      <point x="900" y="554"/>
      <point x="884" y="586"/>
      <point x="843" y="612" type="curve" smooth="yes"/>
      <point x="814" y="630"/>
      <point x="753" y="641"/>
      <point x="682" y="641" type="curve" smooth="yes"/>
      <point x="640" y="641"/>
      <point x="627" y="635"/>
      <point x="627" y="615" type="curve" smooth="yes"/>
      <point x="627" y="366" type="line"/>
      <point x="734" y="369"/>
      <point x="752" y="387"/>
      <point x="778" y="514" type="curve"/>
      <point x="801" y="514" type="line"/>
      <point x="801" y="176" type="line"/>
      <point x="778" y="176" type="line"/>
      <point x="763" y="295"/>
      <point x="733" y="327"/>
      <point x="627" y="333" type="curve"/>
      <point x="627" y="83" type="line" smooth="yes"/>
      <point x="627" y="44"/>
      <point x="641" y="35"/>
      <point x="700" y="35" type="curve" smooth="yes"/>
      <point x="772" y="35"/>
      <point x="822" y="50"/>
      <point x="864" y="83" type="curve" smooth="yes"/>
      <point x="900" y="112"/>
      <point x="921" y="142"/>
      <point x="954" y="211" type="curve"/>
      <point x="981" y="211" type="line"/>
      <point x="939" y="0" type="line"/>
      <point x="509" y="0" type="line" smooth="yes"/>
      <point x="460" y="0"/>
      <point x="425" y="-1"/>
      <point x="402" y="-3" type="curve" smooth="yes"/>
      <point x="387" y="-4"/>
      <point x="372" y="-5"/>
      <point x="358" y="-5" type="curve" smooth="yes"/>
      <point x="269" y="-5"/>
      <point x="192" y="19"/>
      <point x="137" y="64" type="curve" smooth="yes"/>
      <point x="64" y="124"/>
      <point x="22" y="222"/>
    </contour>
    <contour>
      <point x="192" y="320" type="curve" smooth="yes"/>
      <point x="192" y="229"/>
      <point x="208" y="138"/>
      <point x="232" y="96" type="curve" smooth="yes"/>
      <point x="259" y="48"/>
      <point x="299" y="27"/>
      <point x="366" y="27" type="curve" smooth="yes"/>
      <point x="410" y="27"/>
      <point x="434" y="36"/>
      <point x="451" y="58" type="curve" smooth="yes"/>
      <point x="468" y="79"/>
      <point x="472" y="112"/>
      <point x="472" y="212" type="curve" smooth="yes"/>
      <point x="472" y="503" type="line" smooth="yes"/>
      <point x="472" y="575"/>
      <point x="468" y="601"/>
      <point x="454" y="622" type="curve" smooth="yes"/>
      <point x="440" y="642"/>
      <point x="413" y="652"/>
      <point x="377" y="652" type="curve" smooth="yes"/>
      <point x="255" y="652"/>
      <point x="192" y="540"/>
    </contour>
  </outline>
</glyph>
<glyph name="oe" format="1">
  <advance width="722"/>
  <unicode hex="0153"/>
  <outline>
    <contour>
      <point x="22" y="229" type="curve" smooth="yes"/>
      <point x="22" y="371"/>
      <point x="116" y="473"/>
      <point x="248" y="473" type="curve" smooth="yes"/>
      <point x="302" y="473"/>
      <point x="338" y="459"/>
      <point x="373" y="424" type="curve"/>
      <point x="422" y="462"/>
      <point x="452" y="473"/>
      <point x="502" y="473" type="curve" smooth="yes"/>
      <point x="576" y="473"/>
      <point x="632" y="442"/>
      <point x="663" y="383" type="curve" smooth="yes"/>
      <point x="682" y="347"/>
      <point x="689" y="314"/>
      <point x="693" y="245" type="curve"/>
      <point x="444" y="245" type="line"/>
      <point x="444" y="225" type="line" smooth="yes"/>
      <point x="444" y="116"/>
      <point x="481" y="58"/>
      <point x="558" y="58" type="curve" smooth="yes"/>
      <point x="604" y="58"/>
      <point x="631" y="73"/>
      <point x="676" y="125" type="curve"/>
      <point x="696" y="109" type="line"/>
      <point x="631" y="16"/>
      <point x="582" y="-14"/>
      <point x="498" y="-14" type="curve" smooth="yes"/>
      <point x="446" y="-14"/>
      <point x="413" y="0"/>
      <point x="383" y="34" type="curve"/>
      <point x="343" y="0"/>
      <point x="302" y="-14"/>
      <point x="245" y="-14" type="curve" smooth="yes"/>
      <point x="113" y="-14"/>
      <point x="22" y="85"/>
    </contour>
    <contour>
      <point x="167" y="248" type="curve" smooth="yes"/>
      <point x="167" y="74"/>
      <point x="186" y="16"/>
      <point x="242" y="16" type="curve" smooth="yes"/>
      <point x="288" y="16"/>
      <point x="308" y="57"/>
      <point x="308" y="149" type="curve" smooth="yes"/>
      <point x="308" y="311" type="line" smooth="yes"/>
      <point x="308" y="407"/>
      <point x="289" y="444"/>
      <point x="239" y="444" type="curve" smooth="yes"/>
      <point x="184" y="444"/>
      <point x="167" y="398"/>
    </contour>
    <contour>
      <point x="444" y="282" type="line"/>
      <point x="571" y="282" type="line"/>
      <point x="571" y="338" type="line" smooth="yes"/>
      <point x="568" y="413"/>
      <point x="549" y="444"/>
      <point x="509" y="444" type="curve" smooth="yes"/>
      <point x="467" y="444"/>
      <point x="444" y="407"/>
      <point x="444" y="336" type="curve" smooth="yes"/>
    </contour>
  </outline>
</glyph>
<glyph name="rcedilla" format="1">
  <advance width="444"/>
  <unicode hex="0157"/>
  <outline>
    <contour>
      <point x="29" y="0" type="line"/>
      <point x="29" y="24" type="line"/>
      <point x="73" y="32"/>
      <point x="83" y="43"/>
      <point x="83" y="84" type="curve" smooth="yes"/>
      <point x="83" y="378" type="line" smooth="yes"/>
      <point x="83" y="418"/>
      <point x="72" y="431"/>
      <point x="29" y="437" type="curve"/>
      <point x="29" y="461" type="line"/>
      <point x="218" y="461" type="line"/>
      <point x="218" y="379" type="line"/>
      <point x="265" y="446"/>
      <point x="303" y="473"/>
      <point x="353" y="473" type="curve" smooth="yes"/>
      <point x="400" y="473"/>
      <point x="434" y="440"/>
      <point x="434" y="395" type="curve" smooth="yes"/>
      <point x="434" y="356"/>
      <point x="408" y="328"/>
      <point x="371" y="328" type="curve" smooth="yes"/>
      <point x="345" y="328"/>
      <point x="330" y="337"/>
      <point x="311" y="364" type="curve" smooth="yes"/>
      <point x="300" y="380"/>
      <point x="291" y="387"/>
      <point x="283" y="387" type="curve" smooth="yes"/>
      <point x="250" y="387"/>
      <point x="222" y="344"/>
      <point x="222" y="292" type="curve" smooth="yes"/>
      <point x="222" y="103" type="line" smooth="yes"/>
      <point x="222" y="41"/>
      <point x="234" y="28"/>
      <point x="295" y="24" type="curve"/>
      <point x="295" y="0" type="line"/>
    </contour>
    <contour>
      <point x="92" y="-97" type="curve" smooth="yes"/>
      <point x="92" y="-68"/>
      <point x="120" y="-45"/>
      <point x="152" y="-45" type="curve" smooth="yes"/>
      <point x="190" y="-45"/>
      <point x="222" y="-77"/>
      <point x="222" y="-113" type="curve" smooth="yes"/>
      <point x="222" y="-172"/>
      <point x="185" y="-218"/>
      <point x="114" y="-234" type="curve"/>
      <point x="106" y="-219" type="line"/>
      <point x="150" y="-207"/>
      <point x="175" y="-178"/>
      <point x="175" y="-154" type="curve" smooth="yes"/>
      <point x="175" y="-146"/>
      <point x="169" y="-142"/>
      <point x="162" y="-142" type="curve" smooth="yes"/>
      <point x="161" y="-142"/>
      <point x="148" y="-145"/>
      <point x="145" y="-145" type="curve" smooth="yes"/>
      <point x="115" y="-145"/>
      <point x="92" y="-127"/>
    </contour>
  </outline>
</glyph>
<glyph name="scedilla" format="1">
  <advance width="389"/>
  <unicode hex="015F"/>
  <outline>
    <contour>
      <point x="25" y="-13" type="line"/>
      <point x="25" y="152" type="line"/>
      <point x="53" y="152" type="line"/>
      <point x="74" y="65"/>
      <point x="120" y="20"/>
      <point x="190" y="20" type="curve" smooth="yes"/>
      <point x="235" y="20"/>
      <point x="265" y="46"/>
      <point x="265" y="85" type="curve" smooth="yes"/>
      <point x="265" y="117"/>
      <point x="237" y="142"/>
      <point x="169" y="172" type="curve" smooth="yes"/>
      <point x="68" y="215"/>
      <point x="27" y="261"/>
      <point x="27" y="327" type="curve" smooth="yes"/>
      <point x="27" y="411"/>
      <point x="93" y="473"/>
      <point x="184" y="473" type="curve" smooth="yes"/>
      <point x="206" y="473"/>
      <point x="229" y="469"/>
      <point x="262" y="458" type="curve" smooth="yes"/>
      <point x="278" y="453"/>
      <point x="288" y="451"/>
      <point x="294" y="451" type="curve" smooth="yes"/>
      <point x="306" y="451"/>
      <point x="312" y="456"/>
      <point x="318" y="471" type="curve"/>
      <point x="340" y="471" type="line"/>
      <point x="340" y="326" type="line"/>
      <point x="315" y="326" type="line"/>
      <point x="300" y="370"/>
      <point x="289" y="388"/>
      <point x="268" y="408" type="curve" smooth="yes"/>
      <point x="246" y="429"/>
      <point x="219" y="440"/>
      <point x="193" y="440" type="curve" smooth="yes"/>
      <point x="155" y="440"/>
      <point x="127" y="415"/>
      <point x="127" y="382" type="curve" smooth="yes"/>
      <point x="127" y="348"/>
      <point x="155" y="323"/>
      <point x="223" y="294" type="curve" smooth="yes"/>
      <point x="322" y="253"/>
      <point x="361" y="209"/>
      <point x="361" y="138" type="curve" smooth="yes"/>
      <point x="361" y="50"/>
      <point x="303" y="-9"/>
      <point x="213" y="-14" type="curve"/>
      <point x="191" y="-64" type="line"/>
      <point x="203" y="-60"/>
      <point x="211" y="-59"/>
      <point x="224" y="-59" type="curve" smooth="yes"/>
      <point x="279" y="-59"/>
      <point x="312" y="-85"/>
      <point x="312" y="-129" type="curve" smooth="yes"/>
      <point x="312" y="-184"/>
      <point x="262" y="-218"/>
      <point x="182" y="-218" type="curve" smooth="yes"/>
      <point x="149" y="-218"/>
      <point x="122" y="-213"/>
      <point x="86" y="-200" type="curve"/>
      <point x="102" y="-163" type="line"/>
      <point x="108" y="-165" type="line" smooth="yes"/>
      <point x="131" y="-174"/>
      <point x="145" y="-177"/>
      <point x="162" y="-177" type="curve" smooth="yes"/>
      <point x="198" y="-177"/>
      <point x="219" y="-162"/>
      <point x="219" y="-136" type="curve" smooth="yes"/>
      <point x="219" y="-114"/>
      <point x="202" y="-100"/>
      <point x="173" y="-100" type="curve" smooth="yes"/>
      <point x="164" y="-100"/>
      <point x="156" y="-101"/>
      <point x="145" y="-104" type="curve"/>
      <point x="134" y="-96" type="line"/>
      <point x="172" y="-11" type="line"/>
      <point x="134" y="-3"/>
      <point x="116" y="2"/>
      <point x="99" y="9" type="curve" smooth="yes"/>
      <point x="89" y="13"/>
      <point x="81" y="15"/>
      <point x="76" y="15" type="curve" smooth="yes"/>
      <point x="67" y="15"/>
      <point x="61" y="8"/>
      <point x="50" y="-13" type="curve"/>
    </contour>
  </outline>
</glyph>
<glyph name="uni0162" format="1">
  <advance width="667"/>
  <unicode hex="0162"/>
  <outline>
    <contour>
      <point x="31" y="475" type="line"/>
      <point x="34" y="676" type="line"/>
      <point x="634" y="676" type="line"/>
      <point x="636" y="475" type="line"/>
      <point x="607" y="475" type="line"/>
      <point x="590" y="594"/>
      <point x="538" y="640"/>
      <point x="415" y="644" type="curve"/>
      <point x="415" y="117" type="line" smooth="yes"/>
      <point x="415" y="41"/>
      <point x="426" y="31"/>
      <point x="513" y="25" type="curve"/>
      <point x="513" y="0" type="line"/>
      <point x="357" y="0" type="line"/>
      <point x="329" y="-64" type="line"/>
      <point x="341" y="-60"/>
      <point x="349" y="-59"/>
      <point x="362" y="-59" type="curve" smooth="yes"/>
      <point x="417" y="-59"/>
      <point x="450" y="-85"/>
      <point x="450" y="-129" type="curve" smooth="yes"/>
      <point x="450" y="-184"/>
      <point x="400" y="-218"/>
      <point x="320" y="-218" type="curve" smooth="yes"/>
      <point x="287" y="-218"/>
      <point x="260" y="-213"/>
      <point x="224" y="-200" type="curve"/>
      <point x="240" y="-163" type="line"/>
      <point x="246" y="-165" type="line" smooth="yes"/>
      <point x="269" y="-174"/>
      <point x="283" y="-177"/>
      <point x="300" y="-177" type="curve" smooth="yes"/>
      <point x="336" y="-177"/>
      <point x="357" y="-162"/>
      <point x="357" y="-136" type="curve" smooth="yes"/>
      <point x="357" y="-114"/>
      <point x="340" y="-100"/>
      <point x="311" y="-100" type="curve" smooth="yes"/>
      <point x="302" y="-100"/>
      <point x="294" y="-101"/>
      <point x="283" y="-104" type="curve"/>
      <point x="272" y="-96" type="line"/>
      <point x="315" y="0" type="line"/>
      <point x="156" y="0" type="line"/>
      <point x="156" y="25" type="line"/>
      <point x="242" y="32"/>
      <point x="253" y="43"/>
      <point x="253" y="117" type="curve" smooth="yes"/>
      <point x="253" y="644" type="line"/>
      <point x="129" y="640"/>
      <point x="77" y="594"/>
      <point x="60" y="475" type="curve"/>
    </contour>
  </outline>
</glyph>
<glyph name="Tbar" format="1">
  <advance width="667"/>
  <unicode hex="0166"/>
  <outline>
    <contour>
      <point x="31" y="475" type="line"/>
      <point x="34" y="676" type="line"/>
      <point x="634" y="676" type="line"/>
      <point x="636" y="475" type="line"/>
      <point x="607" y="475" type="line"/>
      <point x="592" y="600"/>
      <point x="532" y="638"/>
      <point x="415" y="644" type="curve"/>
      <point x="415" y="360" type="line"/>
      <point x="502" y="360" type="line"/>
      <point x="502" y="313" type="line"/>
      <point x="415" y="313" type="line"/>
      <point x="415" y="117" type="line" smooth="yes"/>
      <point x="415" y="34"/>
      <point x="438" y="30"/>
      <point x="513" y="25" type="curve"/>
      <point x="513" y="0" type="line"/>
      <point x="156" y="0" type="line"/>
      <point x="156" y="25" type="line"/>
      <point x="230" y="31"/>
      <point x="253" y="35"/>
      <point x="253" y="117" type="curve" smooth="yes"/>
      <point x="253" y="313" type="line"/>
      <point x="166" y="313" type="line"/>
      <point x="166" y="360" type="line"/>
      <point x="253" y="360" type="line"/>
      <point x="253" y="644" type="line"/>
      <point x="136" y="638"/>
      <point x="76" y="601"/>
      <point x="60" y="475" type="curve"/>
    </contour>
  </outline>
</glyph>
<glyph name="tbar" format="1">
  <advance width="333"/>
  <unicode hex="0167"/>
  <outline>
    <contour>
      <point x="20" y="299" type="line"/>
      <point x="20" y="346" type="line"/>
      <point x="72" y="346" type="line"/>
      <point x="72" y="417" type="line"/>
      <point x="20" y="417" type="line"/>
      <point x="20" y="444" type="line"/>
      <point x="85" y="499"/>
      <point x="137" y="561"/>
      <point x="186" y="630" type="curve"/>
      <point x="211" y="630" type="line"/>
      <point x="211" y="461" type="line"/>
      <point x="305" y="461" type="line"/>
      <point x="305" y="417" type="line"/>
      <point x="211" y="417" type="line"/>
      <point x="211" y="346" type="line"/>
      <point x="305" y="346" type="line"/>
      <point x="305" y="299" type="line"/>
      <point x="211" y="299" type="line"/>
      <point x="211" y="116" type="line" smooth="yes"/>
      <point x="211" y="89"/>
      <point x="215" y="59"/>
      <point x="250" y="59" type="curve" smooth="yes"/>
      <point x="279" y="59"/>
      <point x="296" y="89"/>
      <point x="307" y="111" type="curve"/>
      <point x="332" y="100" type="line"/>
      <point x="301" y="37"/>
      <point x="262" y="-12"/>
      <point x="185" y="-12" type="curve" smooth="yes"/>
      <point x="117" y="-12"/>
      <point x="72" y="24"/>
      <point x="72" y="93" type="curve" smooth="yes"/>
      <point x="72" y="299" type="line"/>
    </contour>
  </outline>
</glyph>
<glyph name="Uring" format="1">
  <advance width="722"/>
  <unicode hex="016E"/>
  <outline>
    <contour>
      <point x="16" y="651" type="curve"/>
      <point x="16" y="676" type="line"/>
      <point x="354" y="676" type="line"/>
      <point x="354" y="651" type="line"/>
      <point x="306" y="649"/>
      <point x="290" y="645"/>
      <point x="278" y="635" type="curve" smooth="yes"/>
      <point x="263" y="621"/>
      <point x="257" y="599"/>
      <point x="257" y="559" type="curve" smooth="yes"/>
      <point x="257" y="225" type="line" smooth="yes"/>
      <point x="257" y="89"/>
      <point x="302" y="30"/>
      <point x="404" y="30" type="curve" smooth="yes"/>
      <point x="523" y="30"/>
      <point x="579" y="99"/>
      <point x="579" y="247" type="curve" smooth="yes"/>
      <point x="579" y="552" type="line" smooth="yes"/>
      <point x="579" y="625"/>
      <point x="559" y="645"/>
      <point x="481" y="651" type="curve"/>
      <point x="481" y="676" type="line"/>
      <point x="701" y="676" type="line"/>
      <point x="701" y="651" type="line"/>
      <point x="637" y="641"/>
      <point x="623" y="625"/>
      <point x="623" y="566" type="curve" smooth="yes"/>
      <point x="623" y="247" type="line" smooth="yes"/>
      <point x="623" y="154"/>
      <point x="597" y="78"/>
      <point x="552" y="40" type="curve" smooth="yes"/>
      <point x="509" y="3"/>
      <point x="439" y="-19"/>
      <point x="365" y="-19" type="curve" smooth="yes"/>
      <point x="292" y="-19"/>
      <point x="228" y="-1"/>
      <point x="180" y="34" type="curve" smooth="yes"/>
      <point x="119" y="78"/>
      <point x="98" y="127"/>
      <point x="98" y="225" type="curve" smooth="yes"/>
      <point x="98" y="559" type="line" smooth="yes"/>
      <point x="98" y="631"/>
      <point x="86" y="644"/>
    </contour>
    <contour>
      <point x="282" y="855" type="curve" smooth="yes"/>
      <point x="282" y="911"/>
      <point x="331" y="960"/>
      <point x="389" y="960" type="curve" smooth="yes"/>
      <point x="447" y="960"/>
      <point x="495" y="911"/>
      <point x="495" y="853" type="curve" smooth="yes"/>
      <point x="495" y="794"/>
      <point x="447" y="747"/>
      <point x="388" y="747" type="curve" smooth="yes"/>
      <point x="329" y="747"/>
      <point x="282" y="795"/>
    </contour>
    <contour>
      <point x="330" y="853" type="curve" smooth="yes"/>
      <point x="330" y="821"/>
      <point x="356" y="795"/>
      <point x="387" y="795" type="curve" smooth="yes"/>
      <point x="420" y="795"/>
      <point x="447" y="821"/>
      <point x="447" y="852" type="curve" smooth="yes"/>
      <point x="447" y="884"/>
      <point x="420" y="912"/>
      <point x="388" y="912" type="curve" smooth="yes"/>
      <point x="357" y="912"/>
      <point x="330" y="884"/>
    </contour>
  </outline>
</glyph>
<glyph name="uhungarumlaut" format="1">
  <advance width="556"/>
  <unicode hex="0171"/>
  <outline>
    <contour>
      <point x="16" y="437" type="curve"/>
      <point x="16" y="461" type="line"/>
      <point x="204" y="461" type="line"/>
      <point x="204" y="122" type="line" smooth="yes"/>
      <point x="204" y="71"/>
      <point x="219" y="51"/>
      <point x="260" y="51" type="curve" smooth="yes"/>
      <point x="288" y="51"/>
      <point x="309" y="62"/>
      <point x="342" y="95" type="curve"/>
      <point x="342" y="378" type="line" smooth="yes"/>
      <point x="342" y="421"/>
      <point x="330" y="433"/>
      <point x="280" y="437" type="curve"/>
      <point x="280" y="461" type="line"/>
      <point x="481" y="461" type="line"/>
      <point x="481" y="101" type="line" smooth="yes"/>
      <point x="481" y="58"/>
      <point x="493" y="45"/>
      <point x="537" y="43" type="curve"/>
      <point x="537" y="20" type="line"/>
      <point x="475" y="13" type="line" smooth="yes"/>
      <point x="410" y="6"/>
      <point x="386" y="2"/>
      <point x="343" y="-13" type="curve"/>
      <point x="343" y="52" type="line"/>
      <point x="285" y="2"/>
      <point x="250" y="-14"/>
      <point x="198" y="-14" type="curve" smooth="yes"/>
      <point x="115" y="-14"/>
      <point x="65" y="38"/>
      <point x="65" y="126" type="curve" smooth="yes"/>
      <point x="65" y="378" type="line" smooth="yes"/>
      <point x="65" y="420"/>
      <point x="57" y="429"/>
    </contour>
    <contour>
      <point x="95" y="528" type="line"/>
      <point x="232" y="685" type="line" smooth="yes"/>
      <point x="249" y="704"/>
      <point x="266" y="713"/>
      <point x="285" y="713" type="curve" smooth="yes"/>
      <point x="314" y="713"/>
      <point x="333" y="695"/>
      <point x="333" y="669" type="curve" smooth="yes"/>
      <point x="333" y="646"/>
      <point x="325" y="636"/>
      <point x="293" y="616" type="curve" smooth="yes"/>
      <point x="151" y="528" type="line"/>
    </contour>
    <contour>
      <point x="295" y="528" type="line"/>
      <point x="432" y="685" type="line" smooth="yes"/>
      <point x="449" y="704"/>
      <point x="466" y="713"/>
      <point x="485" y="713" type="curve" smooth="yes"/>
      <point x="514" y="713"/>
      <point x="533" y="695"/>
      <point x="533" y="669" type="curve" smooth="yes"/>
      <point x="533" y="646"/>
      <point x="525" y="636"/>
      <point x="493" y="616" type="curve" smooth="yes"/>
      <point x="351" y="528" type="line"/>
    </contour>
  </outline>
</glyph>
<glyph name="wcircumflex" format="1">
  <advance width="722"/>
  <unicode hex="0175"/>
  <outline>
    <contour>
      <point x="23" y="437" type="curve"/>
      <point x="23" y="461" type="line"/>
      <point x="245" y="461" type="line"/>
      <point x="245" y="437" type="line"/>
      <point x="217" y="433"/>
      <point x="207" y="425"/>
      <point x="207" y="409" type="curve" smooth="yes"/>
      <point x="207" y="396"/>
      <point x="218" y="364"/>
      <point x="246" y="294" type="curve" smooth="yes"/>
      <point x="251" y="280"/>
      <point x="258" y="261"/>
      <point x="267" y="240" type="curve" smooth="yes"/>
      <point x="291" y="176" type="line"/>
      <point x="359" y="347" type="line"/>
      <point x="353" y="366" type="line" smooth="yes"/>
      <point x="334" y="432"/>
      <point x="333" y="433"/>
      <point x="294" y="437" type="curve"/>
      <point x="294" y="461" type="line"/>
      <point x="528" y="461" type="line"/>
      <point x="528" y="437" type="line"/>
      <point x="490" y="434"/>
      <point x="480" y="429"/>
      <point x="480" y="413" type="curve" smooth="yes"/>
      <point x="480" y="404"/>
      <point x="487" y="376"/>
      <point x="507" y="307" type="curve" smooth="yes"/>
      <point x="528" y="233"/>
      <point x="531" y="221"/>
      <point x="541" y="180" type="curve"/>
      <point x="553" y="214"/>
      <point x="561" y="235"/>
      <point x="576" y="274" type="curve" smooth="yes"/>
      <point x="607" y="353"/>
      <point x="620" y="390"/>
      <point x="620" y="402" type="curve" smooth="yes"/>
      <point x="620" y="425"/>
      <point x="609" y="433"/>
      <point x="572" y="437" type="curve"/>
      <point x="572" y="461" type="line"/>
      <point x="707" y="461" type="line"/>
      <point x="707" y="437" type="line"/>
      <point x="681" y="432"/>
      <point x="673" y="424"/>
      <point x="657" y="387" type="curve" smooth="yes"/>
      <point x="502" y="-14" type="line"/>
      <point x="479" y="-14" type="line"/>
      <point x="377" y="296" type="line"/>
      <point x="252" y="-14" type="line"/>
      <point x="228" y="-14" type="line"/>
      <point x="80" y="360" type="line" smooth="yes"/>
      <point x="53" y="426"/>
      <point x="49" y="432"/>
    </contour>
    <contour>
      <point x="226" y="528" type="line"/>
      <point x="348" y="704" type="line"/>
      <point x="440" y="704" type="line"/>
      <point x="563" y="528" type="line"/>
      <point x="506" y="528" type="line"/>
      <point x="394" y="626" type="line"/>
      <point x="282" y="528" type="line"/>
    </contour>
  </outline>
</glyph>
<glyph name="Ycircumflex" format="1">
  <advance width="722"/>
  <unicode hex="0176"/>
  <outline>
    <contour>
      <point x="15" y="651" type="curve"/>
      <point x="15" y="676" type="line"/>
      <point x="350" y="676" type="line"/>
      <point x="350" y="651" type="line"/>
      <point x="325" y="650" type="line" smooth="yes"/>
      <point x="284" y="650"/>
      <point x="269" y="642"/>
      <point x="269" y="620" type="curve" smooth="yes"/>
      <point x="269" y="609"/>
      <point x="273" y="598"/>
      <point x="287" y="573" type="curve" smooth="yes"/>
      <point x="413" y="329" type="line"/>
      <point x="524" y="514" type="line" smooth="yes"/>
      <point x="549" y="555"/>
      <point x="563" y="590"/>
      <point x="563" y="609" type="curve" smooth="yes"/>
      <point x="563" y="638"/>
      <point x="546" y="646"/>
      <point x="479" y="651" type="curve"/>
      <point x="479" y="676" type="line"/>
      <point x="699" y="676" type="line"/>
      <point x="699" y="651" type="line"/>
      <point x="665" y="646"/>
      <point x="646" y="635"/>
      <point x="631" y="612" type="curve" smooth="yes"/>
      <point x="440" y="301" type="line"/>
      <point x="440" y="117" type="line" smooth="yes"/>
      <point x="440" y="43"/>
      <point x="450" y="33"/>
      <point x="532" y="25" type="curve"/>
      <point x="532" y="0" type="line"/>
      <point x="185" y="0" type="line"/>
      <point x="185" y="25" type="line"/>
      <point x="267" y="33"/>
      <point x="278" y="44"/>
      <point x="278" y="117" type="curve" smooth="yes"/>
      <point x="278" y="264" type="line"/>
      <point x="95" y="596" type="line" smooth="yes"/>
      <point x="75" y="630"/>
      <point x="49" y="649"/>
    </contour>
    <contour>
      <point x="224" y="738" type="line"/>
      <point x="346" y="914" type="line"/>
      <point x="438" y="914" type="line"/>
      <point x="561" y="738" type="line"/>
      <point x="504" y="738" type="line"/>
      <point x="392" y="836" type="line"/>
      <point x="280" y="738" type="line"/>
    </contour>
  </outline>
</glyph>
<glyph name="Ydieresis" format="1">
  <advance width="722"/>
  <unicode hex="0178"/>
  <outline>
    <contour>
      <point x="15" y="651" type="curve"/>
      <point x="15" y="676" type="line"/>
      <point x="350" y="676" type="line"/>
      <point x="350" y="651" type="line"/>
      <point x="325" y="650" type="line" smooth="yes"/>
      <point x="284" y="650"/>
      <point x="269" y="642"/>
      <point x="269" y="620" type="curve" smooth="yes"/>
      <point x="269" y="609"/>
      <point x="273" y="598"/>
      <point x="287" y="573" type="curve" smooth="yes"/>
      <point x="413" y="329" type="line"/>
      <point x="524" y="514" type="line" smooth="yes"/>
      <point x="549" y="555"/>
      <point x="563" y="590"/>
      <point x="563" y="609" type="curve" smooth="yes"/>
      <point x="563" y="638"/>
      <point x="546" y="646"/>
      <point x="479" y="651" type="curve"/>
      <point x="479" y="676" type="line"/>
      <point x="699" y="676" type="line"/>
      <point x="699" y="651" type="line"/>
      <point x="665" y="646"/>
      <point x="646" y="635"/>
      <point x="631" y="612" type="curve" smooth="yes"/>
      <point x="440" y="301" type="line"/>
      <point x="440" y="117" type="line" smooth="yes"/>
      <point x="440" y="43"/>
      <point x="450" y="33"/>
      <point x="532" y="25" type="curve"/>
      <point x="532" y="0" type="line"/>
      <point x="185" y="0" type="line"/>
      <point x="185" y="25" type="line"/>
      <point x="267" y="33"/>
      <point x="278" y="44"/>
      <point x="278" y="117" type="curve" smooth="yes"/>
      <point x="278" y="264" type="line"/>
      <point x="95" y="596" type="line" smooth="yes"/>
      <point x="75" y="630"/>
      <point x="49" y="649"/>
    </contour>
    <contour>
      <point x="224" y="812" type="curve" smooth="yes"/>
      <point x="224" y="846"/>
      <point x="254" y="876"/>
      <point x="288" y="876" type="curve" smooth="yes"/>
      <point x="323" y="876"/>
      <point x="353" y="846"/>
      <point x="353" y="810" type="curve" smooth="yes"/>
      <point x="353" y="775"/>
      <point x="324" y="747"/>
      <point x="288" y="747" type="curve" smooth="yes"/>
      <point x="253" y="747"/>
      <point x="224" y="777"/>
    </contour>
    <contour>
      <point x="434" y="813" type="curve" smooth="yes"/>
      <point x="434" y="846"/>
      <point x="464" y="876"/>
      <point x="497" y="876" type="curve" smooth="yes"/>
      <point x="533" y="876"/>
      <point x="563" y="846"/>
      <point x="563" y="810" type="curve" smooth="yes"/>
      <point x="563" y="775"/>
      <point x="534" y="747"/>
      <point x="497" y="747" type="curve" smooth="yes"/>
      <point x="462" y="747"/>
      <point x="434" y="776"/>
    </contour>
  </outline>
</glyph>
<glyph name="zdotaccent" format="1">
  <advance width="444"/>
  <unicode hex="017C"/>
  <outline>
    <contour>
      <point x="21" y="0" type="line"/>
      <point x="21" y="25" type="line"/>
      <point x="255" y="429" type="line"/>
      <point x="251.082" y="429.028"/>
      <point x="247.254" y="429.043"/>
      <point x="243.512" y="429.043" type="curve" smooth="yes"/>
      <point x="113.546" y="429.043"/>
      <point x="88.3004" y="411.342"/>
      <point x="64" y="319" type="curve"/>
      <point x="38" y="319" type="line"/>
      <point x="45" y="461" type="line"/>
      <point x="416" y="461" type="line"/>
      <point x="416" y="435" type="line"/>
      <point x="185" y="32" type="line"/>
      <point x="214" y="32" type="line" smooth="yes"/>
      <point x="294" y="32"/>
      <point x="327" y="45"/>
      <point x="359" y="89" type="curve" smooth="yes"/>
      <point x="375" y="110"/>
      <point x="383" y="128"/>
      <point x="392" y="160" type="curve"/>
      <point x="420" y="160" type="line"/>
      <point x="404" y="0" type="line"/>
    </contour>
    <contour>
      <point x="169" y="603" type="curve" smooth="yes"/>
      <point x="169" y="636"/>
      <point x="199" y="666"/>
      <point x="232" y="666" type="curve" smooth="yes"/>
      <point x="268" y="666"/>
      <point x="298" y="636"/>
      <point x="298" y="600" type="curve" smooth="yes"/>
      <point x="298" y="565"/>
      <point x="269" y="537"/>
      <point x="232" y="537" type="curve" smooth="yes"/>
      <point x="197" y="537"/>
      <point x="169" y="566"/>
    </contour>
  </outline>
</glyph>
<glyph name="uni0190" format="2">
  <advance width="615"/>
  <unicode hex="0190"/>
  <outline>
    <contour>
      <point x="30" y="183" type="curve" smooth="yes"/>
      <point x="30" y="289"/>
      <point x="133" y="343"/>
      <point x="227" y="348" type="curve"/>
      <point x="227" y="350" type="line"/>
      <point x="142" y="363"/>
      <point x="56" y="409"/>
      <point x="56" y="506" type="curve" smooth="yes"/>
      <point x="56" y="623"/>
      <point x="170" y="676"/>
      <point x="273" y="676" type="curve" smooth="yes"/>
      <point x="318" y="676"/>
      <point x="359" y="668"/>
      <point x="402" y="655" type="curve"/>
      <point x="423" y="648"/>
      <point x="455" y="633"/>
      <point x="477" y="633" type="curve" smooth="yes"/>
      <point x="500" y="633"/>
      <point x="504" y="658"/>
      <point x="506" y="676" type="curve"/>
      <point x="524" y="676" type="line"/>
      <point x="541" y="450" type="line"/>
      <point x="521" y="450" type="line"/>
      <point x="486" y="555"/>
      <point x="425" y="640"/>
      <point x="303" y="640" type="curve" smooth="yes"/>
      <point x="218" y="640"/>
      <point x="160" y="590"/>
      <point x="160" y="503" type="curve" smooth="yes"/>
      <point x="160" y="371"/>
      <point x="275" y="362"/>
      <point x="377" y="360" type="curve"/>
      <point x="377" y="324" type="line"/>
      <point x="275" y="324"/>
      <point x="141" y="318"/>
      <point x="141" y="183" type="curve" smooth="yes"/>
      <point x="141" y="83"/>
      <point x="229" y="34"/>
      <point x="320" y="34" type="curve" smooth="yes"/>
      <point x="409" y="34"/>
      <point x="492" y="82"/>
      <point x="550" y="147" type="curve"/>
      <point x="579" y="121" type="line"/>
      <point x="498" y="32"/>
      <point x="411" y="-14"/>
      <point x="288" y="-14" type="curve" smooth="yes"/>
      <point x="168" y="-14"/>
      <point x="30" y="44"/>
    </contour>
  </outline>
</glyph>
<glyph name="Ohorn" format="2">
  <advance width="823"/>
  <unicode hex="01A0"/>
  <outline>
    <component base="O"/>
    <contour>
      <point x="594" y="630" type="line" smooth="yes"/>
      <point x="626.107" y="629.542"/>
      <point x="688" y="635.018"/>
      <point x="688" y="672.239" type="curve" smooth="yes"/>
      <point x="688" y="685.134"/>
      <point x="680.571" y="694.294"/>
      <point x="672.371" y="704.419" type="curve" smooth="yes"/>
      <point x="659.359" y="720.484"/>
      <point x="651" y="733.566"/>
      <point x="651" y="755" type="curve" smooth="yes"/>
      <point x="651" y="795"/>
      <point x="682" y="820"/>
      <point x="718.092" y="820" type="curve" smooth="yes"/>
      <point x="762" y="820"/>
      <point x="787" y="783"/>
      <point x="787" y="737.052" type="curve" smooth="yes"/>
      <point x="787" y="658"/>
      <point x="712.996" y="607.571"/>
      <point x="624" y="607" type="curve" smooth="yes"/>
      <point x="570.43" y="606.656" type="line"/>
      <point x="569.819" y="630.345" type="line"/>
    </contour>
  </outline>
</glyph>
<glyph name="ohorn" format="2">
  <advance width="540"/>
  <unicode hex="01A1"/>
  <outline>
    <contour>
      <point x="390" y="429" type="line" smooth="yes"/>
      <point x="432.882" y="440.351"/>
      <point x="456.281" y="453.837"/>
      <point x="466.424" y="473.048" type="curve"/>
      <point x="432.412" y="487.867"/>
      <point x="416" y="509.984"/>
      <point x="416" y="541" type="curve" smooth="yes"/>
      <point x="416" y="578.629"/>
      <point x="441.547" y="605"/>
      <point x="481.869" y="605" type="curve" smooth="yes"/>
      <point x="524.143" y="605"/>
      <point x="552" y="576.014"/>
      <point x="552" y="534.711" type="curve" smooth="yes"/>
      <point x="552" y="474.698"/>
      <point x="493.187" y="423.925"/>
      <point x="413" y="408" type="curve" smooth="yes"/>
      <point x="402.868" y="405.988"/>
      <point x="367.668" y="398.997"/>
      <point x="355.763" y="396.633" type="curve"/>
      <point x="355.801" y="400.321"/>
      <point x="355.95" y="415.065"/>
      <point x="356" y="420" type="curve"/>
    </contour>
    <contour>
      <point x="25" y="230" type="curve" smooth="yes"/>
      <point x="25" y="370.2"/>
      <point x="120.185" y="473"/>
      <point x="250" y="473" type="curve" smooth="yes"/>
      <point x="379.815" y="473"/>
      <point x="475" y="370.2"/>
      <point x="475" y="230" type="curve" smooth="yes"/>
      <point x="475" y="90"/>
      <point x="380" y="-14"/>
      <point x="250" y="-14" type="curve" smooth="yes"/>
      <point x="120" y="-14"/>
      <point x="25" y="90"/>
    </contour>
    <contour>
      <point x="172" y="230" type="curve" smooth="yes"/>
      <point x="172" y="68.0769"/>
      <point x="190.704" y="17"/>
      <point x="250" y="17" type="curve" smooth="yes"/>
      <point x="309.296" y="17"/>
      <point x="328" y="68.0769"/>
      <point x="328" y="230" type="curve" smooth="yes"/>
      <point x="328" y="391.538"/>
      <point x="309.434" y="442"/>
      <point x="250" y="442" type="curve" smooth="yes"/>
      <point x="190.566" y="442"/>
      <point x="172" y="391.538"/>
    </contour>
  </outline>
</glyph>
<glyph name="uni01C4" format="1">
  <advance width="1391"/>
  <unicode hex="01C4"/>
  <outline>
    <contour>
      <point x="16" y="0" type="line"/>
      <point x="16" y="25" type="line"/>
      <point x="74" y="27"/>
      <point x="99" y="47"/>
      <point x="99" y="91" type="curve" smooth="yes"/>
      <point x="99" y="584" type="line" smooth="yes"/>
      <point x="99" y="630"/>
      <point x="80" y="645"/>
      <point x="16" y="651" type="curve"/>
      <point x="16" y="676" type="line"/>
      <point x="321" y="676" type="line" smooth="yes"/>
      <point x="552" y="676"/>
      <point x="692" y="551"/>
      <point x="692" y="345" type="curve" smooth="yes"/>
      <point x="692" y="138"/>
      <point x="548" y="0"/>
      <point x="332" y="0" type="curve" smooth="yes"/>
    </contour>
    <contour>
      <point x="261" y="93" type="line" smooth="yes"/>
      <point x="261" y="48"/>
      <point x="274" y="35"/>
      <point x="319" y="35" type="curve" smooth="yes"/>
      <point x="384" y="35"/>
      <point x="432" y="58"/>
      <point x="466" y="104" type="curve" smooth="yes"/>
      <point x="498" y="149"/>
      <point x="518" y="235"/>
      <point x="518" y="330" type="curve" smooth="yes"/>
      <point x="518" y="414"/>
      <point x="504" y="487"/>
      <point x="477" y="540" type="curve" smooth="yes"/>
      <point x="443" y="609"/>
      <point x="392" y="642"/>
      <point x="320" y="642" type="curve" smooth="yes"/>
      <point x="281" y="642"/>
      <point x="261" y="630"/>
      <point x="261" y="607" type="curve" smooth="yes"/>
    </contour>
    <contour>
      <point x="752" y="0" type="line"/>
      <point x="752" y="16" type="line"/>
      <point x="1134" y="641" type="line"/>
      <point x="1121.67" y="640.667"/>
      <point x="1108.33" y="640.556"/>
      <point x="1096.04" y="640.556" type="curve" smooth="yes"/>
      <point x="1071.44" y="640.556"/>
      <point x="1051" y="641"/>
      <point x="1051" y="641" type="curve" smooth="yes"/>
      <point x="1046.99" y="641.054"/>
      <point x="1043.06" y="641.082"/>
      <point x="1039.21" y="641.082" type="curve" smooth="yes"/>
      <point x="900.614" y="641.082"/>
      <point x="857.7" y="605.237"/>
      <point x="811" y="470" type="curve"/>
      <point x="783" y="470" type="line"/>
      <point x="804" y="676" type="line"/>
      <point x="1328" y="676" type="line"/>
      <point x="1328" y="660" type="line"/>
      <point x="949" y="35" type="line"/>
      <point x="1023" y="35" type="line" smooth="yes"/>
      <point x="1119" y="35"/>
      <point x="1201" y="50"/>
      <point x="1235" y="74" type="curve" smooth="yes"/>
      <point x="1282" y="107"/>
      <point x="1305" y="147"/>
      <point x="1332" y="241" type="curve"/>
      <point x="1358" y="241" type="line"/>
      <point x="1332" y="0" type="line"/>
    </contour>
    <contour>
      <point x="890" y="914" type="line"/>
      <point x="946" y="914" type="line"/>
      <point x="1058" y="815" type="line"/>
      <point x="1170" y="914" type="line"/>
      <point x="1227" y="914" type="line"/>
      <point x="1104" y="738" type="line"/>
      <point x="1012" y="738" type="line"/>
    </contour>
  </outline>
</glyph>
<glyph name="uni01C9" format="1">
  <advance width="611"/>
  <unicode hex="01C9"/>
  <outline>
    <contour>
      <point x="16" y="0" type="line"/>
      <point x="16" y="24" type="line"/>
      <point x="50" y="27"/>
      <point x="67" y="47"/>
      <point x="67" y="84" type="curve" smooth="yes"/>
      <point x="67" y="594" type="line" smooth="yes"/>
      <point x="67" y="631"/>
      <point x="51" y="649"/>
      <point x="16" y="652" type="curve"/>
      <point x="16" y="676" type="line"/>
      <point x="206" y="676" type="line"/>
      <point x="206" y="84" type="line" smooth="yes"/>
      <point x="206" y="44"/>
      <point x="222" y="25"/>
      <point x="255" y="24" type="curve"/>
      <point x="255" y="0" type="line"/>
    </contour>
    <contour>
      <point x="221" y="-103" type="curve" smooth="yes"/>
      <point x="221" y="-67"/>
      <point x="246" y="-42"/>
      <point x="283" y="-42" type="curve" smooth="yes"/>
      <point x="315" y="-42"/>
      <point x="342" y="-66"/>
      <point x="342" y="-96" type="curve" smooth="yes"/>
      <point x="342" y="-106"/>
      <point x="338" y="-117"/>
      <point x="328" y="-133" type="curve" smooth="yes"/>
      <point x="322" y="-143"/>
      <point x="319" y="-150"/>
      <point x="319" y="-155" type="curve" smooth="yes"/>
      <point x="319" y="-165"/>
      <point x="332" y="-172"/>
      <point x="351" y="-172" type="curve" smooth="yes"/>
      <point x="384" y="-172"/>
      <point x="399" y="-149"/>
      <point x="399" y="-96" type="curve" smooth="yes"/>
      <point x="399" y="378" type="line" smooth="yes"/>
      <point x="399" y="421"/>
      <point x="387" y="433"/>
      <point x="336" y="437" type="curve"/>
      <point x="336" y="461" type="line"/>
      <point x="538" y="461" type="line"/>
      <point x="538" y="2" type="line" smooth="yes"/>
      <point x="538" y="-57"/>
      <point x="530" y="-95"/>
      <point x="511" y="-127" type="curve" smooth="yes"/>
      <point x="483" y="-176"/>
      <point x="430" y="-203"/>
      <point x="361" y="-203" type="curve" smooth="yes"/>
      <point x="279" y="-203"/>
      <point x="221" y="-162"/>
    </contour>
    <contour>
      <point x="386" y="614" type="curve" smooth="yes"/>
      <point x="386" y="656"/>
      <point x="420" y="691"/>
      <point x="463" y="691" type="curve" smooth="yes"/>
      <point x="506" y="691"/>
      <point x="541" y="656"/>
      <point x="541" y="613" type="curve" smooth="yes"/>
      <point x="541" y="570"/>
      <point x="506" y="536"/>
      <point x="463" y="536" type="curve" smooth="yes"/>
      <point x="418" y="536"/>
      <point x="386" y="569"/>
    </contour>
  </outline>
</glyph>
<glyph name="uni01CC" format="1">
  <advance width="889"/>
  <unicode hex="01CC"/>
  <outline>
    <contour>
      <point x="21" y="0" type="line"/>
      <point x="21" y="24" type="line"/>
      <point x="66" y="33"/>
      <point x="74" y="42"/>
      <point x="74" y="84" type="curve" smooth="yes"/>
      <point x="74" y="378" type="line" smooth="yes"/>
      <point x="74" y="420"/>
      <point x="65" y="430"/>
      <point x="21" y="437" type="curve"/>
      <point x="21" y="461" type="line"/>
      <point x="212" y="461" type="line"/>
      <point x="212" y="386" type="line"/>
      <point x="249" y="445"/>
      <point x="295" y="473"/>
      <point x="355" y="473" type="curve" smooth="yes"/>
      <point x="437" y="473"/>
      <point x="490" y="418"/>
      <point x="490" y="332" type="curve" smooth="yes"/>
      <point x="490" y="81" type="line" smooth="yes"/>
      <point x="490" y="39"/>
      <point x="500" y="27"/>
      <point x="539" y="24" type="curve"/>
      <point x="539" y="0" type="line"/>
      <point x="304" y="0" type="line"/>
      <point x="304" y="24" type="line"/>
      <point x="338" y="28"/>
      <point x="351" y="44"/>
      <point x="351" y="81" type="curve" smooth="yes"/>
      <point x="351" y="323" type="line" smooth="yes"/>
      <point x="351" y="379"/>
      <point x="334" y="406"/>
      <point x="299" y="406" type="curve" smooth="yes"/>
      <point x="276" y="406"/>
      <point x="252" y="394"/>
      <point x="230" y="371" type="curve" smooth="yes"/>
      <point x="220" y="362"/>
      <point x="213" y="352"/>
      <point x="213" y="348" type="curve" smooth="yes"/>
      <point x="213" y="81" type="line" smooth="yes"/>
      <point x="213" y="44"/>
      <point x="225" y="29"/>
      <point x="262" y="24" type="curve"/>
      <point x="262" y="0" type="line"/>
    </contour>
    <contour>
      <point x="499" y="-103" type="curve" smooth="yes"/>
      <point x="499" y="-67"/>
      <point x="524" y="-42"/>
      <point x="561" y="-42" type="curve" smooth="yes"/>
      <point x="593" y="-42"/>
      <point x="620" y="-66"/>
      <point x="620" y="-96" type="curve" smooth="yes"/>
      <point x="620" y="-106"/>
      <point x="616" y="-117"/>
      <point x="606" y="-133" type="curve" smooth="yes"/>
      <point x="600" y="-143"/>
      <point x="597" y="-150"/>
      <point x="597" y="-155" type="curve" smooth="yes"/>
      <point x="597" y="-165"/>
      <point x="610" y="-172"/>
      <point x="629" y="-172" type="curve" smooth="yes"/>
      <point x="662" y="-172"/>
      <point x="677" y="-149"/>
      <point x="677" y="-96" type="curve" smooth="yes"/>
      <point x="677" y="378" type="line" smooth="yes"/>
      <point x="677" y="421"/>
      <point x="665" y="433"/>
      <point x="614" y="437" type="curve"/>
      <point x="614" y="461" type="line"/>
      <point x="816" y="461" type="line"/>
      <point x="816" y="2" type="line" smooth="yes"/>
      <point x="816" y="-57"/>
      <point x="808" y="-95"/>
      <point x="789" y="-127" type="curve" smooth="yes"/>
      <point x="761" y="-176"/>
      <point x="708" y="-203"/>
      <point x="639" y="-203" type="curve" smooth="yes"/>
      <point x="557" y="-203"/>
      <point x="499" y="-162"/>
    </contour>
    <contour>
      <point x="664" y="614" type="curve" smooth="yes"/>
      <point x="664" y="656"/>
      <point x="698" y="691"/>
      <point x="741" y="691" type="curve" smooth="yes"/>
      <point x="784" y="691"/>
      <point x="819" y="656"/>
      <point x="819" y="613" type="curve" smooth="yes"/>
      <point x="819" y="570"/>
      <point x="784" y="536"/>
      <point x="741" y="536" type="curve" smooth="yes"/>
      <point x="696" y="536"/>
      <point x="664" y="569"/>
    </contour>
  </outline>
</glyph>
<glyph name="uni01DD" format="1">
  <advance width="444"/>
  <unicode hex="01DD"/>
  <outline>
    <contour>
      <point x="25" y="348" type="line"/>
      <point x="90" y="441"/>
      <point x="139" y="473"/>
      <point x="220" y="473" type="curve" smooth="yes"/>
      <point x="344" y="473"/>
      <point x="426" y="377"/>
      <point x="426" y="231" type="curve" smooth="yes"/>
      <point x="426" y="85"/>
      <point x="342" y="-14"/>
      <point x="217" y="-14" type="curve" smooth="yes"/>
      <point x="162" y="-14"/>
      <point x="116" y="6"/>
      <point x="83" y="45" type="curve" smooth="yes"/>
      <point x="51" y="83"/>
      <point x="36" y="130"/>
      <point x="30" y="214" type="curve"/>
      <point x="282" y="214" type="line"/>
      <point x="278" y="283"/>
      <point x="270" y="316"/>
      <point x="252" y="348" type="curve" smooth="yes"/>
      <point x="231" y="383"/>
      <point x="202" y="401"/>
      <point x="163" y="401" type="curve" smooth="yes"/>
      <point x="120" y="401"/>
      <point x="89" y="383"/>
      <point x="49" y="334" type="curve"/>
    </contour>
    <contour>
      <point x="153" y="162" type="line" smooth="yes"/>
      <point x="155" y="111"/>
      <point x="157" y="83"/>
      <point x="162" y="64" type="curve" smooth="yes"/>
      <point x="170" y="33"/>
      <point x="189" y="17"/>
      <point x="217" y="17" type="curve" smooth="yes"/>
      <point x="266" y="17"/>
      <point x="284" y="57"/>
      <point x="287" y="177" type="curve"/>
      <point x="153" y="177" type="line"/>
    </contour>
  </outline>
</glyph>
<glyph name="uni01E3" format="1">
  <advance width="722"/>
  <unicode hex="01E3"/>
  <outline>
    <contour>
      <point x="33" y="94" type="curve" smooth="yes"/>
      <point x="33" y="138"/>
      <point x="51" y="171"/>
      <point x="90" y="198" type="curve" smooth="yes"/>
      <point x="122" y="221"/>
      <point x="167" y="238"/>
      <point x="296" y="280" type="curve"/>
      <point x="296" y="360" type="line" smooth="yes"/>
      <point x="296" y="418"/>
      <point x="274" y="441"/>
      <point x="218" y="441" type="curve" smooth="yes"/>
      <point x="180" y="441"/>
      <point x="153" y="426"/>
      <point x="153" y="406" type="curve" smooth="yes"/>
      <point x="153" y="399"/>
      <point x="156" y="394"/>
      <point x="165" y="384" type="curve" smooth="yes"/>
      <point x="178" y="369"/>
      <point x="182" y="360"/>
      <point x="182" y="341" type="curve" smooth="yes"/>
      <point x="182" y="305"/>
      <point x="159" y="284"/>
      <point x="119" y="284" type="curve" smooth="yes"/>
      <point x="77" y="284"/>
      <point x="50" y="309"/>
      <point x="50" y="348" type="curve" smooth="yes"/>
      <point x="50" y="420"/>
      <point x="127" y="473"/>
      <point x="232" y="473" type="curve" smooth="yes"/>
      <point x="298" y="473"/>
      <point x="336" y="459"/>
      <point x="374" y="422" type="curve"/>
      <point x="411" y="458"/>
      <point x="449" y="473"/>
      <point x="501" y="473" type="curve" smooth="yes"/>
      <point x="575" y="473"/>
      <point x="636" y="436"/>
      <point x="666" y="375" type="curve" smooth="yes"/>
      <point x="683" y="340"/>
      <point x="688" y="310"/>
      <point x="688" y="248" type="curve"/>
      <point x="434" y="248" type="line"/>
      <point x="434" y="225" type="line" smooth="yes"/>
      <point x="434" y="110"/>
      <point x="468" y="61"/>
      <point x="549" y="61" type="curve" smooth="yes"/>
      <point x="598" y="61"/>
      <point x="633" y="80"/>
      <point x="672" y="128" type="curve"/>
      <point x="693" y="113" type="line"/>
      <point x="634" y="23"/>
      <point x="579" y="-9"/>
      <point x="484" y="-9" type="curve" smooth="yes"/>
      <point x="414" y="-9"/>
      <point x="375" y="13"/>
      <point x="337" y="75" type="curve"/>
      <point x="331" y="69" type="line" smooth="yes"/>
      <point x="275" y="13"/>
      <point x="216" y="-14"/>
      <point x="151" y="-14" type="curve" smooth="yes"/>
      <point x="74" y="-14"/>
      <point x="33" y="24"/>
    </contour>
    <contour>
      <point x="177" y="121" type="curve" smooth="yes"/>
      <point x="177" y="74"/>
      <point x="197" y="49"/>
      <point x="234" y="49" type="curve" smooth="yes"/>
      <point x="257" y="49"/>
      <point x="272" y="56"/>
      <point x="296" y="81" type="curve"/>
      <point x="296" y="248" type="line"/>
      <point x="208" y="216"/>
      <point x="177" y="183"/>
    </contour>
    <contour>
      <point x="205" y="565" type="line"/>
      <point x="205" y="637" type="line"/>
      <point x="535" y="637" type="line"/>
      <point x="535" y="565" type="line"/>
    </contour>
    <contour>
      <point x="434" y="285" type="curve"/>
      <point x="567" y="285" type="line"/>
      <point x="567" y="318" type="line" smooth="yes"/>
      <point x="567" y="411"/>
      <point x="551" y="443"/>
      <point x="504" y="443" type="curve" smooth="yes"/>
      <point x="452" y="443"/>
      <point x="434" y="403"/>
    </contour>
  </outline>
</glyph>
